<mxfile host="app.diagrams.net" agent="Mozilla/5.0 (Windows NT 10.0; Win64; x64) AppleWebKit/537.36 (KHTML, like Gecko) Chrome/132.0.0.0 Safari/537.36" version="26.0.10">
  <diagram id="prtHgNgQTEPvFCAcTncT" name="Page-1">
    <mxGraphModel dx="1434" dy="778" grid="1" gridSize="10" guides="1" tooltips="1" connect="1" arrows="1" fold="1" page="1" pageScale="1" pageWidth="827" pageHeight="1169" math="0" shadow="0">
      <root>
        <mxCell id="0" />
        <mxCell id="1" parent="0" />
        <mxCell id="aA0_iblHv8PYga31qT8g-118" style="edgeStyle=orthogonalEdgeStyle;rounded=0;orthogonalLoop=1;jettySize=auto;html=1;entryX=0;entryY=0.5;entryDx=0;entryDy=0;" parent="1" source="aA0_iblHv8PYga31qT8g-114" target="aA0_iblHv8PYga31qT8g-117" edge="1">
          <mxGeometry relative="1" as="geometry" />
        </mxCell>
        <mxCell id="aA0_iblHv8PYga31qT8g-120" style="edgeStyle=orthogonalEdgeStyle;rounded=0;orthogonalLoop=1;jettySize=auto;html=1;" parent="1" source="aA0_iblHv8PYga31qT8g-114" target="aA0_iblHv8PYga31qT8g-119" edge="1">
          <mxGeometry relative="1" as="geometry">
            <Array as="points">
              <mxPoint x="1110" y="830" />
              <mxPoint x="1110" y="945" />
            </Array>
          </mxGeometry>
        </mxCell>
        <mxCell id="aA0_iblHv8PYga31qT8g-114" value="" style="rounded=1;whiteSpace=wrap;html=1;fillColor=none;" parent="1" vertex="1">
          <mxGeometry x="620" y="780" width="460" height="100" as="geometry" />
        </mxCell>
        <mxCell id="aA0_iblHv8PYga31qT8g-3" value="&lt;h1 style=&quot;margin-top: 0px;&quot;&gt;&lt;span style=&quot;background-color: transparent; color: light-dark(rgb(0, 0, 0), rgb(255, 255, 255));&quot;&gt;&lt;font style=&quot;font-size: 48px;&quot;&gt;Cicle de vida d&#39;una formació de la DGFP&lt;/font&gt;&lt;/span&gt;&lt;/h1&gt;" style="text;html=1;whiteSpace=wrap;overflow=hidden;rounded=0;" parent="1" vertex="1">
          <mxGeometry x="770" y="20" width="960" height="50" as="geometry" />
        </mxCell>
        <mxCell id="aA0_iblHv8PYga31qT8g-97" style="edgeStyle=orthogonalEdgeStyle;rounded=0;orthogonalLoop=1;jettySize=auto;html=1;entryX=0;entryY=0.5;entryDx=0;entryDy=0;" parent="1" source="aA0_iblHv8PYga31qT8g-4" target="aA0_iblHv8PYga31qT8g-5" edge="1">
          <mxGeometry relative="1" as="geometry" />
        </mxCell>
        <mxCell id="aA0_iblHv8PYga31qT8g-4" value="PROPOSTA CURS" style="rounded=1;whiteSpace=wrap;html=1;" parent="1" vertex="1">
          <mxGeometry x="130" y="200" width="120" height="60" as="geometry" />
        </mxCell>
        <mxCell id="aA0_iblHv8PYga31qT8g-7" style="edgeStyle=orthogonalEdgeStyle;rounded=0;orthogonalLoop=1;jettySize=auto;html=1;entryX=0;entryY=0.5;entryDx=0;entryDy=0;" parent="1" source="aA0_iblHv8PYga31qT8g-5" target="aA0_iblHv8PYga31qT8g-6" edge="1">
          <mxGeometry relative="1" as="geometry" />
        </mxCell>
        <mxCell id="aA0_iblHv8PYga31qT8g-10" style="edgeStyle=orthogonalEdgeStyle;rounded=0;orthogonalLoop=1;jettySize=auto;html=1;exitX=0.5;exitY=1;exitDx=0;exitDy=0;entryX=0;entryY=0.5;entryDx=0;entryDy=0;" parent="1" source="aA0_iblHv8PYga31qT8g-5" target="aA0_iblHv8PYga31qT8g-8" edge="1">
          <mxGeometry relative="1" as="geometry" />
        </mxCell>
        <mxCell id="aA0_iblHv8PYga31qT8g-98" style="edgeStyle=orthogonalEdgeStyle;rounded=0;orthogonalLoop=1;jettySize=auto;html=1;entryX=0;entryY=0.5;entryDx=0;entryDy=0;" parent="1" source="aA0_iblHv8PYga31qT8g-5" target="aA0_iblHv8PYga31qT8g-12" edge="1">
          <mxGeometry relative="1" as="geometry" />
        </mxCell>
        <mxCell id="aA0_iblHv8PYga31qT8g-5" value="DETALLAR DADES" style="rounded=1;whiteSpace=wrap;html=1;" parent="1" vertex="1">
          <mxGeometry x="284" y="200" width="120" height="60" as="geometry" />
        </mxCell>
        <mxCell id="aA0_iblHv8PYga31qT8g-6" value="DATES" style="rounded=0;whiteSpace=wrap;html=1;" parent="1" vertex="1">
          <mxGeometry x="364" y="310" width="120" height="60" as="geometry" />
        </mxCell>
        <mxCell id="aA0_iblHv8PYga31qT8g-8" value="DEFINIR:&lt;div&gt;- Objectius&lt;/div&gt;&lt;div&gt;- Temari&lt;/div&gt;&lt;div&gt;- Famíles&lt;/div&gt;" style="rounded=0;whiteSpace=wrap;html=1;" parent="1" vertex="1">
          <mxGeometry x="364" y="420" width="120" height="60" as="geometry" />
        </mxCell>
        <mxCell id="aA0_iblHv8PYga31qT8g-58" style="edgeStyle=orthogonalEdgeStyle;rounded=0;orthogonalLoop=1;jettySize=auto;html=1;entryX=0;entryY=0.5;entryDx=0;entryDy=0;" parent="1" source="aA0_iblHv8PYga31qT8g-12" target="aA0_iblHv8PYga31qT8g-43" edge="1">
          <mxGeometry relative="1" as="geometry" />
        </mxCell>
        <mxCell id="aA0_iblHv8PYga31qT8g-60" style="edgeStyle=orthogonalEdgeStyle;rounded=0;orthogonalLoop=1;jettySize=auto;html=1;exitX=1;exitY=0.5;exitDx=0;exitDy=0;entryX=0;entryY=0.5;entryDx=0;entryDy=0;" parent="1" source="aA0_iblHv8PYga31qT8g-12" target="aA0_iblHv8PYga31qT8g-59" edge="1">
          <mxGeometry relative="1" as="geometry" />
        </mxCell>
        <mxCell id="aA0_iblHv8PYga31qT8g-115" style="edgeStyle=orthogonalEdgeStyle;rounded=0;orthogonalLoop=1;jettySize=auto;html=1;exitX=1;exitY=0.5;exitDx=0;exitDy=0;entryX=0;entryY=0.5;entryDx=0;entryDy=0;" parent="1" source="aA0_iblHv8PYga31qT8g-12" target="aA0_iblHv8PYga31qT8g-114" edge="1">
          <mxGeometry relative="1" as="geometry">
            <Array as="points">
              <mxPoint x="590" y="230" />
              <mxPoint x="590" y="830" />
            </Array>
          </mxGeometry>
        </mxCell>
        <mxCell id="aA0_iblHv8PYga31qT8g-130" value="&lt;span style=&quot;color: rgba(0, 0, 0, 0); font-family: monospace; font-size: 0px; text-align: start; background-color: rgb(251, 251, 251);&quot;&gt;%3CmxGraphModel%3E%3Croot%3E%3CmxCell%20id%3D%220%22%2F%3E%3CmxCell%20id%3D%221%22%20parent%3D%220%22%2F%3E%3CmxCell%20id%3D%222%22%20value%3D%22Proc%C3%A9s%20en%26lt%3Bdiv%26gt%3Bparal%C2%B7lel%26lt%3B%2Fdiv%26gt%3B%22%20style%3D%22edgeLabel%3Bhtml%3D1%3Balign%3Dcenter%3BverticalAlign%3Dmiddle%3Bresizable%3D0%3Bpoints%3D%5B%5D%3B%22%20vertex%3D%221%22%20connectable%3D%220%22%20parent%3D%221%22%3E%3CmxGeometry%20x%3D%22588%22%20y%3D%22500.16666666666674%22%20as%3D%22geometry%22%2F%3E%3C%2FmxCell%3E%3C%2Froot%3E%3C%2FmxGraphModel%3E&lt;/span&gt;" style="edgeLabel;html=1;align=center;verticalAlign=middle;resizable=0;points=[];" parent="aA0_iblHv8PYga31qT8g-115" vertex="1" connectable="0">
          <mxGeometry x="0.0612" y="4" relative="1" as="geometry">
            <mxPoint as="offset" />
          </mxGeometry>
        </mxCell>
        <mxCell id="aA0_iblHv8PYga31qT8g-131" value="Procés en&lt;div&gt;paral·lel&lt;/div&gt;" style="edgeLabel;html=1;align=center;verticalAlign=middle;resizable=0;points=[];" parent="aA0_iblHv8PYga31qT8g-115" vertex="1" connectable="0">
          <mxGeometry x="0.053" y="1" relative="1" as="geometry">
            <mxPoint as="offset" />
          </mxGeometry>
        </mxCell>
        <mxCell id="aA0_iblHv8PYga31qT8g-12" value="AFEGIR PROPOSTA A FULL D&#39;EXCEL" style="rounded=1;whiteSpace=wrap;html=1;" parent="1" vertex="1">
          <mxGeometry x="440" y="200" width="130" height="60" as="geometry" />
        </mxCell>
        <mxCell id="aA0_iblHv8PYga31qT8g-99" style="edgeStyle=orthogonalEdgeStyle;rounded=0;orthogonalLoop=1;jettySize=auto;html=1;exitX=1;exitY=0.5;exitDx=0;exitDy=0;" parent="1" source="aA0_iblHv8PYga31qT8g-43" target="aA0_iblHv8PYga31qT8g-44" edge="1">
          <mxGeometry relative="1" as="geometry" />
        </mxCell>
        <mxCell id="aA0_iblHv8PYga31qT8g-43" value="ALTA DE FORMACIÓ EN GESFORM" style="rounded=1;whiteSpace=wrap;html=1;fillColor=#fad9d5;strokeColor=#ae4132;" parent="1" vertex="1">
          <mxGeometry x="610" y="200" width="130" height="60" as="geometry" />
        </mxCell>
        <mxCell id="aA0_iblHv8PYga31qT8g-100" style="edgeStyle=orthogonalEdgeStyle;rounded=0;orthogonalLoop=1;jettySize=auto;html=1;entryX=0;entryY=0.5;entryDx=0;entryDy=0;" parent="1" source="aA0_iblHv8PYga31qT8g-44" target="aA0_iblHv8PYga31qT8g-57" edge="1">
          <mxGeometry relative="1" as="geometry" />
        </mxCell>
        <mxCell id="aA0_iblHv8PYga31qT8g-44" value="" style="sketch=0;outlineConnect=0;fontColor=#232F3E;gradientColor=none;fillColor=#DD344C;strokeColor=none;dashed=0;verticalLabelPosition=bottom;verticalAlign=top;align=center;html=1;fontSize=12;fontStyle=0;aspect=fixed;shape=mxgraph.aws4.email;" parent="1" vertex="1">
          <mxGeometry x="788" y="195.5" width="78" height="69" as="geometry" />
        </mxCell>
        <mxCell id="aA0_iblHv8PYga31qT8g-45" value="&lt;div&gt;&lt;br&gt;&lt;/div&gt;&lt;div&gt;SDG&lt;/div&gt;" style="shape=actor;whiteSpace=wrap;html=1;fillColor=#f8cecc;strokeColor=#b85450;gradientColor=#ea6b66;" parent="1" vertex="1">
          <mxGeometry x="534" y="150" width="30" height="40" as="geometry" />
        </mxCell>
        <mxCell id="aA0_iblHv8PYga31qT8g-46" value="&lt;div&gt;&lt;br&gt;&lt;/div&gt;&lt;div&gt;CS&lt;/div&gt;" style="shape=actor;whiteSpace=wrap;html=1;fillColor=#ffcd28;strokeColor=#d79b00;gradientColor=#ffa500;" parent="1" vertex="1">
          <mxGeometry x="494" y="150" width="30" height="40" as="geometry" />
        </mxCell>
        <mxCell id="aA0_iblHv8PYga31qT8g-48" value="&lt;div&gt;&lt;br&gt;&lt;/div&gt;&lt;div&gt;AS&lt;/div&gt;" style="shape=actor;whiteSpace=wrap;html=1;fillColor=#dae8fc;strokeColor=#6c8ebf;gradientColor=#7ea6e0;" parent="1" vertex="1">
          <mxGeometry x="454" y="150" width="30" height="40" as="geometry" />
        </mxCell>
        <mxCell id="aA0_iblHv8PYga31qT8g-50" value="&lt;font&gt;R&lt;/font&gt;" style="ellipse;whiteSpace=wrap;html=1;aspect=fixed;fillColor=#e51400;fontColor=#ffffff;strokeColor=none;container=1;movable=1;resizable=1;rotatable=1;deletable=1;editable=1;locked=0;connectable=1;" parent="1" vertex="1">
          <mxGeometry x="511" y="140" width="20" height="20" as="geometry" />
        </mxCell>
        <mxCell id="aA0_iblHv8PYga31qT8g-51" value="&lt;font&gt;V&lt;/font&gt;" style="ellipse;whiteSpace=wrap;html=1;aspect=fixed;fillColor=#008a00;fontColor=#ffffff;strokeColor=none;container=1;movable=1;resizable=1;rotatable=1;deletable=1;editable=1;locked=0;connectable=1;" parent="1" vertex="1">
          <mxGeometry x="550" y="140" width="20" height="20" as="geometry" />
        </mxCell>
        <mxCell id="aA0_iblHv8PYga31qT8g-54" value="&lt;div&gt;&lt;br&gt;&lt;/div&gt;&lt;div&gt;CS&lt;/div&gt;" style="shape=actor;whiteSpace=wrap;html=1;fillColor=#ffcd28;strokeColor=#d79b00;gradientColor=#ffa500;" parent="1" vertex="1">
          <mxGeometry x="797" y="150" width="30" height="40" as="geometry" />
        </mxCell>
        <mxCell id="aA0_iblHv8PYga31qT8g-55" value="&lt;div&gt;&lt;br&gt;&lt;/div&gt;&lt;div&gt;AS&lt;/div&gt;" style="shape=actor;whiteSpace=wrap;html=1;fillColor=#dae8fc;strokeColor=#6c8ebf;gradientColor=#7ea6e0;" parent="1" vertex="1">
          <mxGeometry x="640" y="151" width="30" height="40" as="geometry" />
        </mxCell>
        <mxCell id="aA0_iblHv8PYga31qT8g-56" value="&lt;div&gt;&lt;br&gt;&lt;/div&gt;&lt;div&gt;MA&lt;/div&gt;" style="shape=actor;whiteSpace=wrap;html=1;fillColor=#e6d0de;strokeColor=#996185;gradientColor=#d5739d;container=0;" parent="1" vertex="1">
          <mxGeometry x="836" y="151" width="30" height="40" as="geometry" />
        </mxCell>
        <mxCell id="aA0_iblHv8PYga31qT8g-142" style="edgeStyle=orthogonalEdgeStyle;rounded=0;orthogonalLoop=1;jettySize=auto;html=1;entryX=0;entryY=0.5;entryDx=0;entryDy=0;" parent="1" source="aA0_iblHv8PYga31qT8g-57" target="aA0_iblHv8PYga31qT8g-141" edge="1">
          <mxGeometry relative="1" as="geometry" />
        </mxCell>
        <mxCell id="aA0_iblHv8PYga31qT8g-57" value="VALIDACIÓ CURS AL GESFORM" style="rounded=1;whiteSpace=wrap;html=1;" parent="1" vertex="1">
          <mxGeometry x="920" y="200" width="130" height="60" as="geometry" />
        </mxCell>
        <mxCell id="aA0_iblHv8PYga31qT8g-75" style="edgeStyle=orthogonalEdgeStyle;rounded=0;orthogonalLoop=1;jettySize=auto;html=1;exitX=0.25;exitY=1;exitDx=0;exitDy=0;entryX=0;entryY=0.5;entryDx=0;entryDy=0;" parent="1" source="aA0_iblHv8PYga31qT8g-59" target="aA0_iblHv8PYga31qT8g-66" edge="1">
          <mxGeometry relative="1" as="geometry" />
        </mxCell>
        <mxCell id="aA0_iblHv8PYga31qT8g-59" value="CREAR BANER" style="rounded=1;whiteSpace=wrap;html=1;" parent="1" vertex="1">
          <mxGeometry x="610" y="350" width="130" height="60" as="geometry" />
        </mxCell>
        <mxCell id="aA0_iblHv8PYga31qT8g-64" value="" style="endArrow=none;dashed=1;html=1;rounded=0;" parent="1" edge="1">
          <mxGeometry width="50" height="50" relative="1" as="geometry">
            <mxPoint x="1320" y="360" as="sourcePoint" />
            <mxPoint x="1320" y="90" as="targetPoint" />
          </mxGeometry>
        </mxCell>
        <mxCell id="aA0_iblHv8PYga31qT8g-65" value="Almenys 7 dies&lt;div&gt;abans de començar&lt;/div&gt;&lt;div&gt;la formació&lt;/div&gt;" style="edgeLabel;html=1;align=center;verticalAlign=middle;resizable=0;points=[];" parent="aA0_iblHv8PYga31qT8g-64" vertex="1" connectable="0">
          <mxGeometry x="-0.0188" y="-3" relative="1" as="geometry">
            <mxPoint y="-37" as="offset" />
          </mxGeometry>
        </mxCell>
        <mxCell id="aA0_iblHv8PYga31qT8g-78" style="edgeStyle=orthogonalEdgeStyle;rounded=0;orthogonalLoop=1;jettySize=auto;html=1;exitX=1;exitY=0.5;exitDx=0;exitDy=0;" parent="1" source="aA0_iblHv8PYga31qT8g-66" target="aA0_iblHv8PYga31qT8g-69" edge="1">
          <mxGeometry relative="1" as="geometry" />
        </mxCell>
        <mxCell id="aA0_iblHv8PYga31qT8g-81" style="edgeStyle=orthogonalEdgeStyle;rounded=0;orthogonalLoop=1;jettySize=auto;html=1;exitX=1;exitY=0.5;exitDx=0;exitDy=0;entryX=0;entryY=0.5;entryDx=0;entryDy=0;" parent="1" source="aA0_iblHv8PYga31qT8g-66" target="aA0_iblHv8PYga31qT8g-80" edge="1">
          <mxGeometry relative="1" as="geometry" />
        </mxCell>
        <mxCell id="aA0_iblHv8PYga31qT8g-66" value="Ús aplicació creació baner" style="rounded=1;whiteSpace=wrap;html=1;" parent="1" vertex="1">
          <mxGeometry x="670" y="470" width="147" height="60" as="geometry" />
        </mxCell>
        <mxCell id="aA0_iblHv8PYga31qT8g-87" style="edgeStyle=orthogonalEdgeStyle;rounded=0;orthogonalLoop=1;jettySize=auto;html=1;entryX=0;entryY=0.5;entryDx=0;entryDy=0;" parent="1" source="aA0_iblHv8PYga31qT8g-69" target="aA0_iblHv8PYga31qT8g-76" edge="1">
          <mxGeometry relative="1" as="geometry" />
        </mxCell>
        <mxCell id="aA0_iblHv8PYga31qT8g-89" style="edgeStyle=orthogonalEdgeStyle;rounded=0;orthogonalLoop=1;jettySize=auto;html=1;entryX=0;entryY=0.5;entryDx=0;entryDy=0;" parent="1" source="aA0_iblHv8PYga31qT8g-69" target="aA0_iblHv8PYga31qT8g-77" edge="1">
          <mxGeometry relative="1" as="geometry" />
        </mxCell>
        <mxCell id="aA0_iblHv8PYga31qT8g-69" value="" style="sketch=0;outlineConnect=0;fontColor=#232F3E;gradientColor=none;fillColor=#DD344C;strokeColor=none;dashed=0;verticalLabelPosition=bottom;verticalAlign=top;align=center;html=1;fontSize=12;fontStyle=0;aspect=fixed;shape=mxgraph.aws4.email;" parent="1" vertex="1">
          <mxGeometry x="860" y="465.5" width="78" height="69" as="geometry" />
        </mxCell>
        <mxCell id="aA0_iblHv8PYga31qT8g-70" value="&lt;div&gt;&lt;br&gt;&lt;/div&gt;&lt;div&gt;GA&lt;/div&gt;" style="shape=actor;whiteSpace=wrap;html=1;fillColor=#FFCEEB;strokeColor=#6c8ebf;gradientColor=#4C82FF;container=0;" parent="1" vertex="1">
          <mxGeometry x="1020" y="470" width="30" height="40" as="geometry" />
        </mxCell>
        <mxCell id="aA0_iblHv8PYga31qT8g-71" value="&lt;div&gt;&lt;br&gt;&lt;/div&gt;&lt;div&gt;AS&lt;/div&gt;" style="shape=actor;whiteSpace=wrap;html=1;fillColor=#dae8fc;strokeColor=#6c8ebf;gradientColor=#7ea6e0;container=0;" parent="1" vertex="1">
          <mxGeometry x="727" y="421" width="30" height="40" as="geometry" />
        </mxCell>
        <mxCell id="aA0_iblHv8PYga31qT8g-72" value="&lt;div&gt;&lt;br&gt;&lt;/div&gt;&lt;div&gt;AS&lt;/div&gt;" style="shape=actor;whiteSpace=wrap;html=1;fillColor=#dae8fc;strokeColor=#6c8ebf;gradientColor=#7ea6e0;" parent="1" vertex="1">
          <mxGeometry x="680" y="151" width="30" height="40" as="geometry" />
        </mxCell>
        <mxCell id="aA0_iblHv8PYga31qT8g-73" value="&lt;div&gt;&lt;br&gt;&lt;/div&gt;&lt;div&gt;MA&lt;/div&gt;" style="shape=actor;whiteSpace=wrap;html=1;fillColor=#e6d0de;strokeColor=#996185;gradientColor=#d5739d;container=0;" parent="1" vertex="1">
          <mxGeometry x="870" y="425.5" width="30" height="40" as="geometry" />
        </mxCell>
        <mxCell id="aA0_iblHv8PYga31qT8g-74" value="&lt;span style=&quot;color: rgb(0, 0, 0); font-family: Helvetica; font-size: 12px; font-style: normal; font-variant-ligatures: normal; font-variant-caps: normal; font-weight: 400; letter-spacing: normal; orphans: 2; text-indent: 0px; text-transform: none; widows: 2; word-spacing: 0px; -webkit-text-stroke-width: 0px; white-space: normal; background-color: rgb(251, 251, 251); text-decoration-thickness: initial; text-decoration-style: initial; text-decoration-color: initial; float: none; display: inline !important;&quot;&gt;Es pot facilitar un SVG on únicament es modificarà el text i les imatges en l&#39;encuadre marcat&lt;/span&gt;" style="text;whiteSpace=wrap;html=1;align=center;" parent="1" vertex="1">
          <mxGeometry x="667" y="530" width="150" height="70" as="geometry" />
        </mxCell>
        <mxCell id="aA0_iblHv8PYga31qT8g-92" style="edgeStyle=orthogonalEdgeStyle;rounded=0;orthogonalLoop=1;jettySize=auto;html=1;entryX=0;entryY=0.5;entryDx=0;entryDy=0;" parent="1" source="aA0_iblHv8PYga31qT8g-76" target="aA0_iblHv8PYga31qT8g-91" edge="1">
          <mxGeometry relative="1" as="geometry" />
        </mxCell>
        <mxCell id="aA0_iblHv8PYga31qT8g-76" value="Carrusel CEFIRE FP" style="rounded=1;whiteSpace=wrap;html=1;" parent="1" vertex="1">
          <mxGeometry x="980" y="400" width="120" height="60" as="geometry" />
        </mxCell>
        <mxCell id="aA0_iblHv8PYga31qT8g-93" style="edgeStyle=orthogonalEdgeStyle;rounded=0;orthogonalLoop=1;jettySize=auto;html=1;" parent="1" source="aA0_iblHv8PYga31qT8g-77" target="aA0_iblHv8PYga31qT8g-91" edge="1">
          <mxGeometry relative="1" as="geometry" />
        </mxCell>
        <mxCell id="aA0_iblHv8PYga31qT8g-77" value="POST EN PÀGINA DGFP" style="rounded=1;whiteSpace=wrap;html=1;" parent="1" vertex="1">
          <mxGeometry x="980" y="520" width="120" height="60" as="geometry" />
        </mxCell>
        <mxCell id="aA0_iblHv8PYga31qT8g-79" value="POST EN TELEGRAM FP" style="rounded=1;whiteSpace=wrap;html=1;" parent="1" vertex="1">
          <mxGeometry x="980" y="630" width="120" height="60" as="geometry" />
        </mxCell>
        <mxCell id="aA0_iblHv8PYga31qT8g-82" style="edgeStyle=orthogonalEdgeStyle;rounded=0;orthogonalLoop=1;jettySize=auto;html=1;exitX=1;exitY=0.5;exitDx=0;exitDy=0;entryX=0;entryY=0.5;entryDx=0;entryDy=0;" parent="1" source="aA0_iblHv8PYga31qT8g-80" target="aA0_iblHv8PYga31qT8g-79" edge="1">
          <mxGeometry relative="1" as="geometry" />
        </mxCell>
        <mxCell id="aA0_iblHv8PYga31qT8g-80" value="" style="shape=image;html=1;verticalAlign=top;verticalLabelPosition=bottom;labelBackgroundColor=#ffffff;imageAspect=0;aspect=fixed;image=https://cdn1.iconfinder.com/data/icons/unicons-line-vol-6/24/telegram-alt-128.png" parent="1" vertex="1">
          <mxGeometry x="870" y="630" width="60" height="60" as="geometry" />
        </mxCell>
        <mxCell id="aA0_iblHv8PYga31qT8g-83" value="&lt;div&gt;&lt;br&gt;&lt;/div&gt;&lt;div&gt;CS&lt;/div&gt;" style="shape=actor;whiteSpace=wrap;html=1;fillColor=#ffcd28;strokeColor=#d79b00;gradientColor=#ffa500;container=0;" parent="1" vertex="1">
          <mxGeometry x="890" y="585" width="30" height="40" as="geometry" />
        </mxCell>
        <mxCell id="aA0_iblHv8PYga31qT8g-84" value="&lt;div&gt;&lt;br&gt;&lt;/div&gt;&lt;div&gt;CS&lt;/div&gt;" style="shape=actor;whiteSpace=wrap;html=1;fillColor=#ffcd28;strokeColor=#d79b00;gradientColor=#ffa500;container=0;" parent="1" vertex="1">
          <mxGeometry x="1020" y="585" width="30" height="40" as="geometry" />
        </mxCell>
        <mxCell id="aA0_iblHv8PYga31qT8g-85" value="&lt;div&gt;&lt;br&gt;&lt;/div&gt;&lt;div&gt;MA&lt;/div&gt;" style="shape=actor;whiteSpace=wrap;html=1;fillColor=#e6d0de;strokeColor=#996185;gradientColor=#d5739d;container=0;" parent="1" vertex="1">
          <mxGeometry x="1020" y="350" width="30" height="40" as="geometry" />
        </mxCell>
        <mxCell id="aA0_iblHv8PYga31qT8g-86" value="&lt;div&gt;&lt;br&gt;&lt;/div&gt;&lt;div&gt;GA&lt;/div&gt;" style="shape=actor;whiteSpace=wrap;html=1;fillColor=#FFCEEB;strokeColor=#6c8ebf;gradientColor=#4C82FF;container=0;" parent="1" vertex="1">
          <mxGeometry x="908" y="425.5" width="30" height="40" as="geometry" />
        </mxCell>
        <mxCell id="aA0_iblHv8PYga31qT8g-90" value="&lt;div&gt;&lt;br&gt;&lt;/div&gt;&lt;div&gt;GA&lt;/div&gt;" style="shape=actor;whiteSpace=wrap;html=1;fillColor=#FFCEEB;strokeColor=#6c8ebf;gradientColor=#4C82FF;container=0;" parent="1" vertex="1">
          <mxGeometry x="1180" y="420" width="30" height="40" as="geometry" />
        </mxCell>
        <mxCell id="aA0_iblHv8PYga31qT8g-95" style="edgeStyle=orthogonalEdgeStyle;rounded=0;orthogonalLoop=1;jettySize=auto;html=1;exitX=1;exitY=0.5;exitDx=0;exitDy=0;entryX=0;entryY=0.5;entryDx=0;entryDy=0;" parent="1" source="aA0_iblHv8PYga31qT8g-91" target="aA0_iblHv8PYga31qT8g-94" edge="1">
          <mxGeometry relative="1" as="geometry" />
        </mxCell>
        <mxCell id="aA0_iblHv8PYga31qT8g-91" value="Agafa url del Carrusel o Pàgina DGFP i envia url" style="rounded=1;whiteSpace=wrap;html=1;" parent="1" vertex="1">
          <mxGeometry x="1140" y="465.5" width="120" height="60" as="geometry" />
        </mxCell>
        <mxCell id="aA0_iblHv8PYga31qT8g-133" style="edgeStyle=orthogonalEdgeStyle;rounded=0;orthogonalLoop=1;jettySize=auto;html=1;exitX=0.5;exitY=1;exitDx=0;exitDy=0;" parent="1" source="aA0_iblHv8PYga31qT8g-136" target="aA0_iblHv8PYga31qT8g-132" edge="1">
          <mxGeometry relative="1" as="geometry" />
        </mxCell>
        <mxCell id="aA0_iblHv8PYga31qT8g-94" value="Afegix baner a Gesform (aplicació crea codi)" style="rounded=1;whiteSpace=wrap;html=1;" parent="1" vertex="1">
          <mxGeometry x="1290" y="465.5" width="120" height="60" as="geometry" />
        </mxCell>
        <mxCell id="aA0_iblHv8PYga31qT8g-96" value="&lt;div&gt;&lt;br&gt;&lt;/div&gt;&lt;div&gt;AS&lt;/div&gt;" style="shape=actor;whiteSpace=wrap;html=1;fillColor=#dae8fc;strokeColor=#6c8ebf;gradientColor=#7ea6e0;" parent="1" vertex="1">
          <mxGeometry x="1335" y="421" width="30" height="40" as="geometry" />
        </mxCell>
        <mxCell id="aA0_iblHv8PYga31qT8g-101" value="&lt;div&gt;&lt;br&gt;&lt;/div&gt;&lt;div&gt;MA&lt;/div&gt;" style="shape=actor;whiteSpace=wrap;html=1;fillColor=#e6d0de;strokeColor=#996185;gradientColor=#d5739d;container=0;" parent="1" vertex="1">
          <mxGeometry x="1000" y="150" width="30" height="40" as="geometry" />
        </mxCell>
        <mxCell id="aA0_iblHv8PYga31qT8g-102" value="&lt;font&gt;R&lt;/font&gt;" style="ellipse;whiteSpace=wrap;html=1;aspect=fixed;fillColor=#e51400;fontColor=#ffffff;strokeColor=none;container=1;movable=1;resizable=1;rotatable=1;deletable=1;editable=1;locked=0;connectable=1;" parent="1" vertex="1">
          <mxGeometry x="813" y="140" width="20" height="20" as="geometry" />
        </mxCell>
        <mxCell id="aA0_iblHv8PYga31qT8g-103" value="&lt;font&gt;R&lt;/font&gt;" style="ellipse;whiteSpace=wrap;html=1;aspect=fixed;fillColor=#e51400;fontColor=#ffffff;strokeColor=none;container=1;movable=1;resizable=1;rotatable=1;deletable=1;editable=1;locked=0;connectable=1;" parent="1" vertex="1">
          <mxGeometry x="695" y="140" width="20" height="20" as="geometry" />
        </mxCell>
        <mxCell id="aA0_iblHv8PYga31qT8g-109" style="edgeStyle=orthogonalEdgeStyle;rounded=0;orthogonalLoop=1;jettySize=auto;html=1;entryX=0;entryY=0.5;entryDx=0;entryDy=0;" parent="1" source="aA0_iblHv8PYga31qT8g-104" target="aA0_iblHv8PYga31qT8g-106" edge="1">
          <mxGeometry relative="1" as="geometry" />
        </mxCell>
        <mxCell id="aA0_iblHv8PYga31qT8g-104" value="Fitxes de ponents i factures" style="rounded=1;whiteSpace=wrap;html=1;" parent="1" vertex="1">
          <mxGeometry x="630" y="800" width="120" height="60" as="geometry" />
        </mxCell>
        <mxCell id="aA0_iblHv8PYga31qT8g-110" style="edgeStyle=orthogonalEdgeStyle;rounded=0;orthogonalLoop=1;jettySize=auto;html=1;entryX=0;entryY=0.5;entryDx=0;entryDy=0;" parent="1" source="aA0_iblHv8PYga31qT8g-106" target="aA0_iblHv8PYga31qT8g-107" edge="1">
          <mxGeometry relative="1" as="geometry" />
        </mxCell>
        <mxCell id="aA0_iblHv8PYga31qT8g-106" value="Fitxa econòmica" style="rounded=1;whiteSpace=wrap;html=1;" parent="1" vertex="1">
          <mxGeometry x="783" y="800" width="120" height="60" as="geometry" />
        </mxCell>
        <mxCell id="aA0_iblHv8PYga31qT8g-107" value="Baner" style="rounded=1;whiteSpace=wrap;html=1;" parent="1" vertex="1">
          <mxGeometry x="940" y="800" width="120" height="60" as="geometry" />
        </mxCell>
        <mxCell id="aA0_iblHv8PYga31qT8g-111" style="edgeStyle=orthogonalEdgeStyle;rounded=0;orthogonalLoop=1;jettySize=auto;html=1;entryX=0.174;entryY=-0.022;entryDx=0;entryDy=0;entryPerimeter=0;" parent="1" source="aA0_iblHv8PYga31qT8g-74" target="aA0_iblHv8PYga31qT8g-107" edge="1">
          <mxGeometry relative="1" as="geometry">
            <Array as="points">
              <mxPoint x="742" y="700" />
              <mxPoint x="960" y="700" />
              <mxPoint x="960" y="759" />
            </Array>
          </mxGeometry>
        </mxCell>
        <mxCell id="aA0_iblHv8PYga31qT8g-117" value="Carpeta compartida amb MA" style="rounded=1;whiteSpace=wrap;html=1;fillColor=#b1ddf0;strokeColor=#10739e;" parent="1" vertex="1">
          <mxGeometry x="1135" y="800" width="120" height="60" as="geometry" />
        </mxCell>
        <mxCell id="aA0_iblHv8PYga31qT8g-125" style="edgeStyle=orthogonalEdgeStyle;rounded=0;orthogonalLoop=1;jettySize=auto;html=1;" parent="1" source="aA0_iblHv8PYga31qT8g-119" target="aA0_iblHv8PYga31qT8g-124" edge="1">
          <mxGeometry relative="1" as="geometry">
            <Array as="points">
              <mxPoint x="1195" y="1070" />
            </Array>
          </mxGeometry>
        </mxCell>
        <mxCell id="aA0_iblHv8PYga31qT8g-119" value="" style="sketch=0;outlineConnect=0;fontColor=#232F3E;gradientColor=none;fillColor=#DD344C;strokeColor=none;dashed=0;verticalLabelPosition=bottom;verticalAlign=top;align=center;html=1;fontSize=12;fontStyle=0;aspect=fixed;shape=mxgraph.aws4.email;" parent="1" vertex="1">
          <mxGeometry x="1156" y="910" width="78" height="69" as="geometry" />
        </mxCell>
        <mxCell id="aA0_iblHv8PYga31qT8g-122" value="&lt;div&gt;&lt;br&gt;&lt;/div&gt;&lt;div&gt;MA&lt;/div&gt;" style="shape=actor;whiteSpace=wrap;html=1;fillColor=#e6d0de;strokeColor=#996185;gradientColor=#d5739d;container=0;" parent="1" vertex="1">
          <mxGeometry x="1180" y="870" width="30" height="40" as="geometry" />
        </mxCell>
        <mxCell id="aA0_iblHv8PYga31qT8g-126" style="edgeStyle=orthogonalEdgeStyle;rounded=0;orthogonalLoop=1;jettySize=auto;html=1;entryX=0.5;entryY=1;entryDx=0;entryDy=0;" parent="1" source="aA0_iblHv8PYga31qT8g-124" target="aA0_iblHv8PYga31qT8g-114" edge="1">
          <mxGeometry relative="1" as="geometry">
            <Array as="points">
              <mxPoint x="850" y="1070" />
            </Array>
          </mxGeometry>
        </mxCell>
        <mxCell id="aA0_iblHv8PYga31qT8g-124" value="" style="sketch=0;outlineConnect=0;fontColor=#232F3E;gradientColor=none;fillColor=#DD344C;strokeColor=none;dashed=0;verticalLabelPosition=bottom;verticalAlign=top;align=center;html=1;fontSize=12;fontStyle=0;aspect=fixed;shape=mxgraph.aws4.email;" parent="1" vertex="1">
          <mxGeometry x="1000" y="1050" width="33.91" height="30" as="geometry" />
        </mxCell>
        <mxCell id="aA0_iblHv8PYga31qT8g-127" value="&lt;font&gt;R&lt;/font&gt;" style="ellipse;whiteSpace=wrap;html=1;aspect=fixed;fillColor=#e51400;fontColor=#ffffff;strokeColor=none;container=1;movable=1;resizable=1;rotatable=1;deletable=1;editable=1;locked=0;connectable=1;" parent="1" vertex="1">
          <mxGeometry x="1200" y="860" width="20" height="20" as="geometry" />
        </mxCell>
        <mxCell id="aA0_iblHv8PYga31qT8g-128" value="&lt;div&gt;&lt;br&gt;&lt;/div&gt;&lt;div&gt;AS&lt;/div&gt;" style="shape=actor;whiteSpace=wrap;html=1;fillColor=#dae8fc;strokeColor=#6c8ebf;gradientColor=#7ea6e0;container=0;" parent="1" vertex="1">
          <mxGeometry x="985" y="1000" width="30" height="40" as="geometry" />
        </mxCell>
        <mxCell id="aA0_iblHv8PYga31qT8g-129" value="&lt;div&gt;&lt;br&gt;&lt;/div&gt;&lt;div&gt;CS&lt;/div&gt;" style="shape=actor;whiteSpace=wrap;html=1;fillColor=#ffcd28;strokeColor=#d79b00;gradientColor=#ffa500;container=0;" parent="1" vertex="1">
          <mxGeometry x="1020" y="1000" width="30" height="40" as="geometry" />
        </mxCell>
        <mxCell id="aA0_iblHv8PYga31qT8g-132" value="&lt;div&gt;&lt;br&gt;&lt;/div&gt;&lt;div&gt;GA&lt;/div&gt;" style="shape=actor;whiteSpace=wrap;html=1;fillColor=#FFCEEB;strokeColor=#6c8ebf;gradientColor=#4C82FF;container=0;" parent="1" vertex="1">
          <mxGeometry x="1334.96" y="640" width="30" height="40" as="geometry" />
        </mxCell>
        <mxCell id="aA0_iblHv8PYga31qT8g-135" value="&lt;font&gt;R&lt;/font&gt;" style="ellipse;whiteSpace=wrap;html=1;aspect=fixed;fillColor=#e51400;fontColor=#ffffff;strokeColor=none;container=1;movable=1;resizable=1;rotatable=1;deletable=1;editable=1;locked=0;connectable=1;" parent="1" vertex="1">
          <mxGeometry x="1353" y="629" width="20" height="20" as="geometry" />
        </mxCell>
        <mxCell id="aA0_iblHv8PYga31qT8g-137" value="" style="edgeStyle=orthogonalEdgeStyle;rounded=0;orthogonalLoop=1;jettySize=auto;html=1;exitX=0.5;exitY=1;exitDx=0;exitDy=0;" parent="1" source="aA0_iblHv8PYga31qT8g-94" target="aA0_iblHv8PYga31qT8g-136" edge="1">
          <mxGeometry relative="1" as="geometry">
            <mxPoint x="1350" y="526" as="sourcePoint" />
            <mxPoint x="1350" y="580" as="targetPoint" />
          </mxGeometry>
        </mxCell>
        <mxCell id="aA0_iblHv8PYga31qT8g-136" value="" style="sketch=0;outlineConnect=0;fontColor=#232F3E;gradientColor=none;fillColor=#DD344C;strokeColor=none;dashed=0;verticalLabelPosition=bottom;verticalAlign=top;align=center;html=1;fontSize=12;fontStyle=0;aspect=fixed;shape=mxgraph.aws4.email;" parent="1" vertex="1">
          <mxGeometry x="1333.05" y="560" width="33.91" height="30" as="geometry" />
        </mxCell>
        <mxCell id="aA0_iblHv8PYga31qT8g-152" style="edgeStyle=orthogonalEdgeStyle;rounded=0;orthogonalLoop=1;jettySize=auto;html=1;entryX=0;entryY=0.5;entryDx=0;entryDy=0;" parent="1" source="aA0_iblHv8PYga31qT8g-138" target="aA0_iblHv8PYga31qT8g-139" edge="1">
          <mxGeometry relative="1" as="geometry" />
        </mxCell>
        <mxCell id="aA0_iblHv8PYga31qT8g-138" value="Barem i passar a confirmació" style="rounded=1;whiteSpace=wrap;html=1;fillColor=#fad9d5;strokeColor=#ae4132;" parent="1" vertex="1">
          <mxGeometry x="1400" y="200" width="120" height="60" as="geometry" />
        </mxCell>
        <mxCell id="aA0_iblHv8PYga31qT8g-153" style="edgeStyle=orthogonalEdgeStyle;rounded=0;orthogonalLoop=1;jettySize=auto;html=1;entryX=0;entryY=0.5;entryDx=0;entryDy=0;" parent="1" source="aA0_iblHv8PYga31qT8g-139" target="aA0_iblHv8PYga31qT8g-144" edge="1">
          <mxGeometry relative="1" as="geometry" />
        </mxCell>
        <mxCell id="aA0_iblHv8PYga31qT8g-139" value="Traure llistes" style="rounded=1;whiteSpace=wrap;html=1;" parent="1" vertex="1">
          <mxGeometry x="1543" y="200" width="120" height="60" as="geometry" />
        </mxCell>
        <mxCell id="aA0_iblHv8PYga31qT8g-143" style="edgeStyle=orthogonalEdgeStyle;rounded=0;orthogonalLoop=1;jettySize=auto;html=1;" parent="1" source="aA0_iblHv8PYga31qT8g-141" target="aA0_iblHv8PYga31qT8g-138" edge="1">
          <mxGeometry relative="1" as="geometry" />
        </mxCell>
        <mxCell id="aA0_iblHv8PYga31qT8g-147" style="edgeStyle=orthogonalEdgeStyle;rounded=0;orthogonalLoop=1;jettySize=auto;html=1;entryX=0;entryY=0.5;entryDx=0;entryDy=0;exitX=0.174;exitY=1.006;exitDx=0;exitDy=0;exitPerimeter=0;" parent="1" source="aA0_iblHv8PYga31qT8g-141" target="aA0_iblHv8PYga31qT8g-146" edge="1">
          <mxGeometry relative="1" as="geometry" />
        </mxCell>
        <mxCell id="aA0_iblHv8PYga31qT8g-141" value="Sol·licitar Aules" style="rounded=1;whiteSpace=wrap;html=1;" parent="1" vertex="1">
          <mxGeometry x="1100" y="200" width="120" height="60" as="geometry" />
        </mxCell>
        <mxCell id="aA0_iblHv8PYga31qT8g-154" style="edgeStyle=orthogonalEdgeStyle;rounded=0;orthogonalLoop=1;jettySize=auto;html=1;entryX=0;entryY=0.5;entryDx=0;entryDy=0;" parent="1" source="aA0_iblHv8PYga31qT8g-144" target="aA0_iblHv8PYga31qT8g-145" edge="1">
          <mxGeometry relative="1" as="geometry" />
        </mxCell>
        <mxCell id="aA0_iblHv8PYga31qT8g-144" value="Supervisió del curs" style="rounded=1;whiteSpace=wrap;html=1;" parent="1" vertex="1">
          <mxGeometry x="1690" y="200" width="120" height="60" as="geometry" />
        </mxCell>
        <mxCell id="aA0_iblHv8PYga31qT8g-155" style="edgeStyle=orthogonalEdgeStyle;rounded=0;orthogonalLoop=1;jettySize=auto;html=1;entryX=0;entryY=0.5;entryDx=0;entryDy=0;exitX=0.167;exitY=1.006;exitDx=0;exitDy=0;exitPerimeter=0;" parent="1" source="aA0_iblHv8PYga31qT8g-145" target="aA0_iblHv8PYga31qT8g-150" edge="1">
          <mxGeometry relative="1" as="geometry" />
        </mxCell>
        <mxCell id="aA0_iblHv8PYga31qT8g-157" style="edgeStyle=orthogonalEdgeStyle;rounded=0;orthogonalLoop=1;jettySize=auto;html=1;entryX=0;entryY=0.5;entryDx=0;entryDy=0;" parent="1" source="aA0_iblHv8PYga31qT8g-145" target="aA0_iblHv8PYga31qT8g-151" edge="1">
          <mxGeometry relative="1" as="geometry">
            <Array as="points">
              <mxPoint x="1860" y="470" />
            </Array>
          </mxGeometry>
        </mxCell>
        <mxCell id="aA0_iblHv8PYga31qT8g-166" style="edgeStyle=orthogonalEdgeStyle;rounded=0;orthogonalLoop=1;jettySize=auto;html=1;" parent="1" source="aA0_iblHv8PYga31qT8g-145" target="aA0_iblHv8PYga31qT8g-159" edge="1">
          <mxGeometry relative="1" as="geometry" />
        </mxCell>
        <mxCell id="aA0_iblHv8PYga31qT8g-145" value="Finalització" style="rounded=1;whiteSpace=wrap;html=1;fillColor=#fad9d5;strokeColor=#ae4132;" parent="1" vertex="1">
          <mxGeometry x="1840" y="200" width="120" height="60" as="geometry" />
        </mxCell>
        <mxCell id="aA0_iblHv8PYga31qT8g-146" value="Afegir formulari de valoració del curs" style="rounded=1;whiteSpace=wrap;html=1;" parent="1" vertex="1">
          <mxGeometry x="1170" y="310" width="120" height="60" as="geometry" />
        </mxCell>
        <mxCell id="aA0_iblHv8PYga31qT8g-148" value="&lt;div&gt;&lt;br&gt;&lt;/div&gt;&lt;div&gt;AS&lt;/div&gt;" style="shape=actor;whiteSpace=wrap;html=1;fillColor=#dae8fc;strokeColor=#6c8ebf;gradientColor=#7ea6e0;" parent="1" vertex="1">
          <mxGeometry x="1145" y="150" width="30" height="40" as="geometry" />
        </mxCell>
        <mxCell id="aA0_iblHv8PYga31qT8g-149" value="&lt;div&gt;&lt;br&gt;&lt;/div&gt;&lt;div&gt;AS&lt;/div&gt;" style="shape=actor;whiteSpace=wrap;html=1;fillColor=#dae8fc;strokeColor=#6c8ebf;gradientColor=#7ea6e0;" parent="1" vertex="1">
          <mxGeometry x="1215" y="264.5" width="30" height="40" as="geometry" />
        </mxCell>
        <mxCell id="aA0_iblHv8PYga31qT8g-150" value="Posar APTES / NO APTES" style="rounded=1;whiteSpace=wrap;html=1;" parent="1" vertex="1">
          <mxGeometry x="1880" y="320" width="120" height="60" as="geometry" />
        </mxCell>
        <mxCell id="aA0_iblHv8PYga31qT8g-158" style="edgeStyle=orthogonalEdgeStyle;rounded=0;orthogonalLoop=1;jettySize=auto;html=1;entryX=1;entryY=0.5;entryDx=0;entryDy=0;" parent="1" source="aA0_iblHv8PYga31qT8g-151" target="aA0_iblHv8PYga31qT8g-117" edge="1">
          <mxGeometry relative="1" as="geometry">
            <Array as="points">
              <mxPoint x="1940" y="830" />
            </Array>
          </mxGeometry>
        </mxCell>
        <mxCell id="aA0_iblHv8PYga31qT8g-151" value="Imprimir ACTA i pasar a certificació" style="rounded=1;whiteSpace=wrap;html=1;" parent="1" vertex="1">
          <mxGeometry x="1880" y="440" width="120" height="60" as="geometry" />
        </mxCell>
        <mxCell id="aA0_iblHv8PYga31qT8g-165" style="edgeStyle=orthogonalEdgeStyle;rounded=0;orthogonalLoop=1;jettySize=auto;html=1;" parent="1" source="aA0_iblHv8PYga31qT8g-159" target="aA0_iblHv8PYga31qT8g-161" edge="1">
          <mxGeometry relative="1" as="geometry" />
        </mxCell>
        <mxCell id="aA0_iblHv8PYga31qT8g-159" value="" style="sketch=0;outlineConnect=0;fontColor=#232F3E;gradientColor=none;fillColor=#DD344C;strokeColor=none;dashed=0;verticalLabelPosition=bottom;verticalAlign=top;align=center;html=1;fontSize=12;fontStyle=0;aspect=fixed;shape=mxgraph.aws4.email;" parent="1" vertex="1">
          <mxGeometry x="1990" y="195" width="78" height="69" as="geometry" />
        </mxCell>
        <mxCell id="aA0_iblHv8PYga31qT8g-160" value="&lt;div&gt;&lt;br&gt;&lt;/div&gt;&lt;div&gt;MA&lt;/div&gt;" style="shape=actor;whiteSpace=wrap;html=1;fillColor=#e6d0de;strokeColor=#996185;gradientColor=#d5739d;container=0;" parent="1" vertex="1">
          <mxGeometry x="2034" y="150" width="30" height="40" as="geometry" />
        </mxCell>
        <mxCell id="aA0_iblHv8PYga31qT8g-161" value="Genera certificats i envia a firma" style="rounded=1;whiteSpace=wrap;html=1;fillColor=#fad9d5;strokeColor=#ae4132;" parent="1" vertex="1">
          <mxGeometry x="2110" y="200" width="120" height="60" as="geometry" />
        </mxCell>
        <mxCell id="aA0_iblHv8PYga31qT8g-162" value="&lt;div&gt;&lt;br&gt;&lt;/div&gt;&lt;div&gt;MA&lt;/div&gt;" style="shape=actor;whiteSpace=wrap;html=1;fillColor=#e6d0de;strokeColor=#996185;gradientColor=#d5739d;container=0;" parent="1" vertex="1">
          <mxGeometry x="2180" y="151" width="30" height="40" as="geometry" />
        </mxCell>
        <mxCell id="aA0_iblHv8PYga31qT8g-163" value="&lt;div&gt;&lt;br&gt;&lt;/div&gt;&lt;div&gt;CS&lt;/div&gt;" style="shape=actor;whiteSpace=wrap;html=1;fillColor=#ffcd28;strokeColor=#d79b00;gradientColor=#ffa500;" parent="1" vertex="1">
          <mxGeometry x="2000" y="150" width="30" height="40" as="geometry" />
        </mxCell>
        <mxCell id="aA0_iblHv8PYga31qT8g-167" value="&lt;div&gt;&lt;br&gt;&lt;/div&gt;&lt;div&gt;AS&lt;/div&gt;" style="shape=actor;whiteSpace=wrap;html=1;fillColor=#dae8fc;strokeColor=#6c8ebf;gradientColor=#7ea6e0;" parent="1" vertex="1">
          <mxGeometry x="1422.5" y="151" width="30" height="40" as="geometry" />
        </mxCell>
        <mxCell id="aA0_iblHv8PYga31qT8g-168" value="&lt;div&gt;&lt;br&gt;&lt;/div&gt;&lt;div&gt;AS&lt;/div&gt;" style="shape=actor;whiteSpace=wrap;html=1;fillColor=#dae8fc;strokeColor=#6c8ebf;gradientColor=#7ea6e0;" parent="1" vertex="1">
          <mxGeometry x="1462.5" y="151" width="30" height="40" as="geometry" />
        </mxCell>
        <mxCell id="aA0_iblHv8PYga31qT8g-169" value="&lt;font&gt;R&lt;/font&gt;" style="ellipse;whiteSpace=wrap;html=1;aspect=fixed;fillColor=#e51400;fontColor=#ffffff;strokeColor=none;container=1;movable=1;resizable=1;rotatable=1;deletable=1;editable=1;locked=0;connectable=1;" parent="1" vertex="1">
          <mxGeometry x="1477.5" y="140" width="20" height="20" as="geometry" />
        </mxCell>
        <mxCell id="aA0_iblHv8PYga31qT8g-170" value="&lt;div&gt;&lt;br&gt;&lt;/div&gt;&lt;div&gt;AS&lt;/div&gt;" style="shape=actor;whiteSpace=wrap;html=1;fillColor=#dae8fc;strokeColor=#6c8ebf;gradientColor=#7ea6e0;" parent="1" vertex="1">
          <mxGeometry x="1565.5" y="151" width="30" height="40" as="geometry" />
        </mxCell>
        <mxCell id="aA0_iblHv8PYga31qT8g-171" value="&lt;div&gt;&lt;br&gt;&lt;/div&gt;&lt;div&gt;AS&lt;/div&gt;" style="shape=actor;whiteSpace=wrap;html=1;fillColor=#dae8fc;strokeColor=#6c8ebf;gradientColor=#7ea6e0;" parent="1" vertex="1">
          <mxGeometry x="1605.5" y="151" width="30" height="40" as="geometry" />
        </mxCell>
        <mxCell id="aA0_iblHv8PYga31qT8g-172" value="&lt;font&gt;R&lt;/font&gt;" style="ellipse;whiteSpace=wrap;html=1;aspect=fixed;fillColor=#e51400;fontColor=#ffffff;strokeColor=none;container=1;movable=1;resizable=1;rotatable=1;deletable=1;editable=1;locked=0;connectable=1;" parent="1" vertex="1">
          <mxGeometry x="1620.5" y="140" width="20" height="20" as="geometry" />
        </mxCell>
        <mxCell id="aA0_iblHv8PYga31qT8g-173" value="&lt;div&gt;&lt;br&gt;&lt;/div&gt;&lt;div&gt;AS&lt;/div&gt;" style="shape=actor;whiteSpace=wrap;html=1;fillColor=#dae8fc;strokeColor=#6c8ebf;gradientColor=#7ea6e0;" parent="1" vertex="1">
          <mxGeometry x="1712.5" y="151" width="30" height="40" as="geometry" />
        </mxCell>
        <mxCell id="aA0_iblHv8PYga31qT8g-174" value="&lt;div&gt;&lt;br&gt;&lt;/div&gt;&lt;div&gt;AS&lt;/div&gt;" style="shape=actor;whiteSpace=wrap;html=1;fillColor=#dae8fc;strokeColor=#6c8ebf;gradientColor=#7ea6e0;" parent="1" vertex="1">
          <mxGeometry x="1752.5" y="151" width="30" height="40" as="geometry" />
        </mxCell>
        <mxCell id="aA0_iblHv8PYga31qT8g-175" value="&lt;font&gt;R&lt;/font&gt;" style="ellipse;whiteSpace=wrap;html=1;aspect=fixed;fillColor=#e51400;fontColor=#ffffff;strokeColor=none;container=1;movable=1;resizable=1;rotatable=1;deletable=1;editable=1;locked=0;connectable=1;" parent="1" vertex="1">
          <mxGeometry x="1767.5" y="140" width="20" height="20" as="geometry" />
        </mxCell>
        <mxCell id="aA0_iblHv8PYga31qT8g-179" value="&lt;div&gt;&lt;br&gt;&lt;/div&gt;&lt;div&gt;AS&lt;/div&gt;" style="shape=actor;whiteSpace=wrap;html=1;fillColor=#dae8fc;strokeColor=#6c8ebf;gradientColor=#7ea6e0;" parent="1" vertex="1">
          <mxGeometry x="1902.5" y="275.5" width="30" height="40" as="geometry" />
        </mxCell>
        <mxCell id="aA0_iblHv8PYga31qT8g-180" value="&lt;div&gt;&lt;br&gt;&lt;/div&gt;&lt;div&gt;AS&lt;/div&gt;" style="shape=actor;whiteSpace=wrap;html=1;fillColor=#dae8fc;strokeColor=#6c8ebf;gradientColor=#7ea6e0;" parent="1" vertex="1">
          <mxGeometry x="1942.5" y="275.5" width="30" height="40" as="geometry" />
        </mxCell>
        <mxCell id="aA0_iblHv8PYga31qT8g-181" value="&lt;font&gt;R&lt;/font&gt;" style="ellipse;whiteSpace=wrap;html=1;aspect=fixed;fillColor=#e51400;fontColor=#ffffff;strokeColor=none;container=1;movable=1;resizable=1;rotatable=1;deletable=1;editable=1;locked=0;connectable=1;" parent="1" vertex="1">
          <mxGeometry x="1957.5" y="264.5" width="20" height="20" as="geometry" />
        </mxCell>
        <mxCell id="aA0_iblHv8PYga31qT8g-182" value="&lt;div&gt;&lt;br&gt;&lt;/div&gt;&lt;div&gt;AS&lt;/div&gt;" style="shape=actor;whiteSpace=wrap;html=1;fillColor=#dae8fc;strokeColor=#6c8ebf;gradientColor=#7ea6e0;" parent="1" vertex="1">
          <mxGeometry x="1902.5" y="395" width="30" height="40" as="geometry" />
        </mxCell>
        <mxCell id="aA0_iblHv8PYga31qT8g-183" value="&lt;div&gt;&lt;br&gt;&lt;/div&gt;&lt;div&gt;AS&lt;/div&gt;" style="shape=actor;whiteSpace=wrap;html=1;fillColor=#dae8fc;strokeColor=#6c8ebf;gradientColor=#7ea6e0;" parent="1" vertex="1">
          <mxGeometry x="1942.5" y="395" width="30" height="40" as="geometry" />
        </mxCell>
        <mxCell id="aA0_iblHv8PYga31qT8g-184" value="&lt;font&gt;R&lt;/font&gt;" style="ellipse;whiteSpace=wrap;html=1;aspect=fixed;fillColor=#e51400;fontColor=#ffffff;strokeColor=none;container=1;movable=1;resizable=1;rotatable=1;deletable=1;editable=1;locked=0;connectable=1;" parent="1" vertex="1">
          <mxGeometry x="1957.5" y="384" width="20" height="20" as="geometry" />
        </mxCell>
        <mxCell id="aA0_iblHv8PYga31qT8g-185" value="&lt;div&gt;&lt;br&gt;&lt;/div&gt;&lt;div&gt;CS&lt;/div&gt;" style="shape=actor;whiteSpace=wrap;html=1;fillColor=#ffcd28;strokeColor=#d79b00;gradientColor=#ffa500;" parent="1" vertex="1">
          <mxGeometry x="2120" y="151" width="30" height="40" as="geometry" />
        </mxCell>
        <mxCell id="aA0_iblHv8PYga31qT8g-186" value="&lt;div&gt;&lt;br&gt;&lt;/div&gt;&lt;div&gt;CS&lt;/div&gt;" style="shape=actor;whiteSpace=wrap;html=1;fillColor=#ffcd28;strokeColor=#d79b00;gradientColor=#ffa500;" parent="1" vertex="1">
          <mxGeometry x="940" y="150" width="30" height="40" as="geometry" />
        </mxCell>
        <mxCell id="aA0_iblHv8PYga31qT8g-187" value="o" style="text;html=1;align=center;verticalAlign=middle;whiteSpace=wrap;rounded=0;" parent="1" vertex="1">
          <mxGeometry x="955" y="165" width="60" height="30" as="geometry" />
        </mxCell>
        <mxCell id="aA0_iblHv8PYga31qT8g-188" value="o" style="text;html=1;align=center;verticalAlign=middle;whiteSpace=wrap;rounded=0;" parent="1" vertex="1">
          <mxGeometry x="2136" y="165" width="60" height="30" as="geometry" />
        </mxCell>
        <mxCell id="aA0_iblHv8PYga31qT8g-189" value="" style="shape=image;verticalLabelPosition=bottom;labelBackgroundColor=default;verticalAlign=top;aspect=fixed;imageAspect=0;image=data:image/png,iVBORw0KGgoAAAANSUhEUgAAAeEAAAFqCAYAAAAtPeIVAAABhGlDQ1BJQ0MgcHJvZmlsZQAAKJF9kT1Iw0AcxV9TpSotDnYQcchQnayDijiWKhbBQmkrtOpgcukXNGlIUlwcBdeCgx+LVQcXZ10dXAVB8APE2cFJ0UVK/F9SaBHjwXE/3t173L0DhGaVqWZPDFA1y0gn4mIuvyoGXhGEgBAm0S8xU09mFrPwHF/38PH1LsqzvM/9OUJKwWSATySOMd2wiDeIZzctnfM+cZiVJYX4nHjCoAsSP3JddvmNc8lhgWeGjWx6njhMLJa6WO5iVjZU4hniiKJqlC/kXFY4b3FWq3XWvid/YbCgrWS4TnMUCSwhiRREyKijgiosRGnVSDGRpv24h3/E8afIJZOrAkaOBdSgQnL84H/wu1uzOD3lJgXjQO+LbX+MAYFdoNWw7e9j226dAP5n4Err+GtNYO6T9EZHixwBg9vAxXVHk/eAyx1g+EmXDMmR/DSFYhF4P6NvygNDt8DAmttbex+nD0CWulq+AQ4OgfESZa97vLuvu7d/z7T7+wGKwnKwGN4a5QAAAAZiS0dEAAAAAAAA+UO7fwAAAAlwSFlzAAAuIwAALiMBeKU/dgAAAAd0SU1FB+gMAg0uHqDqsdkAAAAZdEVYdENvbW1lbnQAQ3JlYXRlZCB3aXRoIEdJTVBXgQ4XAAAgAElEQVR42uy9WZAk13nf+zvnZGZtvffsg2UwI+wrMSAJgIQpmwOJlkxTsi7oeyXKIUs0eCnL4WAoZDLsUITtcITI0MN98ItAK0JhhSmLoG5QEi9XQJQAklhnxQAYzNaz9/RevdSW2/nuQ1ZmV8+CZaYHwGDOLyIju7qrqyqXOv/zfedbwOFwOBwOh8PhcDgcDofD4XA4HA6Hw+FwOBwOh8PhcDgcDofD4XA4HA6Hw+FwOBwOh8PhcDgcDofD4XA4HA6Hw+FwOBwOh8PhcDgcDofD4XA4HA6Hw+FwOBwOh8PhcDgcDofD4XA4HA6Hw+FwOByODyjqSr/Bnj27ZGFhgYGBAeI4xhiDiLzFf2l3ZT7gpGlabFprSqUS1WqVUqnE0NDQ19asWfMVd5YcDocT4cvgpz99Vv7bf/tv7N27l3K5jIjgeR5JkjgRvobJJ2EigrUWAM/z8H0fz/PYunUrN9xwA7fffjtbt25l8+bNbNiwgU2bNil39hwOhxPht8mLLz4vv/d7v8drr71GX18fSik8z3OWsBNhtNYYYwCw1pKmaSHIaZoWzzXGMDo6ym233cZ9993HTTfdxIMPPsjIyMgXRkdHv+7OpsPhcCJ8Efbt2yNf/OIXGRsbo1QqEcdxMQA7Eb62RVgptcIizidoWmvSNEUphdYaay1RFJEkSXHvbN26lRtvvJH777+fRx55hI997GPOQnY4HE6Ez+Xll1+Uz3/+85w+fZpSqYQxZsXg60T42hXh3p9zcfU8D2MMaZqSJElhGefWci7MrVYLrTW+77N27VruuusuHn74YT7xiU9wzz33OEF2OBxOhAFeeWWv/M7v/A5nzpzBGFOsBzsRdiKstUZrXawLW2sLizi3gHPrWClVuKuVUoRhSKlUQkTodDpEUUStVmPbtm3cfPPNfP7zn+e6665jy5YtTpAdDsf7Gu9Kvnjuds4HT6VU8bPD0TsZy++P/N7ofWytLSxjrTUDAwMkSUIcx5TLZfr7+0mShCNHjjA2NsZ3v/tdHn30Ub797W/Lgw8+yMaNG90N53A4rj1LePfunfL4449z4sQJSqVSMYg6HFd0Zul5zM7OUiqVuOeee/j1X/91fvVXf/Vbo6NrP+vOjsPhcCLscFxBjDGEYYgxhjiO0Vpz99138xu/8Rv81m/9trOKHe8pc6nsSFMe70TpY2EY0u5E2bJKkuXNh+0O6k1W7PJ8+kqlQrlcJgg8fJ+6MXxdG54eUeppd5adCDsRdrynlnCr1SIIAnzfp91u0+l0GB0d5dZbb+U//If/wB133MG6dRtW3P8zM1M716xZ94A7g45LFliRHfNx8lSUWjpxJq6NRpO5ep3p6VnmlxY5OzGTpeVZIUkSojRbbkm7sRFeN3XvooN2z5KN1pogCKhWq9RqNWpBwKa1owz11VgzMsrgUD+1cgXfM5Q8D9/wrbVaOY+QE2GH48rRG/iVV+XqXVeu1Wp86Utf4td+7dfYsmWrs4wdb5t6lGwdDryxGZGvpvB4CsOtCOrzi0xPzzLbWGRyYY6ZxXmmp2eYm58niiIsWXxDKgprAa1ANGiFUhq5QJyMBuwF9pKmoDVGKUQplAgWMErhKQWtJoEInjYEQcBAXz/r146yacNGRoYGGervY8O6NQz0VfEUlD22DSs1BjDRjmRDJXDfCSfCDsel02q16OvrK9zSaZoSBEERnZ8kCUtLSzzwwAN88Ytf5F/+y//LDTqOt8V4LNKMLTOLDU6fneL0xAQT03UmZ2epLyyy1G5AySPWglIaz/fxfR+tvSz1zgpRkgAapTQohVIG0XlQYp6WJxcVYZskKGPwjUGUQtKUxFokTTEWhrwAIxasgE2y941i0iRBkoTAN2y54To2rt/A8OAQN2y+ji03bmakBh7sEptuXW+8EXe1nQg7HJdErVYjDENarRae5+F52QAoIkRRxNq1a5mYmKDT6bBhwwY+85nP8O/+3b9j27abnRg7zmMqSXbO1Be3Hxs/y8mzUxw5cYqFdsjsfJPFTodYNDoI8IMy2vdIJcGSZYFYBUpprAiSQioWZfyu4OrCIlZKIQrAksThm34e0+OuzvPsC9e0NqTtNjoVtBKMMfjaoDSoNEsH9I0iDjs0l5ZI44S+ao31G9Zy71138+H77uDG0TKbXQqLE2GH41KJoqhrfWSNIaIootlsUi6XKZfLzMzM0N/fT7lcZnp6GqUUjzzyCJ///Of5zGd+1Q0+1zDTUfPJtUHts2fjSCYmpzkzOcP45CQnz05xcmKCmflFrAkQL8CU+iDwEeORWojSrPxqxRi0ZAKZSLckqwhGeSij8f0StpuelyKILIspgFKAsm96f+e11vOc+nzZRUSolsrF61mbZBYx4KFQSojCEE9lg385KKG1ptFYwteG6zeO8Jl/8jB3bbuBG33PfRecCDsc75y8/GWr1VpR8MPzPJrNJv39/TSbzUKk4zimXq9z880386/+1b/iS1/6fTf4XGPMiexYijtPNdoxZ8Ynef3QUd44eJj64iKJQCyQKo0OSljtYZVHqhQJ2SZoMB4+GttqUTaZG1opRWzzuuhZnEIYRSjVtX71cj68wqC0YG3KhR3R2d4YH5EUayFNY6wFrcHzArRnWGq38ILs/TPLOs66lQl42mBtQikISKMwE+1KhTiOabUaVLXQT4d/+c9/mUe237NrnVIuUNGJsMPx7vJrv/YY//E//sf6+vXr3brYB5y6yNbFlKNHT51l32uvc+TYMc7OLiIYRIFVgGhSrRHIfkcWSJWq7HdWgahsXDMWSinoHkM2/1svcsGqgAqyV8wsYdHveJ9qSDSk6txB3qJ70p6UZNa2Elb83pMYHTbYMFDj4fs/xG/v+LibkF5po8GdAodjJd/85jc5dOjQ8Ouvvy533HGHG4Q+gEyn8uTEfPzY3+8Z49XDhzl6+jRzC/OEqeCV+0h7hDPXKKt6hXX550zEkmz9F12sAy8/t6vIvaLZDcCyF7y77LI7+p3uVwivPk98CwHuOY7e/0zRKC9gZrHFoeOn2T2+KPdvGnDfASfCDse7x+LiIvv37+eLX/wiP/vZz8R1afrgMBGLnJxa4OmXXmPvgcMcOn6S+VYH5fuUqv34tRKdREiVKuRXS6/I2a6I2e7feqKZJZOxVBlSc7E1XbtC2M83hu2K573zfSbARrpvcoG1ZXXu7KLXQlcK5ZdZbLU4cfose157lVkrj49q5dqGOhF2ON4dNm7cyOLiInv27OFLX/oSP/nJT+SRRx5xQnyVUQ87W4dL5TGAsyLyxuGT/OX3n+bA0eNMLzSoNzrooMzguo14QZlmq8NMfZFK/0CPO9d2rV6NwqJzK1ayx7m9mT1JsGQR0Re1cM8RTFGZZbpae7oCXEwU5J2dM4vGGg+v1E8rTTh45Dj1D3/4CcCJsBNhh+PdodFoUKvV6Ovr4+DBg/zu7/4uP/jBD+RTn/qUE+KriOFSeexYJ5FDx0/wl9//MYfGxjh5dopE+Si/TDA0SJJCfamBok2pVGLt2rU0wja9zuhc3JZ/1yvI51iYCqzSK9zV54twz29U12l83l6ju67td7JXYpet94t0o7NvcRdHVhFUa6iww/jULONT0+5mciLscLx7GGOKNovVapVDhw7xe7/3e3znO9+RT3/6006IrwKOxSKnJmb57rPPs2v/fk5OT4FXwqvWiEXj+SW052FihSVBWYVWCm0tWgTb48bNpSwXY7VC4M5ZO+4GOqW9AVPF/2tEWZQsRzubrmiaworVPY/1O95r4U3qTuvsuFasTZ9vkSeJRXsGLCy1m5ydnHI3lBNhh+Pdo1QqMTk5yfDwMJVKhXXr1rGwsMAf/MEf8Nd//dfyK7/yK06I38e8Vk/k+/+wm5+9/CKT9Vl0pUxlzQZSBUthiF8u0wgj0naHQBkqQQUfjzSKWWwuEFRL3ZSiC4itLD9euQpLIW5KBC893xJddhvrbiC0vnB+iugLv/fb3F8s/8SiuzOFLKqbc4PPFAiKVGeVvRBL4Bnm5uvupnIi7HC8e0RRxPr164miiEajUdSgXlhY4Pd///d57rnn5OGHH3ZC/D7jxNSC7D04xv/z9T9jutUhtAl+/xARsNDoIL6HCcok1mK8gJKn0Kl0i2rEaC1UKiVsloTUfdUUitVfCvHMIp51j4Ita7GS/C92hQRSiGCP0PZESq+GENtutPOKz9fzGfKqXPR8PrvieYLRGrEp2jOUgwqdTuRuLifCK/F9P6uH2m3sXqlU6HQ6DAwM0Gw2Mca/qi9KHGdt+KrVKktLS1npOd8niqKiPN3lEIYhg4ODNBoNgiAgTdPCBdvpdPC84IoeX15mL6+M11t6L6+fa60tHucVgTzPIwgCoujKDgpKCVHUASAIsq+I55W7567Nv/23X2TXrpdl+/YPOyF+HzCZyNyuvSeH/8dfPc3BU6fplAMiP0AIutcTAq+rf3HehUhlbltRWAQBUp1HQlMIWi5M0hvVrPL0opXfQ+m6hVWSZCFaPd2OlFLddxHSNOnRWrXieQA2FZTKair0fkdSsUVzErKPXlTZKmRW0T0I4UJRWRaK71b+upCueKxECAx0lhqEnmHjxo3uJnMifK5IxcVN6/t+UR84LwZytZc9LZVKtNvtoh2fiBSdgGq12mWLUBAEdDodRIRyuUy73SaKokLsRa7wTde9Vr01b5VShRinaVpcX2NM8fw0Tel0Ou95wZd6vc6///f/ngMHXpPbb7/TCfF7xJzIjgNHp5/6i7/9CQfHTlNfbJKU+ol0SnLuVZFlz6+5UGpObveuuLUUonpUOZexrpW6nJ6UW6JZ+pLyFFpMIWpWJBN6yQpxeH72nc7WkJf/rmzeAcwD1a0zTc9EVeWlPGTZjs2tb6WWjWyxRZ7ySrElc5V3PTtA0TZx+bEiiSOCUhlRFs94VKtld7M5ET7fksqL8ltribtl2VqtVvZ10Fe3lz2fXFhrqVQqhRjn1v9qeBI6nU7x5UuShCAIii9sHKdX9PiMMRhjlmf+XUHOt94C9fnxvp8mVu12mzfeeIM//MM/ZHZ2+snR0bWuP+u7zOH5pjz1/B727D/EkdNnWeqk6KCM9ssXiUx+m2MLWdUp23XnZkKrV1SW0oUILwdB5b+zClIjJJoVXh6rQCS3dHut5GxdWGmF6Sqqkuz9bI8lqxRolRV8jrvfCXsBAdYCRhRGqQt6m0ToLq9Id0Kiu+NAV6S7HgKTRnjAcH+V0cF+d8M5EV5JFEXLLpluZxzf9wnDsHtTJlf1RWm1GlS69VwbjQbNZpOhoSGMMbTbWSrF5XoS8lrKYRiSJAkDAwO0Wi1arRa+X7rCx5d1N8rFNg+CyS3xMGwXIp0VobeFxWyMOc8F924TBJmb88c//jH/5b/8l8fcMPLusvvsjPx///BTXty7j0Yk+NU+gopHkoL1dLf28qWTrQjnQqhXrJgui+7y2m8umjmhFWLdnTgqhdIaU9i0BnIrGIqUImUzy1YJaOWhsq4OPU0duq+lFJ7pCqviPFe2RmE7gkad587OJrvZe/kqG/olyV5/+XGMb6BZn6OmYNsN17FuZNjddE6Ez7fkei3hNE258cYbC4v4Sq9pXmnCsE21WiVJksISXlhYKKzE3HV0qSRJUohwvh4cRRHtdpvNmzezsLB0xUUsbzUYhmGxjJA3XsjdX7m72vS4zHKr/b2+/9rtNr7v85d/+Zf8j//xhPybf/MF55a+wpxqi+w7eIQ/+6u/5cxsncUwJejrIw5KtKIIqxRlXyHhZXpqRK9YTu21eJeDrgrTuYgshsydnaq8dGVXGJV0w7K668q2t5SkLV47W48FzzNZS4juGrDtWqhaaRSgPdPTJckuj4MIygqeLmFRmeAW3sMs8lm6lng+kY+6hkv+OA1b1EqaJOmw5YYbeOCeuxjpL33B3X1OhFfOVLsuaIByuczGjRv53d/9XbZt29ZtFHF1XxRjVGGh+r7PsWPH+O///b9z5MgRfN9f4a69FPJAtiRJsh6kQUCz2aSvr4/f+q3f4pZbbruix9doNIrWa3Ecs7CwwPHjxzlw4AAnT55kaWmBVqtFHMcEQUClUimOOw/Key/JJwKdToe+vj7+6I/+iL/7u6fkk5981AnxFeL1qab84JnneW7vPk7OzOD3DxIM9dOxKVHYRmkP5RvaSYRR+k1yZd8cJRrP6rewlPN6zb01pDOZTVX2/S2U2qYoK5nFawWFJTAeWgE2S2eSNFkOTgR07hnqWsz5t73oT2xNIa4KwQPEdF3OWpFKiihBRCOSZtW9tJD1L+4u/ejs9+fuUZbm3AzrBmtsv+s27r11y9dGlStZ6UT4HMrlMkmSkKYpURQhItx9993cf/8DH8hBcHz8tPzpn/5pEUiVT0Au15oTkSK6PI5jqtUqv/zLv8ytt97+npzHsbExWVhY4MSJYxw8eJDdu3dz6NAhxsfHWVxcpFQqMTAw8J6LsIjQbrcZGhpifn4e3/f5r//1vzI+flo2bbrOCfEq89zBs/JXP3iafYeOMtcJqQ6vw5YCOqmlEUUY41GrVhAROs0WRl+6p0QJ+Ba0VYXAiuqu6SrbTf+hSPVJiucsp/1oFIHNLFyRLN9Wi0V3RThpNkAJhmyd1yi6a7iZUPpagdJo1Ir1bZHM2k2iZVNfs9x7CTIrXIISsSRYIRNhNKob8KU1aK2I0hag0X72n/njki9Ureahe+/mvjtuY41SX3F3oBPh84iiqBiIrbVEUfSeuyivJHEcs7S0tCK14HJYWlpicHAQESEMwyINqNFovKfHuXXr1hUHNzMztXN8fHz7Cy+8wA9/+EP27NlDvV6nVqu9p58zc5lX6XQ6VCoVFhYWGBsb4z/9p//kRpRVpJ7I1uf3vnH0ye//gMPjE9hSjf71I7RiSxQJojWVWh8aRRLGgKVc8pF4Nd5dzrN/M5W2RWvA3nSl/DlGBJMkGMnEGCweYJR0GytYBtYMUfYMtWqZwb4+RgYG6e+vUatWM4+PV8oaKShTCLNI2nUxp8zPLxLHIc12SKO5yNJik6XGAu1WSDtNWSBCEBKxWJtkYqvBUwGZvhvCsA1ogpIP6OJxyYePf3Q7n/mnv8B1JnATSifCFx8E8721Fs/zrnju6HtJu92mr68PoBDNy6FarRLHcWFZdzodarVa1nA8DN83x71mzboVDcWffvpH8tRTT/Hd736XEydOEAQBtVqNTqeD7/uUSiXCMKRUKtHpdOh0OpTLZarVKlEUFVb/5d4ruQchDEOq1Spbtmzh5MmTPPPMM/zpn35dPv/5x93gdZmcikT+5pnn+OEzzzLXTgn6h4iUR7MdovxSUSLSJoKSFC2C7qYAvdWwlufa5uNHb6CfJSX1NEk3XxYsmCz9SJIUm8bd7AUvS6eLY6y1JGnmkQu0Rnc6DFRLjAwOMTjYz8jgEGtHRtiwfi2jgwNs3jiKD3UPvnIxV29dZGvPdGBr799SeFzBmIIxga0xfDmKhSiK6VjL3rExFjtt5uuLzM5NMztTZ3FpnlajQZiEVMo1KlpANNFCnShMGBzq58477ua+O27hodtvppzGX3N3oRNhh2MFO3b8ggLYv3+f/PVf/zXf+MY3mJycLNK3RKQo4FKtVqnVarRaLebm5iiXy6vmyg/DrJhKf38/SZKwtLREpVJhcXGRP//zP2fXrl2yfft2J8Rvk+ml5pNr+2ufzcVnohkf/cZ3vseLe/aCX6ZvXT/zzZCOWMp9/UTJ8nKEsVner+kJQkrVmzcPyidleYBiXidcREAr2kTgga8NiMXGETZJ8FCUjMb3NMYmxFGIDiN8o6lUKowMDTEyUOPWLdezdnCQdevXMDo0TCVQdR8+O6LU02/3nAwrNdbzcOycP5/7Ol8BmLN2R4L66i/ce8fWFIYFaAnM1+eZmJxkanKShcVFTp86hQCVcpmh4WFGR0ZYs3Yt123ezOahAbSku9Z4JeeGdiLscFyYu+++VwEcPXpY/uiP/ojvf//7QJb61NfXV6RyZdW/PIaGhooiILqnUMGlEgQB1toiLa7RaDAwMICIsHfvXv7sz/7MXaR3QKqDIs3rteOTR7/33HPsP3SEVgq1vgqNMCZWilKlQpQm5HJrZDlyWXWFOC9okb7JFCgP+lNKUSqVioyDNE1JjCUOICYlUJayZzCBQXdiiGJsIoRLLUZrNa4b7Gfd0AjXr9/AdRs3cf2mjdy6vqpmYvnqGv/dX0sd0fpp4IG3nPS0oidbYecxZYVyrbprXdl/wN2FToQdjnfMtm03K4Dvfvc78p//83/myJEjhatZKVVYx3kgX55WdLkVtyqVCo1GgziOi7zlNE0pl8t4nsff/u3f8r/+1/+Sz33uc84afhPmwniH9b0da7RSZ1KRl/e8wXee/nteOnSYoH+AgXVraMcJzbBFUK3h+T5hs43nZcOWlqyqs+5uGW99bfMlrPw+yAVYRJDU4nuGNI1Jk5AoVRibYqKYMoaBwHD7zXdx08aN3HrDjdy4YQMb+8yK6/xeCPA7YW01cMVlnAg7HKvHxz/+8W3f/va3jz7xxBP8yZ/8CYuLi6xZs4Y1a9bQaDSYnp6mVqvR399Ps9lcldrbuchrrYt19TRNGRgYYHp6lj//8z/n9OnTct11Llr64i4FDw1PH09Ent/zBj994WUOnT7DyPrrWWyHnJ2qUypXGRldSxRFNBsNyuVydt7F9oQF2xX9eN+qX67v+0UwYm4R+35Wb16nHdJmk0Ff0EqRhm10krBpdA0P3H039996O9evXUO/x7ZzXMYOhxNhx7XJ4ODwGF0f5de//ifyjW98g127drG0tMT69etJ07RwPa5GAF+73aZSqaxoIGKMIUkSoiiiUqmwa9cu/vf//t/u4lyEeipbh5V6+pSI/OTFvfzspT3MzC+gSzXakaBMBaVT0lRlfXjTrJqTpwJEkuVqzmq5J1Dugn6rFOHeQhe9a8JxHGPDNmv7fOKlBUq+xy1bt/HR7R/mztu2MgDf0vB0GqWPDyvPCbDDibDj2mVmZmrnudHTAI8//n+rv/mbb8sTTzzBM888Q7PZpL+/n1arVeT02sus5pK/Rl7RK3dLVyqVwsq21vKtb32L/fv3y9133+2s4XMYNmpsrJ3IM8/t4acv7eLE2SmUF6DLZWamFxhdv4l1o300mosszi/hB4q+Spm4085Es+eMLncz6jYteAsVzqOi885hcRx3u68Z1lT7Geos8eA9H+bhBz/CndePXOjaueIVDifCjmubCwlwzmc+86tq797d8sd//Md85zvfQWtdWMHlcrlo9HGplMtllpaW8DyParVadKHKXaV5443jx4/zF3/xF+5iXYA5kR1Pv7iPv/3h0zRioTI0SitKiK1h3abNLC4uEsWGIPDRpBil8IwmDjMRtnmpR5V7pXuXGLKKWSsKXahcnLsNX5KIktEEgY/ELarEbNl0Ax/atpVfvOtOfm5D1U2cHNeyCOt38Lze7YNLHkySW1+ON+e+++5XY2NHxPd9/uqv/grf9xkaGqLRaBSF7fMGEb0lULXWb+myDsOwKA6Tt4DsbSxRq2XpSuVyme9852/YvXunfFCrub0j70Wn9VVdqjwtsPX//fufPfHMC7vpqACpBCwlBvHKpGJpRU38sgISoiRBaUgkxUbgeyXord8s+vwxQ7II+BRBGY3SBgsYBUpryr5gPJB2C9oLXDdY49477uKhB+7nI5vWuy+Xw4mww3G5LCzUtw4ODqsjRw6JiPDDH/6Qubk5arVaMZnJizZk9cbtqrSJzBkYGKBerxMEAd/85jfdBQHWlKtfOSUiP/zxz3hp/2tMLzah3IdVHrFo0F5WIUoihJ5134u4l5Xkbmm9QpBFhFK1AlrRardJ4pgg8PE9D7ERnYUFfBuzfqDC/fdv5xMf+RD3b1rnxNfhRNjhWC26wVr83M/dog4dekM6nU6RT5yvCedpKZ7noZQqGlpcrqchTdOiglej0eD73/8+r776itx11z3X9EB/OhF59oVd/MPPnmd6qY31y1TKFTqiIM6aHGRlGi29Jyp3Ky+v5Hcr5hWJSV0RzvvreoooCREFnq8pBRqxKWFjgbjdZk1flfvvvJOPbb+Xn9u8jj6N6xLkcCLscKw29frs48PDo1+/5Zbb1N69uyWOY5599lkgC67KOyHFcbyiBOrl9iuO45g4jhkZGeHs2bPMzMzwve9975q+FnMiO3667yA/+vufMN9JUEGVUrUP5fkQJ2iVNTfIOg0tCyoXEOPcMu4tyCEsZywphDgJ8T1NyfeJww5hs0F/yWfjlo384ic+wZaN69g6Unn0nVSxcjicCDsc71CA88f33Xe/2rXrZZmcnOTQoUOICP39/cBy3m++Rny55BHTaZoWqUzf+973OHHimNx4403XnDU8aWXuZ/sODv/DCy8z206QoIZFE1qwnRAr2bnXypKmMVoDYhF1TpxH7n5WK93PkOUGawGUJUliAl/hGUXYWiBuNlkz0MeDH7qXh++/l1vWD39rrVKuYIXjfYF2p8DxQaRXgGdmpnYCbN/+YfWHf/iHrFu3jna7zeLiYuGOzisorYYIQ9YkfWZmhv7+fqIo4uTJkzz33HPX5LU4eOzs8Pf/4Sfsfv0wft8IqV/GehVi0URpt3euUSApJFk3pPOs4K4lbC+yoWy3SIfF1wJxSGd+BtVucsdN1/EvfvGTfPoff4zb1w8/qq09z/qN6s2t71svQlt2TC0lOycX47nJxXjOfbudJexwvK/pBmUVxRR605k+9alfUn/8x1+T//k//ycnTpxAKVXki15uJa1CMEQwxhQWcRAERFHEj370o2vqOkyn8uThk2cf+/HzOxkbnyI1ZdpWEasAPIPuNrTXOnMhIzFaZclGmQxbQHe9zyszIARQ57QR1IAWS2BTVJqwbmCQO2/ewsce+BB337DxC2/WnD4Yrr2vim+M1bZ2qBYAACAASURBVNsyMzNDs9nkxX37CMOQNE0xxvCDF/dJ7rnJYw8qlQrlcpkg8Bkarr7psTqcCDscV5ReAb4Qf/AHX1a//du/JZOTk0XlpDy/dzWEOC9pOTo6ysTEBKOjo8zPz/Pcc8/xwgvPyYMPPvyBd0nXRbZO1JuP/WzXHp7bvRe/b5hNoxs4OzdPZFP8ctbjFp2t5IqkGKXxS4bkvGIq3QIoPWct7+mru7m/+WNfUqSxxKbRIR5+4H7+ySMfYYt/deX0/fSNE7Jz/2vMzMwUwpsHEebpcNbaIsDQ8zyCIKBUKuEHBmz6xPde3vvEyNAwIyMjDA701QOPB1yZTSfCDsf7hq985SscOHCAgwcP4vt+UXgjr5x0OQRBQKvVKtadtdYYYwjDkL/7u7+7Js5v03L0qWd/yrPPv0ypfwRbrjA+NUtlaBgbxVgFIhYDiKTdTUit7YruxXXTGAWpxWhFHHYIPEPg+bQai0gccfcN1/OLj3yMe+/c8q215upZ+51s2bndr+4f3n/kMInSUMpy0dOeiYflfGd9DMRiaXbaqA5IHDG3uMTEzBxGHSMweri/v//oS4dPMjjUz+jgwNfWBMa1Knyf4NaEHdckt9xym3r88ccZHh4mCIIVdaAvl9x6yZsC5CUSG40Ge/fuZX5+bscH+dzOiez40bMvsu/gEYKBIRLlEaWKan8fnTjqqWRlL9hswSpW5v/mg5Vk7uao2abkGdpLi9hOi3WD/aTNBeLGAo888CF+81c+w457blJXkwAfmVyQfa/sHz5xeoJEGRKtSPQl7JUCzwcTkOLRsZZ6q8PpyUlePXSQnXv28vzOPV9+9tU35ODEtMwlssONBk6EHY73hH/9r39HPfTQQ4RhiLWWKIpWrRqZ7/v4vl+0OQyCgDiO2bNnD2+88cZTH9RzOhGK7Dxy5qlnXtrF8YkZdKmCNZoY2625naDINpCsG1KXrBewXlFvcmWYnEUJ9JVLSKfDmv4+BssB42OH6TPw2V96lP/zn/8C92zuv6rcz3Ox7Dhx5iwnzkwgxidV+tI3rUlEk6BJtEK0j/ZLiA4IU2h0IiZm5jh4eIwXd+3l+Zd2P7Vz7KScXGiJGxGcCDsc7zqf+9znGBoaKtaCV6Nq1rnpTrkIl8tlZmdnefnllz9Q57DeSYvI4jOzc3znR3/HQifGr/bRTgUxGqWETtjC04JCUKQYsaAyB6uobGXXogoN7lUFJdlmxKLSBIk6VBAqCtZUSzz68Y/yK5/8GNuusvXfeiRbx8/OPDU9M0csimpfP6J00ZTine4FjSmVsNoQWUVks9pj1vMRL8CaEvhlYu2x2I45NTnF/jeO8PLeV/iHVw/L/vEZmey4CGwnwg7Hu8SnPvVL6p/9s39WiOdqkAd65RW4IIuYzutNv/TSSx+oczhcNmMAB2cb8tKeV3j96AkIapQHhomsLZorRFELrVKMRBjpWsSFEHctYbVsFfcKMGQCbMTia81gpUR9aoKasvzGv/gMv/qPP/a165RSc2F8VblXw9gePXlmnIXFBijD4lITJZnr/VL2SgDtZVaxhSiFKM3EOBZNIoYwFZQX4Nf6MOUardhyerrO60dPsOfVNzg4dnJ476lJOd2KnHXsRNjhuPL85m/+JqOjo0RRdNltDnPLNxfi3nZ5efON1157jddff/UDMcDVE9kKcNaKvHLgAM/v2kO5f4RmIrQTQRu/G4SV4hmFSmOMpMWWF57MXdH5dp53oWeTOCJsNrlp80Y+/alf4KP33lFfo9RXAEZK/qpXwJpth49PLDXl7GJDziw15Mz8osy0w6+uxmsvNRtMz8yRiBBUqlibW/zZ4PxO96CJE0tqIVU6q0jm+2iTrROLyep0h6KJUkUoIMZHBWVEeXQSy+uHjvLawYMcPDzGgal5mUnlq26UcCLscFwxPvSh7eqTn/wkSqlVEWGlFJ7nFWklecoSZOkkk5OTHDhw4INhBXtqbEbkq/tfO8zLu19hpr6IX+sjFk0nSbHaFM0yFClIWqwJKyzqnOIoRQEO9AWDtpQI7aVF1g4P8cufepRPbL/z0fVajUw1mjtX87jm2smOYxOz8srRE3Lo2PEnDoyN8crBg+x+9VUOnTjBwePHv7zr2Ak5PDUrs53k8UuexMzNE4YxxgvQxs96Ugtoe2mbsZknxiqFaJ05/q0QpZYwTgjjBNEGpT0wHqJ8xAQoP8BqQyuKSVDMN9ocOX6KnXtf4eXd+7/8yqkpmY3kcTdaOBF2OK4In/70p6lWq6uSJ+x5XjcIKevMlAtxXlih0+lw6tSpq/6czcVZZO1cS7689+ARDp0ex+vrZ6ndwSuX8UtZ1LnOrbQkxVf6Ao1HpRBg0KTKI1VeUbZSYTESE9iYQEK2bBzl1/+Pf86Hbt9CkvJVgHV9tQdW67hOzy7KyYmJp46dOcOpqSnmG01iK6TGYLUhVor5VovxySmOnTrNycnJJ862YgGoR/YdVd5qdtrgGayCRqtJO87baNqulyDb625O9FttCotWglFZ+hdka/Baa/zAI6iUSZIIi5AiRGlCmMSkKMR4KD9AjEH7AdbzWGiFHBuf4MDRMQ4eP/nEWN0FcDkRdjiuAJ/85KPqox99iKWlJq1Wq7Bc865KeZDV21k3ttYShuGKUph59SwRoVKp8PTTV3/fgBFfPX3Kivxk9ys8s/tVgrWbiMo1xDfEaYikFg+FSi2+KEq6hLIKZT0sXuZ67ik9qbsBWqn2sKaUrV+GMcqGBGkHL1pgfVXzuV/5FHdev27XJqXUOk+tmvjOdaIdB05PyWtHjzMxPU+UarRXweqAyGoS8VBehWYnJbYGHVRJlc/4xCyvHz7GwemmDAf6bRfEmA6TJxutBqbsEasU6yvEg1QniLJYZYv9m28rC5kYSTBpiJYQQ4RRMZoIbAebtLKCHiqTYUzWdSolJcZiNVhtsuhqNOIHpF6J6UbI3kNj/PCnL7Bnoi4T6YXru4at+lY3mjgRdjguiUceeYSBgQE8zysKdqRpmjUXWMW60mEYMj8/z+Tk2avaqpiysvPY6Xmeff5lrBewEEY0woS0GFUy174SUFZnm3RXdkUhSnXFY+XERmuPJBWMMtSqZQIgas5z3Zph/sU/3cG2jWtZZ1ZPfOupbH3j7IwcGDv11MRcHas00pP2I11bVLq/94ISynhYsr+jPaLEsrDU4Nh8521f07Ul77OlSplOFHarcgqibLdJhSDdiDTJt/xv9AawrWxikXsOUN3WkN1tZZmP7Of8UR4Ql0WoL++LtCc8EuURK49EG17eu589rx3iROP8Yy1Vh11VLifCDsel8eijj7Jhw4bMmujWfu61iFdLhEWEmZkZjh07dlWfr07E9ueef5GzU5NZ5WZllqOaV9R11suDfR58pbrCljlLs45IojPBThN0HFJSgopjolaTDWtGefCB7Txw5x2PXletrloa0mwnenxicubo6YlJZhfqtDudt/yf3DOSxw/kbTAXFhY4c+YMZ+aW3vaNUquUiTptPGPQLN9veSJXLvwX3ThnK87xyv/Na2/3OLeXj6eIrLYXFIRCpLv/t9RsMTZ2nN2vvMqByWnnnnYi7HCsDrfddpu67bbbSNO0sIB73c/W2lVJYyqVSjQaDQ4dOnRVn6/XDh5j32uvU+sbwC+ViK1QqdQuPPHoCkHmOtVdy25ZHPLhSAsEqVASSyApSWOJwVLAjn/0CX7+Yx9hNfv/nl1syNjJU0+cODNOJ0nwS2XE895yWMyj33snZSJCFEU0m00WFhbe9meoVioYJRgEbNJtV3HueVkerpct1a6FrlZasssTHK8QXS4gvJcjGdW+flIUp86Ms3vfq+w8ckTqcejc0E6EHY7L56GHHkIpRRRFK6yc1bKCIaumFUXRVW0J7z+7KE/9+BnacUqCQRufKE6XXaLnVMI61xK2qkcYZFl0tEAJSzmNSJcWWFMt84mPfoRPfPReNiulZuN4VSJ0zy4tycTMLNP1eZphiNUGPB9RhreKjxeRFV23zr0/FpYWmV1svq3PWatV6KtVSZOINIkpdXPJ7TlWq+1xiduec1icy94Nb/l5aqUr/fyJzzvw4HQnT812iPHLBJV+Fppt9r1+mBf37D96ol53VrETYYfj8kV4eHi4GFjzjjW5IK+GGOcdcM6cOXNVnqOpRHa+sHsvR06dAs9HaUOzHdLXN0AUJhcZwOkREnpygZf3SrIUGy8KUe0mpTThnltv5hf+0ce5QSl1eqklo75/2S36Dp45I2MnT3J2egbxPCr9AyjjEaUW7b118468IUceN5CnYEHmqu50Oiw2G0+8nc8yUOtj0/oNRSWwsucVxUkudA5h+dzlTyvWjHMXNoDows0vlyS4K/e9Quz5JSIrWK3xy310EsvRk+Psf+MIb0xNOSF2IuxwXDr33XefuuGGG4o83zx3OB948zW7yyGOYwAmJyevuvMza+XxA0fHt+969XVMuYpVWVqLReH5QebCl67jVC13BbbnrAXnVlxhAVtdlKU0SYdh3/DAbbfwjz58P7fWsjUAlUSX9dknFpfktVOnZXxmjrmlFqG14Hloz2C1Kj6TvM0VhyL/uacntbWWOI5pNptv6zU2VAK19cYbGB0cpKSEpNPunr9ee1UXkxQly0VLLjrJU6pnyz/s8rr7hUTgrWzj3gjsUqWKoGlFKQkav9qP8sucnJrl+V37eOXMKZlOWk+60cSJsMNxSWzYsAHP8wpruFeEV6OYR762vLCwwNTUxFVjOcyKPB4rnnhh7x6m5udJtEaVSzQ6IYPDo8zNzXU7R9mewdt23aDd7kiAqGwBs4jhyvNbAc9a+rRm09AgP//QR3hk63o1E2YVmzYPD13ygvxsGD5+dnqaQ2PHiFJLtX+A6sAAUZyy2GpjRaG0JgzDt3X9kiQpcsCNMSvS0fIUtbfLLWuG1JrhISq+T6exhCaPaqaY0KzMFbZoyStt255qYpk9nPVYliJ3+FLJJyO96U9WweLiIl5QolLto5OktKIE/BKYgHqjxStvHODM5NRjs5K44h5OhB2Od87P//zP0263qVarJElSFNhI07RoT3g55IU7FhYWOHny5FVxTqbCZKeCsed2HWDPawegVIYgIEotxg9YajYol8vZhOVN3anZscdxnE1GEgtJDEmMimNqgUfcXOIzn3qUR27dpADWlNRl9b4dX1iSI8dOPjExU8cv17AY2lFKFKcYLyhqeosI2veK9d6LbReyiPNgrfzavtPJ2j133PqF22/eSn+lhMQxKk3wkGyzFpOmqDRF2RSxCUiKtlkTDIMUm1fEm9tMlCXFpjE2jRGbVSkrintcRAB6a3hfCK8UkKYpUZKitIcyJWLRpMoQVPtpdhKee+llXnn99SfqIi5g6y3w3ClwOFayfv16fN+n001X6S1neW7E9KWQi1Cr1WJxcfF9fz7mkmTHiOc98PpSKK8dPUKkNUmRR7uyybzuedS7tmm7o7vVkMYxRoGvDUoSfK2omICk1aI9t8ivffLn2Xb9xlX57BNLTTk7PcNis4Vog+8HxLIcZHQptkghxlaKGuFKKbRSmWs7DPGCdzZZG/W9r082m18NKuXh14+epNlJ6HTahagb3yNNLVES4xuDUqCUAa0QscRpiiRCIhZlNIIUx6e77nJjDEb7RdDhm9tmbz6JsCoTclEaxBZXXmOxyqBLFU5MTCJaHz0Th2z2S8qNLE6EHY63xebNm6lUKszPz1OtVldNfIsvnecV6Sxzc+//rnGR5alpkW/9eM8BXj10pNs8XpMqVaQbZY0INRcygs8fzoVSqYSN2qRxRH+5jEQdApty803X84mHP8qmIf+yT/bEUlvGJ6aYmqsTpymmVEbpANIkWxtVy58w//HtuG/zdWClVWEB5wVeFEJqLZVK5Z1P/mq1EYCjc02ZnJnjzJkzzM/PE4ctiDViFcqmKGNIEUQUthup7fkevu+hTECj00Zrrygyk9+3YlOS1OahWyzveiYhKi/iod/0Cp7v4QBEdwuYeBitmF9s0WmfwvcqTKWyczULrDgRdjg+wAwODtLX18fs7Gyxzpev+a1GYFYeSRvH8VVhCXu++dp0aL+878AbzC218PuHSLTpBlv1jN/dykyiLSCIWraGs4E6W6dMrMUv+USRxVdCSUFjqc6a4VF+6dF/wg2rIMBnFjty5uwUc/PzxGnmNhU0UWrPixbuFV51jgV/IQrLl6xoh+nGCyilsGkmyPnk7VLYNlJTM6F8ddPoyJeXmg1arRbtMCRJUlLJ1qOjOCYMY9pRSBRFpFGHBEgVBH6AaEFrReY9zyYGSZwSp4Lv+ysqba28OfU5hVbe4b3d9ZDEcUq5MoDYhDeOjCGitk+n8uRaoz7rRhgnwg7Hm1IqlRgdHWV8fLxoQ5ivBedBWpdDkiRF1aV2u/2+Px8CW18/dJQjJ06jyiUSvVzOMRdfRe7EtCuEuVeIC7sqiUjalr5yCRVB3FpiqFrh3ttv4e6b133h8i3gUManppmu10lSwfMriDKk3UA7ZfLPLcvKiy2ikt/KPV1UzOpaxLoraEmSEEcha/qqVCrVb13OMXTXwS+4Fj7dSp5MrH0sjmNanTaNRov5xUUajQbtOKQZhsQ2JAktMYIxPsbzqPg+5ZIiihOsZMe5cu132Q19oX7O+hyL+LyZUh7IJRqrDMovoa1PY2GesWMnqQWVx+ZS2TFi1NNulHEi7HBclCAIWLt2Lb7vF+vBIlIEE12uCPda0+93EZ4VebwhPLb/9deZW1zC7xskUop0RcOAroh1B2pLliZj5DwxB2UplXySsINX6SOK2nQW59m+/X4+8dBHGVXqsvOAz05OU19sECe2W+fZJ0kTUgHfMyumCQoLYguBeTtC7Pt+5s2wmQhjMwGme28MDI2wtla5Yhbf2qp33mvPhemOThw9laQpE3NzLDSWqNcXWFhcohNHxFFCqiNQBmW84jrlqU/LkdC5MF+6NZyKwQ/KtNodjFiqtQEarQ6HDh8lUOYp3jzDyomww+FEOPhCf3//E0mSFK5HESkipVeLd5JP+l6y75WDHB47hpcHNaGX2wxKJqy8iQv33HrSnjaIUSSdNnG7zaZ1a/nwh+7jvo21yx6cj5w+K6cm5ogTMMZH0U0rE4XWBrQBa1mxDlwcx9sra1HkjnfjBKRb5rRSKlGr9jE0NPSuX6ORknm6V9ymRZ6szy89Njc3R31xifmFReYXGzTbbcp9/Rd8jRWpSOjzLN/ehhy9+5XXWiOiQHmkViMC2itjdEJ9YYkjx45zcHxObt004oS45/5zOBw9DA+Pft3zPMIwzPrh9gS3lMvly379XNTjOH5fW8JziexI4Kv7XjvA1OwSQbWfKEmLYUNdyNLNrcmeoB9RWUeevHZxq92gEhjizhJlA/ffcwe3bL3xsj/v0fFpOTM1SztJSY3CakMk2Tqq8gzGKCRNihzcogfviijurMCF5fw82bwjURpH3ddJMSpFSYwmoVL2WDMywuaB8nsuMGuV+uwtwwPqwW1b1Efuu+sL2+++iztv3sbP3XAdgU3wJMWXFCMJiqQ7Qeq2TryAKOseq1nJude+WwVNLbu34zimVK1QKldphhGp8VGlMuOzs4ydOsOJ+barrOUsYYfj4lQqFUSyIJY8Z7hUKtFut1clRalardJsNosc1fcjAluPnpwePjE+S1AbxCv34aUeoLKOO7JsHYmCFI0CjKSZiJG5N1MMonRRT7pkFMZGqKjNxjXDPPzAvQxU+NrlfNbTC6GcHB9nrhPhVaukKp8I5PUXBSVyTuCVXZYYlX3gvLxmKmCTNJNlpVBKMEpQCgKjAUGSiDiKMAjDg4Ns2DjEtqGB952F13XxF27+nYdPysnx8axspzEElSqJtiRpQiIK6XoMVJoFIioBYzwMCitJMcGyauVEK59keSo733llOK0NMZCIxpQ1h06P49XKnG6ncl3FXPMWsRNhh+NCLqJuxGterD+vhJT/7nK5UCee9xtWs+PAoSMstlrEokhaUdcmkmUL8pzAnsyrm6KBpKfBALkeisX3NJ2FOkO+4SP33c1QX5U16tILckw0rZydnqHRjrKG9HrZks1KYS4L7vKa70oZzh3RFuiEMX4poOSXSW2MpAlGgRKFsgliswIYYKmUfIb6+xgdGWFooLbtari3H7j5BnV8dknGZ2YYn5lmaq5Os9NCByXKff1EVtMJI5RApVTCKE3aiUjSFE9pMOY878fKlK/8TGbnNFXZDEcpjYiHLpc5dvos1XKJupWtw1pd0z2InQg7HBf7cnTrR+fCm6YpnuddtnD2Vlh6P4vwfCN8bO+r+2mFHUxQo9XpYEor3fErU5C6OrvCU9BTnhLBiKXkaZpJzIbNm3noIx9hoFrZdTmfc3Z2lpnZWaI4IQjKpCJvK/TnYqFHxhiM0iApktpsDdlk678KRdjuUAo8Bvv7GR0eZmR06Gtr/PJXrqZ7e8tov5qO5Mn+wYHHKpUzjM9M0+pEpO02xpQIuhfTJnHm+TGC7l5Xq86JoO72gS4mN+elOOmiuIdVFt/zmKvPMnb8GMN95aNc44FaToQdjgsQRVFRPzqPhs2LNKyKldkV4MuNtL5STKfy5Av7Xufs5DT4VYJShUarg6cUghSNBFaIca9lLBrUyrVj023QkLTabFgzyn133M6G/uqjl9MjeGxiQU6dPUsURRhTAs8jlbgItrpQ8Y1eibhQfWTf09g0JpVu+UetkTTtzjCE/r4qQwN9rB0d5frBwatWQNYGWc7uqU4sa6ZHGDt+kjMTEyQSUe0bQHuGTqdDIopKrYpSijAMURdIX4JuBS1yl352prOGHV2ruBvAlyQJtb4+ZusLHDp8jKlOuHNduXTNFvJwgVkOxzksLNS3NhqNQiDzQKrVFODctb0ataivBM04fmz3vleIlUF7AeLpbP262yWpd+A9T+ik64LOLaS8O5JYPCu0Fxa59aab2H733Si4ZFfk5HxrbnJmmka7hfG9oqax7rZE1HJ+8Y28LvKb1UdO05Q0DlGS4hsPHyBJUKnQV66w7cYt3LBx89euZgHu5fqyrz56/XXq3lu3cdfNP0fNM5g0QcKQQCvKgY9GSCQhkQSrbLblkxhli5rUqtszC2WLYK/svC8/P04TyrUa2vM5MznJ8dNntztL2OFwFHQ6naP1er0QX+C83sKXQ/6aQRCsasrTanJmaobDJ0+h/IAYhXRzbuMkKbr2aLE9YtxNaBG9wqrMrSXTbUTgWYvna+7YtpV71w2ruSjawSUK8Wx9frjRaGAtBCbzVkRRhF/yLmipXXBCdIG+uZ4Gq7OWTzaOsGmC0TAyNMD6dWu4cXjgA+k+vWPdejUdx0/WgtpjJ05PMFufx5QCjGdod1okSiiVq0XAVR7Mlk/Gcpd0YQWjsy5aPfaeVYAydMKYoFQhblqOHD3O4am63Lxu+Jp0SztL2OE4h3a7zdzcXGH95qKZu6dXQ4SVUu9bET4rIvsOHaQRxyRaIVoTdtcGewuNZGJsz1/Q62kkX1jBFjxJ8CThnttu4ZYbrwdgJAguyRU9Nj4pc/N1UrH4QVD08TWoFWk0Ws631vPeuPaCQ75Fawg8gxaLTRNKfsCGteu4cfN19Q+qAOes9f3P3rVt67Y7ttzExtFRAiDutEmTOCuDaSgsYcj2yxW1cs9DNzY+XxvuSX/Kv0dhGJIAOigxO9/gyPGTjDeTazJtyYmww3EOURTRarUKsczXb1fTElZK4Xne+9IdPdds88bR4+igRIJCjIeVrOx/kiQr1lrPdUX35ormlqhCMCQYEXwrfOjOu9i4ZuCSy1NOLTZ2ztUXWGo2UcYjCALiNCVOssA5LfqivXQvJLxSpNpknzcKO9gkxgDlks/6taPccP3mL6zvC0auhft/uKTG7r9lk7pz200M9VdQNqUceASeptVqvrV74ZxJTVHQJb8njAZtCOMUqzX4PqfPTnPkxKlrcrxxIuxwnMP8/DzT09NFw4a8WEeSJHje5a/gVCoVwjCkUqmwfv36993xT84vMDW/QCNKqPT104kTUIYkSd+W5W6tRXuGKAwpBT42ifCVwqQpw7UK995xK9JJLrnP7PziwvalZgO0wgt8oiRGFCs+m3oTy9fzPOI0IUpitGfwPI8kSQg7HeI4ZqBSI446aCzXbVjPPTduUqO+/vq19j2486b16r477mTTurVoG2PjCN/TeCr7XuQTU1HLgYYXm6T2Xo8wDNGeh/EDEisE5RoJmtMT05xoxO+6NTwlsvO0FTkhIqdEZFbk8WmRJ2dEvvpuvL9bE3Y4zv1STk0Vbtdzg7JWK0cYsupbfX1976tjr4ts/eazz7HYahMLRIn9/9l79xi5rvvO83Me9956dXVXv8gmRVIkLckTW/bakmM7G4ydjOJJAkwSA5YzwMTjNeKlkyDY/DHOSEiAmYH/mJHymMHExq7lBMZ4DWwCKTtIdpPZQaQkwGyyoyRSHEcPUyLZFJ/9flXX8957ztk/7qOryaZIdlVLTbJ+QKH5rLp17rnn+3t+v1gnEM5hcCgh0jqg3SEKTv4qtgZiQalUIIq6FD2NDduIsM0Hvv/9VHydCRTsyjrdMAFUmYyLGSewImW6cgLFzl3P+fo7m4+axXGc3F8HvvbwBGzW1xktVzgwOcVkbezpe/lZeHCmJl6dW3L2nOXq2grGxHjFEloKnDNEkUM7legnW0HcDZE6KVQIBzKtG1ux1Tifrb1xFucEkTU4B/VWh/MXr7Jq7WPjUu6pyMPVTuzeOH+ecxcv8o3f+302Wg1aYRcXOwK8Z9730IN8+IMfYNG5xzz4bE3s3SzzEISHNrRr7MyZM8RxjOd5OVFHpiecRcb9WAbk5XKZ6enpffXdG3F87rU3ztCOLMIvESPTwq7CGlA3IDiyomc0RUniOKRcLNBY36BaLdNuhlQDjw9/8GEOBrtvM19uW/aCvgAAIABJREFUtZ96c3Y2UTBSKmHlSokg8rXd4e17U+Q2y264LVlCTyXA4OII7QRTtTHee2RmyG8MvH9mSrx88YoLTczC2ioiNCghEEisS50akaSZnUxkPHJWLRIilF6HTSlFHCZjZFKrhHFLQjeMmb10iWOHx/dU5OGF195w/9ef/xmvz77F3MoKrTAkRiCUTubDu5bzV+b5s794kZP3H3nkB7//0XPLzj09KcSTS63Os1OlwkDFOYYgPLShXWOvv/46xpgchHuVkwYRCWep7VKpxMGDB/fVd59fXGJhaQXlFdBBEeMEWvmgFHE2WsX2KNORMmOl9IW+r+m2ummUaRKyCxty8v6THJmZ6Ov6ulH4RKvTTigylSR2YHApSYjEEmN7QHinMaSMLCWhY1RokQByFEcQRxydOcj4uyDCsKPT0Wg/JZ18AQXjpeBdkwA8cd+hk8A5ay1r9QZCSKQfILUkihztKMRXPjoo4GycNmfJvFu6V9JSpvgqpUQisDbR63ZSstlocHV+jqWw/eyUP1glqhXnTv2/f/v3z/znP3mBlWaDeruLUz74lUT1S3l4no/1Ld1Wi81Gk803zrLRbHJl7uoTr8yvPDFVGjwv+BCEhza0HltaWnr2s5/9TP77rC7c2yXdr2WjNOVymZmZw/sm2lqKwmf/9K/+hk43QvplnJDExoGUaOlhRJiQVqido2CX1V2lQHuSKO4S+JpOq4GvFB98+P0Eqj+O6MgYwjhGSD/5vGtKBTea5XbbvSCsMSiR1DedscRRhBKScrnCw+859o7ek5WN8FQ3jp6J4xhrbTKn7GJs7FhYXEY4+YRQcObiIkJBwS8iFCihUZ58bqoSfHavr7EmxexS6J4zxj3+vTPnWG+2cGGMVyxiPUEUdmnbmGIQ4MIs8pWQpqQTSE7rxdaipUQKnWQjbIxRAk/72LDN5StzHJioPT7I678UGfcXr77O7/6XPyYUklYscEEZv1DBIel2unQ6ljBM5veDkRpjY+MQdpi9Msfi4gLGGFacOzUIuc0hCA9taDewM2fOPH716tW8btWbeh4Uw1UUJeM+ExMT++q7t1qtx2ffukBsHdaAw6bi7xarHJ5SGGu2QVpWB84an5IO6hBPa5yxBAVNa6XOwQPjPPTAe/oi59jCUAVSpHXFlJOYBJCz60FcD75bakhpFCaSUkPU7WJjw2htnMMHJ/d8ndcanRNhbF/qdqNat9tlYXllm8ZxUgLppTU1CCewMkIYQbdbz/+tUurx2blVVywWmRkr7qnzMOWLz67E7lS71Xnm3OXLrDZaqCDA831Cp4kdhNYk5CaZ0lZ6E2TPPckyS846nHWYLMPiCZxIGiMXlpcGeu1/f/Ysz//l/8fllVUOHD2Bi2KiSOKsREkPzw/QyiGkRAYeG/U6YadB1VcUgzLN7iavnn6DSsF/hh4xjCEID21oA7a//uu/pl6v5zPBvWnoXjGHfswYw8jICEePHt1X332jscnCwkJS+3YOgUQrn9gKjHF4QqTrYXaMNF2Ps4IAZw0Yh1aCBx84yXhVI6GvlKpQEuVpHJI4vQ9JliI93N+mZr3Nmco0otMsx8jICJOTk5yYquwZkK1uth/rxtHzi8urOJf0F1gESeZW5H0HUilAIa/ZZ1mUn5VIjDGEkSGM2rQ7IacvLjmtHLVK4UsTo9U96eae0OIbl5vmmWYY0upeTchblEIqlUS1zuI7ta0mLDK9aZc8S7GL0nG/OHMkMMYQOwtSEseWxcVF3lpddfeP7153eLXVeYxiwNVG6/nn/uv/w5krlylPTRNrD2uTLE8cOzwBGom0gtgKWi5ClkqUAh9fWjBdus1N3rp8BRe2eeXqonv40PTA9slwRGloQ+ux06dPpzzEaseu6EFRV46OjjIzM7NvvveScc/W2xH1doTQQZKC1ho/0AlBQ5yoBm3NmqTRZ1oHzli0EDYVvrDYKCTudhgpaP7B8aME8HS/XaaekPhCIREIm1aiZapZjMEJkUbDGWFIj4oTKb+xczhjsVGMi0KKgc9UbYzxanltr9Z3fn3TrdY3n19d26ATRkQmRmgPPwgIigV04CelDxIJwG4cYYwhsib/mf15GIZENnEepKeT9SYpcTRabZZX1p+5cHXBrdabj+3Fd7mvrMSB2hgjpQBpIuJOG2djtLRJ13SafrbpftjJCc0iYiEEXuCjPA2pgyU8n7WNBqv1Rl/XOV4qvADw1txVzl+eoxU5RFBkZbNJKzY4pZHKy0cQk+yII2x3wDpia9nsRhjtEdRqmKDI4nqTMxcuc7kVDmyUagjCQxtaapcuXXIvv/wyxWIRa23O7KNS6baMuOOmD1UaPWcc0Zm3r3VyYGbv89GPfnTffHcl+cablxZZqHcxKkBqL4m0Om2Ei9HKYE1ILvwuEq1gR8YPbfGsRVvohJbYSgraw7Y2OTJa4n84caQvucLMDlWroqR94lYHjUQJSRS3Ub5AB5LIRAlhiCN5CYlAYozDRnHaWObQMmHy0gLGyiVmpiafO1AWAyfjmGuE7nuXF93lhWU2mq2kC9fzcUoTO0s3jujGIZGJMNikjCoFSLHVcZ7V3Hv+3OKIncU4S+xs0oCmJFL7dIxkvRmxsFp//uJS3a113IlBf69H7j8kHjxyiMBGlISlIqHgLEQdjIyJtCVWFiuTV84lLSyB52Njk3RGC+jGXYy0RMREQhALj47VvHVlgTXX37XXDc+//sYsi6t1VKGCIUDoIk76Ka0mxETEroO1LaTrMOZrvDjtAPc0DetoSo0pjtANSjz/F3+FZXAkO0MQHtrQUvvjP/5jrly5sifvnaWzs87ckZGRfTWetBHx/JXFVawKEiJKt3U0CGfTbtceQn6211sTmshkdlihEvpILEVPc9+BKcqe+NKgrrU2UsWXgjgMsXGUZCls0omtvaQj1zmHs8l8s3AOLSSe1viewtc6keizhpFyiYnRUabKYqDNTUuhe/bM4oZbWFqm1emiPJ+gWMILCteJSLhr+Kv7+ekEeEEJqQO6xrG22WRpefXc3Hp74CQYR6YnOXboEIRdwsYGfpIXIaOzdMJiduDm7rVel9YKMAKE9LBO0WyFLK42z/VzjZv1FvNzCzg0yisSm8QxI82SuJxaMwYRI4lTsRGXSi+CEZJIKkKpCaVHoxsztzi4pMkQhIc2tNT+/M//nDiOBwK4bwfEUkqOHTvG0aP375vO6NXVBhcvXEYOgBEsGz0RDooFnwdOnGRCBwOrUT5w/yExUq6gnUAjKSgvGXuJDaYTooRISUUMzhhsHGPiEBsbiA3CWWwc4SnJWHWEserIyUGu5WIzeml9vf54vV5Ppf/EtnG3vbbYGpzYqh232202NzeZXxssEN9XGxXH77+fYqFAHMdpBqi/7ydIIn6Lo9FucfHiRdbi3UfD7Xab+fl5tFQE2rul57u3f0C6XklMkb/n7IW3hiA8tKEN0l5++WX36quvDuyQvLaGnAFw9v4PP/zwvvr+K6urLCwt4vuFPo8Fi1YChMXFEdVyhWPHjg38eidqNYoFP4lnrENb8KXGkwn4SmvQWDQOTyY/pTVgDabbJdCKaqVMbaRCrSQHxoa0Vm+fWFxcfKTZbCJlIv+Y9RdkI0h7bVEU5U2FSqlEBzgK2dzc5ML86kCBeGq89qWZmRnKxRJxmIx5XaczfYsAJNPmLWtI+woMV+bn6EZm19GwkI5Oq43WyVrY2OygM213BOAbXXFkHReuDI7negjCQxsa8Oyzz3LlypWBjCDt1MSVAbAxyejJBz7wgX31/ZfW1miFUdp53Eckk8oWJjNOjonxGhPjgye+OHn0oJiamKSgFXGnQ9xqUxCCSiHAdDuYOAQXoaTFF4JAJS9fgsYxMVpl5sAU900MThVpeaX+1NpG/VwGtNn9N8bkEVjWX7CXVigU8o7jbL9lZZAwDLk0vzwwIJ7Q4hv3HznKaHWEdnMTX6ptEeRuzBiD8nyk8qjXG9Tr9d05RNadUEolTpAxWGPwVKqyRaoA1qs13QPKNtdD7oXKJNkupGRpZY0l454dgvDQhjYA++53v+uef/55gD3lcs4atWq1Gg8++OC++f7Lzj21sLSI8j1iBsAI5kgUk6TkvkOHKSixJ/zL7z0+I47MHGa8UsWzYDodomYL5QzSxggTQRziTIhL2bCIIybHRjk4OcGxybHBAfD65lP1RuOJZrsNabdtBsRSyny0bRDljpse6nK7MyhTYgzjLGEYUq/XubywMjAgnhwfeXpyrAbGgjXbdKZvZ89kgJioLIm8631xeXWX3jBI56iUS0TdTiJAofTbgp5je/1aXOdQSJxS1Ftt5pYaAyEUGYLw0O55e+6557h06RKlUokwDAcWCfdGQ72NWR/96Ec5evToyf3y/Tfb7onLV+fxCgXC2NxCSu4mFkdIawh8zf1Hjg6kK/pGdv9MTbzn2LHnDh2YZrRYJBBQCTQlXxEoiS8FgZKUA81YpcjE2AiHDkxxZGJwAvJL641nN+qbT3TCKOleTp2tDICzlLC19h0B4TAMsTZGCJF8tt76/MjEGBztdpu55bWBAPGkEE8ePniAybExXBRvaTlfAzA7NaPtBEK+XyC2SZJY+z4LS4tcbdx+PbumxGzg+0xPTCZz4dYmghJs15vOneTeWXKxsyPhBBiX8FxfuHp1ME7T8Age2r1sr7/+uvv93/99nHOMjIzsOvV1OwD9sY99jNHR2ux+WYNWp83K2irKC+hGUX9RMBZnkw7TouczPbX3rGBTtcJn3//AEXH8vqMv33fwICXfo+grSr7HSClgYrTKoelp7j9y5OUPPfCAODhWHWhDXLvdfrzR6hAZk9fUM+fLWksURTlLmu/77+i9zYA/siahE9U+ng7oxhGNRpP5lfWBAPGByfGnD05MEHXDJHrcBRBlLy9IJA4jY9B+wEZ9k1a7vavrKgU+kxM1Au0lHf7G7pwm75kGsDkA2zwaTmfHsAhiC10bs7iy0vcIFQwZs4Z2j9tXv/pV5ubmGB8fR0rJyMgI9JmStdYyMjLCxsYGQRDg+z6tVgtISDo++MEP7qs1uDK3kMywFqsIr//5R19K2s0G73nfQ0yPl1l17rFxIfZcfGB6vPjoO712568uu43NBlJ7KKUSjWKp8kgvi0Z798Y7ZhkDVwojAkvSRB4TFAKiMGJpdZXLy2vuvsn+MgOTUjx5dmn9ifnlVRabHbzySP5dM/a5nK7yJoxz3U6EkBrp+VhnaHU7XL68u6jzWCkQ//mlV91/e+lv8StFmrFBeun9cde7CvlMdsp2vb2BK3ETvGKJRnOdpY06XThHn4pPw0h4aPesPfvss+7P/uzPqFQqhGHI2toaegAjOs45Op1OPiLSaDQIgoB2u833fd/3ceLEiX21Dp1uRIzA4ECqlGlqlweKA5zB04py0UcD7wQAvxu2uNF+KTIxQumceCK2N56J3TcmBc6K/D4PKkUe+JrRciUBfety8O91PN4OgIUDYZPuY2NMspYOnBO0w+6ur6tcKVIuFMEl/Oci+yy2ar7XQHHalJW+nES4hJTGpTIUBmhHXVoDWLohCA/tnrSzZ8+63/7t32Z+fh7nHKVSiW63O5B0YRAExHGM7/u5bKFSiiiK+MhHPsLhw0f21TG93tzEIjBCYmWflyYsmJiS7zFVq+HBc3fj/lltdR/bbDYeCWODVB5CeRgn3tlI96b3Iil8uh6t50RWUGFxOb1nN4y5vFJ3ax3Tl3dYKQQnpyYm8NKRrEyzOauPOyHYTvmy7TLzNLG1NgFiuyWD2Gx1mKs3dpWiqo1WGauO4OIYT8kdRpR6HOhr6tU5WLstuIycJUaw3mhSb3X7vk1DEB7aPWnf/OY3efHFFxkfT5gKhRBUq9WBNGYl5PQ2J+TPAP7w4cN87GMf21frsBS7Z1fX1olxCbtRyv3bz7nvjKVUCJianEQNWHFmv1ir3X2+3Q0TjWWRNd4B4s44Uk12k6UgjCMarSadTqcvdqpa4M1OT45TDIK0MUtso3q9VTnQXBHLpZkZoeh0OtR3ySU9NjpKbWwME8fbup17gXgLfC3gsD2FY9HT7W2RWCcwEtY266w3NocgPLSh3a59+9vfdt/+9rfxPI8wDCmVStTrdTzPo9vt37NNxOxdPqfpeR7r6+v8wA/8AB/60Ide3k9rEUXu8ZX1NRxZpCIHcKhYKoWA6YnxuzIVvdxoP5V0ICd1Q+cgNhbrxDsyB3wzy2Qlr4/yZErZmM6tI3FCEVtodyM6YdT3Z4+OVF8erVa39sI1NeAbCaD0gqIQEpQCmXR1a60J44jNVnNX1zRS9JgYq+GMxcVmWwH32ojYibcj7EhazgwCqTw2mi3qQxAe2tBuz/70T//UffWrX2V1dZVqtUqr1cI5h+d5bGxsUCgUBvI5hUIhUcUxhna7jRCCT37yk0xOTj+6n9ajG4VsrG+CkjldYL8jShJBoVCgNlYZSPfofrNGs/1EGEc4oRKQIUmhOikQWu37onAvmUz2stbSCUOW29FT/bz3dFE9OjExgUJsZYPc26uQXdutnI9WiaR2LaTGxAn95m7Mhy+Njo7iSZUrOAlugUxE2LzTOwPrTK9aap9Wp02z3WHFuVNDEB7a0G7BXnzxRffNb36T06dPMzExgTGGUqmUN05lYNyvZfOh1tqkYzYMefjhh/nBH/zBfbcmWSqyVze5b89eCQLPp6xZM3DqbttH7XabOI5zAANAyVtOt74DMEvW37tThdoi0qg4IcaQWiFU7jA+0e+nT4zV8v1/LWvczaRABWmqXKhEntHE+bq2O53dPY8wOzJSwfMVztgd6sHyumj47fwoIQTK03RjQycMcdCXozkE4aHdEzY3N+e+9a1v8Qd/8AdMTCSzq1EU5U1UGxsb1Gq1fJSor+iy26XT6eQyiJ7n8dGPfpQHHnho34VIkbF0oxAhFDiJc+KGTSu3dqA4PCS+Ag1PEru7bi8l5QaRH9ioLUIO5/rga3yHLXMiMkYva+1AeiKqpQAtDMLEiQJXui69ICwzdyCTYexxH4Qzyby5c8TWYIHISbrR7tZ1XIgXKoGPr1Uqw2nzIcSs61m4NKMhkpsqXKYkZvOo2IlEISqL1K1xxLHBQl+6zUMQHtpdb2trK6f+/b//Df7Tf/omMzMHiKIu1sZoLQnDDsViQBB4tNtNxAAOUK19lPIoFsvU6w3uv/8EP/mTn96Xa7O4vk4Yg/aKaApop/s6FoSDuN3g/e85gXU8NunJgbJlrTh3as25EyvOnVp27ql+U4G3a2cvLTkpfQQKEDjLFkczZl/cU3nN67q/T+u01oIxDmMcQiickDTbXa6ubvT1EFSL+unJkQIi7iBM0h+hlY+1sNU8vl0e06WSgU6AFBYbdtBa4/kFnFdAl8rMr65xsdHZ1bUdmahRLnrERBiR6kw7iXACZdMu7rRbXDiJtJoUj7EixsgYiAGLVNBpdSgXyly9skgMj/R1XgyP6KHdzbaxsXbiqaeeeuab3/wm09PTrK+vD6zue2MQ1jlDklKKD3zgA3ziE5/Yl4XCMDLpvGji/QsnQPQHJr4UBJ5OIuEB2lVr3Xx9k6vzC0ihEirC2PDfXj/3zEipzIGJSQ6N6D1dZ2stwoqdeB62IuM7PPg3rr8xq0lPPPlf/urlJzwBAodwJDPopCDrUhBOY99evmYrQFryCNQKiXUZQGtis7vFLXqawPdywLci6V1IOqXFNXQbGfm2TCNgu3VvAelE+m0EWEvc51TaEISHdtfaysrSs1/5ylce//a3v43Wmna7zeTkJI1GY08/N45jopT+cXp6mn/6T/8pzzzzzL5co6wbPEmjDuY9Pc+jVCpRk2Ig1JwL3e7qpfmF2ot//TdsNFssr6zieQGe0jhjEcZSLhSZrI3z318962amxrn/wLjYq3sL6q5+brLmpX6sVColSk5pjbx3ZO+WMio9Ahj08K7vdnqhWCxSKBQGUrPPZqAhKWn1u1xDEB7aXWnz81fdv/k3/4bf/d3fBRJ1JCnlQGq+t/KQaq1pNBo8/vjj/NAP/dC+bZfN1mOrZtd/hUprTblcHsj1XVzfcGfOv8W5C5dZXFsD7VEoVUEKhJVIAUJDbAXLa+usra2xvLrEq+cvuPcfPzbQdV9cab20sLKMknc3CA+CQatSqSQgnAJpAsLytkDYpjXkXgexs8vmrGKx8HSxWHxiUI1z2ffodrtEUX/vOawJD+2uszffPO1+5Vd+hW9961t5VJaNNzSbzT3//Iys4+DBg3zuc5/b12t1LQgP6vuXSqW+3+fMwrJ75fQZzpy/yEarQ6EyyuTBwwgvIHaSdmRoR4bIWkJraYeGervDlaUlTl94i78999ZAE8NhGD6yrxix9hCEF+uNlwYRCbseIL0dAL62q/ra/Xq7NumJJ33fH2gkLIRIQbi/+ephJDy0u8peeOEF98u//Mv8yZ/8CdVqlUKhQLfbpVQqsbm5SaVSGUi67e0sG2H56Z/+aR555JF9PTSazUkPerSm37r77ErdvXr6TS5evUIkFCoogPZodyJiJ0F6SM9HJoS+OCFQTiCFh7UtVjY3sRcv8srcvHt45uBA7kEYhrcMJHc6CEdR1FezURAE6Vo5lFLEvWB8q5Gm4zoHcbeRcOYc3urn3xSEU1KWMAz7BuFhJDy0u8Lm5+fdb/3Wb7l/8S/+BX/4h/83J06cQEpJt9slCAKazSajo6MDGcG4mXU6HT784Q/zz/7ZP9v365YdateOkPR7SPU7b31lcZnFtTrOC/CLFaRXILKCjWaHTuSInQLPQ+gAKz0iB11j6RqL8AOMVCzV68xevMT5zcZAPIw4jvNa4N1sxpi+U9LZ/c9GoDIQvVVnr3fmuvdnv4x2g4qEs2g9qQn359QPQXhod7z95V/+pXvyySf59V//dc6ePct73/sgS0tLOOcIw5B2u83IyAjtdnsgZBy3EgU8/vjjPPTQQ/s+bNoLkXnnXE7fuNYNb5vI4I3FDXf+6jxrmw1QPmgP40B5AaXqKF6hgNAaYx2htbiURlB4yb/txA7heYQ4FtbWWFhZ7Zu5a3Wj9VgmxXe3WyY72I/1ppQHmT3oB/D2gkjFGNP3Wt2R6eis5tTpJLNkUkqCILhrH4psE2eHW7+bSQhBu92mVqtdRwV3J6XbLl++7H7v936PX/iFX+DChQtUKhWmpqZoNBq5GlImTdjtdreRyfdjYRgyNjZGt9tlfX0d3/cplUpEUUQYhvzET/wUP/qjP3rHPEvGGLzAIzQOZy39CikVi8V8H9UC/7Y7pC/PzbHZ6iB9H6QiThV1wk6I9NKoKBkwQWIxOJwlJckQ+IUC7bCF8gNa7Q4XL1/i0PRU37qvziXkDFrd3Y1ZgwAr3/fWtNa1qN1EqiDvk9C+wtm3B9KEOCRGKS8BcykRInEM+uk1CIKAQqFANIBnJooipDG0Wv3zbd+Rbl0YhrRarbwoHsfxnnj0d6tprXPxgt4Rld7W+/1sKysrp77+9a+7z3/+8/yH//AfuHr1KqOjo3ie9440XpXLZdbW1ojjmOnpabTW1Ot1pJRMTEzwMz/zM9x///373pvJokNr7dty+77Th3g7jDDOIZRONG2sSHiZRc/85rXRW0rzZUWSljYu4Ry2IhEn2C3vcI9zOnuvnA+3M0p0q/vgdtPRe+VcDPLzB7VOd2QknNUYPM/Law573WxzN1kURXkEpLXOu4eztdyv9nd/93fu5Zdf5vOf/zxvvPEGKysrFAoFgiAgDMOejMjedrBmoCWlzOkuwzCk2Wzy5JNP8sM//MN3RDrBwQnXM4M56PXZja22G4+98NLrWLZS2tZahFJImY2tbBHr72RxHIMQIAXWCTqdTt+z4bVqcfb0mcsI7v7GrEGAi3PUsvfa2l8Oa+27FvntRQNi1iV9z4Gw7/t55GuMuSc6Fge9GbXWebentZZms0mpVNp3GYXFxcWXvvOd7zzy4osv8uUvf5nvfve7SSpISkqlEr7vY4zJD+zk7/b2mjqdDqOjozQajXxMwRjDpz71KX7xF/+XO2YzOjhxLa/vII6ofmqK3W73+U6nlZZeZKruatDohFjfOmRPvlyQzJDKlOVJYrEioZSEreaZQUhUCiGQ4u6vCQ8ChK/dA8n+4q4A4ew9Es5t+g5c7kgQ7na7OOcIggCtNSMjI9wL83uDsoxs3lqL1jpXhKnVau+6HurS0tKzly9ffvz8+fN85zvf4fOf/zyvvfYaGxsbBEFAsVhkdHQ0j3ja7Xa+F7LvtNfRfFZnztLR58+f58EHH+Rf/+t/zbPP/v6dc9jCbLYX8qjlXQbhjIfZOYuUpEIJyVUpHEkb1tZVZuAr0uyHS++PMQaMRQmNtDF2AIkyKWXCd+zu7vNhENHdjRqWBsnM9m5Hwgkt7T0cCWfzWe12m83NTV577TVeffVVJ4Toa5bsnbBCoUC73UYpRb1eZ2ZmhgcffPAd25rJIZdEPr7v52pCQghefvllvve977mbHbL9WFbHD8OQTqfDxsYGly5d4uzZs/zCL/wCb775JouLi9TrdXzfp1gsUqvVtnU7Z38eBEGuWiREomMbx+Ge779Go8Ho6CiXLl3ivvvu48tf/jLve9/Dd1RKZlyIF37rD/5rUpoYUH0r2x+7PeyEEGipkCl/tRIOg0tB1iWyCT3cxiIvPdhcvEiKACssOIlSHtgYO4ByVRYJ27u88jWIslQcx3mWMmO+klJiU5nFd8My51AMeJ3uyUg4i3ZKpRLWWq5cucJv/uZvEscx3W73HRlDGdQNdM694/OkWf08+/ysy3x+fp7f+Z3f4etf/8aeZzIy56nVauVOQfbSWqO1ZnJyEkgIJTqdDsVikWKxiNaaZrPJ6upqDsbFYjEH93dq/xljKBQKnDp1in/+z/8nsby8+NLk5PSjd9KzpLVGKbVNT7hfLO4HhJVSeL5GdLo4l1IdykSSlQyJAAAgAElEQVRCDkRCztFziOeALJI0pyGR5MMKpAAlJNbYvgkVsmf2Xih8DSIdnYGwcyJft+S8sfAuNWflZZcBvVd2ht+TkXAyKhBjrcXzPKy1LCwsYIyhWq2ytra279M9SimazSatVusd4TO+9iHLNmR2YNZqNdbX13nllVcSbdmb/P9BPORSSjzPw/f9bV5l77VlmYPMsep0OkRRRLlczjMiYRjmKfY4jlFqb4/KOI4ZHR3l9Ok3+dKX/mc+97nP8S//5ZPcaQCcgV52kAjBTcdHbinTIQS7jTeUUs8ppR7PyRqUAKdIq72p7rHZAmCxFRVbsXV/AIROxPyMYyAg7IQFJ3AyGYXKn+dUBu9OkBG2qXKQzdSMdrjoQWRErLWptKMGLBKHlGCtwDqQSFzqWJFehsvWUoJ1MgFul6gYJX+/+wzcqnOP/W//5x8hnUQ5RzLTlqiHuXwNknKDvEYS2l1TxXbOJd+HVImJu3JO2N4EhEFrSaezBV6ep/A8RRh28Lw7YY7PUi4XsTa+ZQ1b5xzGmL7TH9n/F0Lk0Vw2YjMIzt9dHnE4Z27Y5R6GWfQOQeDlKefsvLA2Tg/x/g8QKZORo1KplDewaa3z9RoZqXL69Bt8+tOf5stf/pfMzBy+YwOkcqmEFI5uu40s+f3XAgV0nOXq6uqu/v9UZfSzf/hXf+PCsINXHCHshKCLKKERMgVm4xDE2wDYIXFCYpGExqIQyXxxp8tIeYSV1XWWWuGzUyX/s7v9btVa9eW5xaVHtPaJjcW5LJslILa5UxmZ8F1F5N50vUsbybaEAyUoCc4lkoXOoUUSFOAsWIcnfQ6Nj/W1ERaXlxKn2hqEsMTW0e22cQKU8hJhhxTcVFZGcDa9j4rQWkq+Ig5bSGuxzlDwNaXS7uhQ24bnO80QzwmktQhhccRYIdM1kqnE4lafQeL4SWxPM550Fl9JZGTRwlEtFSkG/VG0Dhmzhja06wA/pFqt4pyj3W7njsnGxgaFQoGzZ8/y4z/+45w6dYoHHnjgjs5QFgo+SgmEzMoBtm/8CK2j2d19XT4j4BFCgFQgJMZJImuJe5y05NB04LYA2AiJUhqURKCQUmNxxMbS6oSP93daCpQSOCGSDnyRpjdd2sxkk07sd3dD2DRC26qVZ0K4WUTnSLNNvf/LmTwrljUe9mOdKM7LNtbFgEXLLd/EsgV+uU4vSWbDGLutluxriRQOLQWVXapzdeKUdhSBchnQJlG2E0mlGicRLgHjbdGtk9ujYecQziCsw9cK3WfH/BCEhza0HUBACEG1WkUpxfr6OoVCgYmJCRYWFnjooYf4whe+wI/92I/d8SXCcrmcgJ4jPSz7zGcIiEzMZnP3c7me56F7sjUJl7/Z6roW9ib3byvFrpTCWYExjkarPyIXLdWTnudt1QMReX1TCAFiMLXnPYfpNGskexqweuv4/bIPrll3otlqEVmTzGqnZaXeTvzUh7nB9ZltykvZ85hNwuzGWq1O3ryZf07v0yuyfWVvYf2StXLWUioUUH1mj4YgPLShXQskKVF81rDmeR6NRoN2u8309DRf+cpXePzxx++KHp1KqZwfIs45tIT+yE4EBsHGZp0V607tKjr3EspRTDr721N+2TpEd75GmSvvmJzkwzlH7CyNRn+9F+Ol4IVCEOBM1EPiT+4UCCFIpIbdHbHHszKYw2JtjHMGpQRBwftSP+/d6sbnms0WJouEzda926mUthUd99xHKXCY/P8ZY9BC7kqda9W5xxrNNq1OF6k0uCzFfIvw1+P0Cbc1HeKcS0tW/d2LIQgPbWg7eLqFQiGnwJyenqZer1MoFPjVX/1VPvOZz9w1TbLZoZY0pNiBpCKFEKxt1IkNT+3m/weBhxJpRORs3siXRUM3M2MMIgXefCxGCtYbm4NYrzVrLcI5FAKFQNgkPSklOWf5fgfgzBQCrMMZi5aSwPOZKBf6Go/YqDdodTtkNdVeda6tTnd7QzjKu7OtQziLiSOMiVBa4klx2w6ChcfqjU2arU5ChSpuBIH27d+l59fCWZwzVCpltOLpIQgPbWgDtKzjfnR0lG63y+zsLA899BBf/vKX+eIXv3hXTalUSgW0FNua9fpyYACHYH1jk65NqAtv10YqFXzPy2eAZQ+ZSG8klR2mTlwbuGxp1zoBsbMgJfXNBlebYV9h6oGR8njg+Qjh8vR977SBetfFHeQtHfECi7AuoT9xBoRFa0mh2L8Tsba+QRRbpPLSESWZR7O3sr+kSjIZzhmE26rlloslJrS4bQfBwKl6o0mj3Uka6YRIarxuBwAWNy93SJc6CtZRLpeRkheGIDy0oQ3QhBA0m808YpienubUqVP84i/+4l03JlosFpMxMS3BGWzcf03TCFhvNOmGu0trVytlSkGAJxVSJF3zGIMxcVIbvoX719vcZV3SJby+2WBjs3+Bj9GRKloqbGwQWLSSCBzWGuy+YfK4Pt0q0pfsLcZah3AO6cBTmkNj1b73+OpGHWPTLmhrcXKL3z9hHctS0DtHxEIInDHJN1CAiSn4mpGR8q6vqd1u0+l2QWocEisS5y1x4NJywi26Z0Jm/YKOYsFnXIghCA9taIM0rTWVSoWlpSUmJyf5V//qX/HzP//zdyVPQ+ALfE+hlMzn7/sxJ8A4aHZDOvHuAOm+UkkEvkbJNOpIR9d66TCTA7SXtCP9tyQNQEopVPr31iajL61Om80BzOQfmhgRGQgn0a/IIz0TvvuNWW/fXmTTprJkVlamkbDAonT/W3wldKda7S5WSITSuDRq7G3QuhaArstkCLdVo04lM3zt7boz2kItjA2hMSDUDTMoCLute3vHCDh1ElTaAz8IYqghCA/tnox0Pc8jCIKc/CN7mKIootlscuXKFd773vfy7/7dv+MLX/jCXUuUJIBjx47Sam5SKRV7aCB3f6SooEA7jrlw6dKu3mHN2RMHp6bptJvgsnGVeGs+/Jp04RYWJ8dZr0RnHMfowCd2lkJlhNfefJOF2K32u27lYkDB19g4SuZfnUHJrOa5/0y6rYiPdAQoS+372mOkXKFcLPZV21wL7Ym5pZVnVuubSKWJrcMJBUIRxwmxUqJwZXOGswQNkxEgl44rJRmoxJXodjtICWHUZXx07PavyboTDrh8dR7tBdg0FZ2lo63YAbKdfFv3JuvWLvgek+M1lrvuqf6emKEN7R4zKSXNZpPNzU3GxsYIgoDNzU02NzeZmZlhfn6en/iJn+ArX/kKP/VTP3VXMxUqeG60MpJEclGIM1HfQGwsdKKIjebuos6akLOlYkDB8xMyG7d18Amtruk9FtdFwypNeTrnsGSHbiJrGBnDSn2zlmkp79ZmJsdEpVRGS4mNDWBRan9Jgbob7FylZTJeZWOcifG0pFwurU1WSk/2t5kESyvLOJFEkvZtruHGFy2TtdQCIUFpgY0No5URCn5w21SINSlm1zctK6vrCKmRWuWp6F4AFmmz1ds5q5ll+vWVSoWRkREmA9HXug1BeGj3nBlj8gdoeXmZIAgYHx+nVCpx/vx5vvjFL/JLv/RLd8Uc8C0cAC9MTNaQwhFH3b5VZhxggE4Ys7C0suv3GR2pUC4VcWnKV+utud8bH95bThZsV3OyaYNWZCwLi0uEhpf6XbtKpXTS93US1QmH9iRaS/Zaz3oQmaCMfU8IQbFY5MDoyPhu32+53X0KoBPbcxevXk0cn5SJKnltj8iz1/VOwxZ/uZYK4UBLgTMRk+M1DpT0rq5xeXWV5dU1dFDIo+AbCSreCiA6E2PiiPHaKONj5UE8g0Mb2r1lSikajQYrKytMTEzQbDZZXl6mWCzyuc99jl/5lV/hE5/4xD0hUi1gdqw6itZ6W1q+nyPFSkVsHAvLKyxEu0v9jpTLL1cqlZSkI95G3nCzSEX3HOZZh7RDYh2E1rCwtEKrE9YA1rrhriPiWrU4O1KurBX9IP+8/RQJ73x3knEkYyIkjlIx4L7JWl97fbIYPLlm3Yml5WXWNuoJ8NLLMnXra2IFqeKVy++7EILJiYldX9/q6iqtbgfteXTCeCvtLRKn0WbNWZk4iNiSxbzhdabTEwXZ33jSEISHdk9aGIb4vs/U1BQrKyuEYciBAwf4+Z//eb72tf9VnDhxQtxL61GplKgUC2Bigj5B2AoQUuOUZmV9jZW11q7GlKZ9/9GxkQq+9rDG4GyMdXEeqdub3CHpthqUbHromhSMV9bWWUpFXmqBP9vP9z0wOTpeqZQRAqIo3HMZzX4BOAOQTIO7Wq0+PYj33mg0z126chnjXM63bMVOEae95rUTwMWpEpbDmYhiIaBarez62uYXlxOu73Rm3IqES9vu4imXLhmZ01JRq44iYLb/+zK0od2DFgQBq6urSCn5+Mc/zjPPPMMv//IT4l5bBwGz5WKRqampgejIQqoS5nls1BtcunJl1+8zOjqaipzYHDjMTag1E0ajrfndLHK2JHMlQita7Tbz8/Nc7nQH0kV1aGpcFP0ArLsjaCulhFLBT+qZleKTg3jPxaUVlpZW8AvFtOmp51Fyb7endh5Rsi7Ox5rGx8epFEu7chYuta27dOUyTqZzyqrHybzNgrXI2dgcxWKRiYkJHJzo+34Mj+Oh3WtWqVS4fPkyU1NT/NzP/Ry/+Zu/yT/8h58U9+Ja1ISYLRUUhw8dQgqBGQCIWJd0n7daLS5d2j0Ij1VHGa1Wc3nL7GfvGep2jKTS7lupkVJvdw60h1cImFtcYHFheWDrODo6+iOVSgW1L9LRb0/JWCgUGB0d5VCtMpA9f6nedHML83SiMOed7sU3K7itqFOlVKNaa5xzTE5OMunJXTkLc4sLzM3NEQQBYRylTqa4AQTuFJ3LHTNplUqJ6ekpJP0RdQxBeGj3pF29epVPfOIT/Pqv/zr/9t8+JR588L3iXl6PIjw3PTaG5yy200I5e02HtNx2sCekDzZ/bYFi2vRiLShJO4pYXF9juW12NcJRKQTPVQoFfAfKWrQTiHSsJGmu6WkA6vl/ziTznoosEs7UehRSexQqI9SbLRbX1phvhwOJhsdHSi+MjVRPFvwgFye4GfmD3YPXtZGbyGZbcenvLcUgYKZaGtieX1xdY62+CVqD9q4JMOUO0fA1ToLYUnyS2GTGG4GnElaqWqXS37VtNghKZWLjiFMylXRHILA9TWK9soWpMpdIrj37NwKL7XapFAImRqt9E3UMQXjPPdGdX86J615D27LMAzbGXNeMo5TCGEMYhjjn8Dwv4QfuUWppNtsY4wCJSqnz1tfrtNtdpqcP8h//41d55pnf5p/8k58cLnyyK184cfAgo8IRxCHamRTi0sOI3kYbiUxJHlT6U2BTKUGFFRLfU0RRiKoUOb+0wPmllSd2c10qjr5x/OABCsLh2h1ct4svFDiNRWPwMUJjsg5cEYOI8aVCOIkzJK3aTuFQRE7RiQRWeETC4/zlq7y1sDi4rEKlOHvy8EFRLhbwlMBEXeKwC9YhSdKh7XY7d1+cSF42fTkpk5dgS2Jvh5fFXPcyLsa4mNharHVooQi0jxYKjEE6qBSKTNXGua9WHti+nwudO3vxEuvNNsIv0uh203pwkqVwO5yLwm2xZmWOwZZDZ2m3W2gl6NTrHD94iIPV0V3XrV85fRZvZIzNboxfKhNGSdOXwKBcjHTxliPpRPI3ToAQOJmMt0mt8b0CnpC4bshkpczMaJXpsnp6UGgxtKHtK+t0Ovn4hFKJLF1WqzTGEAQBmaRcGIZYmxABKKWw1jI2NobWmm63S6PRwBjD8ePH+cIXvsDXv/51vvjFL4rjx48PATi1CSG+MVL0mRqrom2MslvMQdk8pb2mK1m4NJLoOWWzWmAcpw1UWrLabDK3ujtujPFS4YVqsUC1VEDh8LUGa1OWpS0N4eQaM+rBtBXrukg0I2cQNDsxlZEaoRVcmpvjQqMzUIaNSqn83Ei5QqVUxtcakSo6eUon0pGyp1addnAb3FaqXSYMUxnT1LU/k5jRpXPQ6f+TImcKEyK5B51OhzgK0UpRKgZUSsWXZ8aKA9v3y5F76q0Ll2h2Y4RXILSgPB8HyOtG3eQNfvbmBRIrFXxMFFLQmonRKpNlf1ep6PMd5xZX12h1Q5yUdMI4GXFLJQvzbE6qoZ3pGwvVSxqSlDfCMMTGBl8KpDUcmKwNJBU9BOGh7c/0aLFIoVBASkkYhjmrVfZQ1Ot1nHP4vp//m1arRRQlNZ9Go0G326Xb7VKtVvnMZz7D1772NX7jN35DfP/3f/8QfHewsZEqRw4dBpswGiWUkLc27yrd9elXIQRCKRrNJmfPv8WKc6fW2rc/DnSwWhHTk1N4SqAEKdfxraR7ryXi3/p9zmEsBCvLa1y4cIml0Dw7qLWcqhY+e99ERYxVR56rlIoJ6DqTKC3hiOMQY+JEiUkKtJKJOLySKJl8TyUkSsodf0ohUEKilUJLhZJyS9vYxmAM1sQ4a/CUplIqMzpS/dL0aPDoIPfMwtLqE2fPv0WnHaI9n9g4hPK2lSqydG/vXHA+HrRtlnhrntjXHi6KGRkZ4cCBA7u6tvnQutm3LrK0soqzAq19hJL4xZtIITqZj8Plf2QsJo7BWhQCrQT3Hz2CsZwaxDrq4fEztP1m7XY7j4Az6bqMkB+SxqpOJxHpllJSKpWw1tJut1PhBcEDDzzAP/pH/4hPf/rTfPzjHxdf+9rXhgv7NlYqiC/dd3jmGfHdv2endqeEBQmUu7lXL6VCYbERaKU5c36WK4vrz3zgwO7mUQ8fPsxbV+dohF2k9nGu5wpTvl/ZG00JmzMvJb/fasaRzqE9RbvdpuR7YGNmz79FtVR8fNBrOlUtfHa11X1MK/F8s5U4knEcJlGrFAk3tkxGZaw1WAPWxTkvscszDNt/mjjpHEYmQCzk1ly0kOBEjNKKIAgolUrMjJcG7ngud91T3/3eaeqNTZwugFA4YTHG5E6PdLcf4wkHJg5RwPT4BCcmdicoIaRYOzf7Vq3TjZBeMaExFYpWq4XSYkeykKxuba1FiJQUxjpAJI5UbImjLtXxCseOHEFYNzuItRyC8ND2nWUptawubK1N5MzStPTa2tq2WnCr1SKOE8/5+PHj/ORPfppPfepTfOQjHxG/9mu/NlzQW0uJvXDowDTlYoHQkdbJRApkchsY92K0dOlssAMpLDZtBJJOEEWGSqnCwuISb86e3/W1PTA5Iv7oxe+4jatz+EGANXarv/VGToHove7k19nBK6UkshYpPTwZsLmxyuzFS1xYb7pjY+WBAtZ4KXgBEPPrm67ZbNKNwmSMyYGzhjhNM0uRSP4pkUa0b2O+p1IiEoOJt4TvZRoRB4WAYhBwaGp0z7I+Z86/9cSVhcW0EUthUp5oE1u0TNZccIMpoAzsxNYe6s1YRK0OY8Uy05NTu76+ZhjV3jh3DicVSvu0W11KYyOsNzbxlL8N9K91No1xZLLV1lo8qSj4Ps6GRGGHQwdPUCvKH8EMhhltCMJD25eWabNm2r5ZCtHzvNzbDsMQz/M4evQoH/7wh/nRH/1RPvnJTz49Pj755K/+6q8OF/G2FhymJieYmhxnba2eAtdNtHHdTnViMLHDuRhrQHs+zTjmjfPn+7q8mYMHubqyhgBCZ1E3OOCTiL2H8UikLkYaHQvAhBHFYjJ/HDmDHxRZWd3ge2fOsdg2L00X1aODXt6DYyMCYGFjc7Xdbtdia4iiOHEyjUVImY5UyST1+TaWPQOxSUgtpJQEgU8QBPjao+jpk7VqcXavtsprl5fcd155hfXNFsFIla6xWAPS1xjTReRORNZbIG95JDfj/z44OcH0+K54XliM3UuvzF7g4tU5rF8iNCZJRQcBftjNP0dcs29cz9mTNMtKVOpMCGdRqUTmyWPHBtIVPQThoe1b6xUAV0oRRVHeYOX7PjMzM0xPT3Ps2DE+9rGP8Y//8T/mxIn3iG9843eGi7dbDDacmKpVv3R45uAzZ1bXE4k7EtH37VElWCFR15DdJ8lfhyOReXNO4hcKtMMI4QdcWJjnv1+edx+/7+CuorOZAwc4ML/AwtoayiVNzzsBsHDXBsfXa8U655BCE8VdrHMUPJ9uq8nc0jKzFy89stLsnJooF76xF+vcy9G81mifaIfdc91uN01VJ7Xcm0XCOIkUjsDXaK2ztPOPpFH3ntrFjZZ7+buvsNnu5FFwr1CDUgp6Oo5dDq4pEO+kXNRTu5fOMloqcXhqipmSt6u90rU88vqZWdrGUPADuq0Yv1Sh2WwmUxTXzHJfO9OsVOLkiDRrgjWEUUhZGqqjZY4fPcyydU9NSjEQopMhCA9t31kmJ+ico1qtUqvVePDBB3nPe97D8ePH+eAHP8iHPvQhDh8+Ir71rW8PF2wANu4lnv3/8ed/8UzSMeoQIktJ72Q9NVcn838mXHqIOUupFNBYX6UUBCzX67xx/jwrzp2aEOK2Ae5QUYq/OH3eLS4voZxKIX+LkvJaIIYbEyJlnfNSJAQgnSgEpYmc5PzFyxw5MPkM8I29XvNapTibLfBao30iCsNnY2MesbHdcih2+FkMCk8LJWcnqqVvvJN7ZL4du9ffPMPc0jJesYLSmtCKtB6chJJKKUQcpt3RIh9VyvfJdbuo10lKNK9GyxUmRqu7vs71RovTZ2eJUQjPJ8YwMTrG0vIKXuAhrEkzIz0z7mw5B9n+AIdWAhPHdDstygXNWGWU6fEaUbv9BHDvgnCxWKTRaGCtpVqtsrCwwIEDB6jX6/kc6btrb9+Q4PtJTWJ9fR3f93HOsbi4+NL09PSjN4oM83ceACOPUkljShAEWGvZ3Nzk0KFDLC4uEgRBrsW6V5ZFudnL8zzK5TK1Wo1KpcKBAwe47777OHLkCNPT0xw5coSTJ09y+PCRYWfzHtuHHn6YP/3O33F2bonxA4eZX9ugPDKOwWEtSCW5pVqYFXTCGF0o4mRMo9nh706/ySd/8GPPrDo3SzvkdiO340ePMjc3x/zaBjoooDyfbhTiUHhB8uve6Ou6p3Er35iABWkNW3mgLLFzbHQ6vPid73Dm6rx74NDBd2y/pYD86H7dF8uRe+q1N8/x+tlzKL9E11pcFKcz2nJbD4fOolsnr3PirEjS6e12O5mlTjmiA08TmxhhDQ+eOE4pKJzc7bX+/ek3mV9dB+UROYH2A1bX1kElPSTbTlDhuJZBy7mEfrQ2OoIzMU44ZianqC9c5n3/46PUKv6XduNI3lUg3Gg0KBaL+fjKyZMn+aVf+iWOHz/+tkor+wWEMwq+MAxpt9u8973v5UYAvBemtc5Vc4IgoFKpsLGxQblc5md/9mc5fvz4nn6+Ugrf9ykUCvh+UssqFAqUy2UKhQLj4+MvT05OP8rQ3nEreJqZqUkuLK2AiSl5QcLH7NKUtJOpCLtN2YVsDm5Z05aN038rBEbEKKkwSrHWbPDmhct86v4jL6x04tse7zhcUuJvzl5yzU6XVhhhABsbImcwzmLJqA5vT7UnP3zTBq655VWUmuV7V5fcPzg0dc87fnOtyL1x/i0uLyzglMaIhKnMiF6lpISVKx9HuoY1K+uuB/K5fmcihLMUgoA47GDjiAMHp6kUAmrF3QlrvNU27n//wz+iYyzO9+kaS4xAeRrhXBKhO7PVUZ8KfWRZk0xVKQgCOp0OWEPFD2g1NxmtFDh+5L6BzQff0SAchiHFYjFPWx48eJCPfOQjvO99Dw8jpVuwOI4pFAp5jaRUKrGyssL4+Dif+cxneP/7PzBcx3vURkrFp08eO/rEK+fOE3c6FIMikXC4yCC12ga2W41P6UGW/T4yCK0QmXi61sRas9po8HevvMqCc6sTQuxKG/bYkcMvL62sPHJ5foEoitEqIfk3JgKptoDVyetc4bwufAOpulhIrLMY4MryCkJ7vLmy6R6cGLlnn4f50Lpz5y9y9sJFNhpJHdim0e82mE1Tu6K3RJGNWolUQCPVcTLGoLXG2BiEwFPQjbv4SnD86GGOjFd3vd7nL13mzbcuEkmFFxRoG4t1Ao3CWpN2LdwgOEr3tYkdgVeg3WrgCSgWiiwvz3Hy5BGO338fNSEG2vR2R5J1lMvlXFUlY0q6E9RL9ou1Wq288ziKojwlbK3NCdiHdm/apCefPHH0CGOVMmGnhRZJZKOETBuuMinBrclcm9EpyhTcXNKcZXHECGKpUL5PM4r43uwslxbXa7u9vulAPnpkZoZyIQATp53BAYHvI0mYohIAkDdR79k6eJ0AI7eEBgojY+D7zK2s8erp07w6t+ruxb0w1zXuzXOznLt4kUaniwh8nNI5sca2KLiHQCVjWNvi+Jbbuo+FELhUzxhn6HZaaAlTE+PMTE7u+novtmP3nddeY63ZRHo+zvMwiFzCMI7jnN5W3oDsxQqITJxnVLXWOGPBxDxw/H7GgsFQVd7xIOx5Xj43GgQBUsrk4Rvard30NBWulMoj44wGcn19fbhA97gdnJri0PQ0LjLYKOnW9bWXAqzblrbrBbLsz5RI+IGdTXh4LSD9ACsVqxsb/O3fv9LX9R2emf6RifFxPC0xcYgUSZ9FQlsKGd+1FVvpc2FlD01hfuQCNm8eMgKMkMRSYJRPK7ZcnF/kjbNv8fp8/Z4C4kut2J2dvcD5S1dYa7SxykN4PmiNSSPb7P5vF/PY3uyUR8w9kXF+/siEPKXTajBaKXH86GEOBWrXUfCVhQVef/MMVirQHrF1/P/svXeQneV5//2576ectr2o10WoIrCR6N0IHIztYBt4Q+KSPzzYf2QyScYlM/Z4Jpk4Y/9sv048eWcCb+I3cYkdcAOMKRIgAaIJCSHUy0pCZdW272lPua/3j6fs2VWxUUEIn2vm8KyW3bPneZ5z7u99Xdf3+n5DUVi2izFRBm5Z1kmV1kzN+hiGYZTgKU1xaIiWxkbmXjznrJeiL1gQrlQqaRYchiHVanWMzFg9Th35fD4Sko97M4lfa7KpqccfdzlqYHkAACAASURBVDTmM1w8ezZNDXkCz0cCPyU8KqXGZEC14Fu7yQMwRlDKIoz7h9rN4Au8tXEzW4+ePqi1OWrFlEmTaGtuIvQDqtVqmuGgkz5ltDMw8YbgRMtdooudvP4kIy4GAR6CzmRQjkvPsWO8+dZG1u7Y/0exyOweKMvWnd3s2LOHkUoV280QoPCCEKPVGInJUSAx6SPiDNRoezMqzmHiue2EPKtVRMqaMmkC0yadvjjH4UD6tu3cwdH+XpRl44tQCaL5YGVbGAXatlIFvlMneW48HukQGp9ypcjMWdOZMXUyCs76/PUFCcK1rNpEztBxnPrq+Q6uX1JuSTMbico1dRCuRwa+sGDevEixyASYMMRSisD3U4BNst9kCZF0gY3eV6mrlWNjRPAkROIF8Vh/H2tff+MMs+HOL8yYMYN8Pp+yckMx8Towal94cpWI0YzN1LoUAaIVvlLgODi5HCHC4d5j7OjezSsbdsrRIe+h9+u97z50RLZu386Bg4colqtoy0HbDgYVOTTFUFtb6k8yy8QI4UTQUmsAkmSZhCGWEiZPmsj0qVOY6mROOwvesWt361ubNxEqRYjCSLxZ1Fa0RYiTjBMlazLO79gYk1YJjTHkMlkWzJtPQ4az3g++YEHYcRyq1SrlcjkmZYQRk60ef3AlIemle56XZi/JNa3HH3e0K/XgzM5mJrQ2RRrQoUcgHoHxwarJKpNSL5Hfr46FPRK7PQBbO1iiEU9QxgYyGCvDG9t2sK3n9LPhdls9OGvylLWdjQVylkITIsZHWWBUmAIrSk7ob1tbko63EdFDGTSRFaIfGPzAYGezZBsaGa5U2bRrF5t37rxn96H+91VWfKzsf2vdtl3y+ltb2bFnH6UgwC00YrRNxQviRCeDNoIVy5pqYZyf9Lg9z5iefHR9NYYw9HFtCyTEQpja0cb8lpbTBuA+kWU79h5gx96DaCeHL1FFQ2uNrRUS+KggQJuQMPBHiXk14BtZc0ba6L5XRltgSYAjhrbGPF1TJuHAw+fi2r9HQfjUfry+H+I4mdQrVmsb182+bxfFlExQ45t7JpFYniUjSkk/PZfLnZU55Hpc+DFFKXXl4vlkdUhLa4GhYh+tE1qoGi/KasRCiY0lGstobENkgygBgfIQW9DKoCo+dkWRC7PoIEcgOfqrmj39Izzx2jp6RU7biWZCTi29YsFCmh2HsFwkn3MYHDqGZYdoKyQ0FTyvhBEvrQC5lh2N0QDaJAQdibyRxWAbwRGFg40tVpwBgq+gams8x2LLgf28vn0br27fK/uHSxccGI8fD9tydERe3bjjq+t27GVf3xBSaKRqOZSM4AFK21FPPTDowGAbg23GkpuSloNBo4zCFoWjLWwV9eI1BqVDlAqxVIhtgQqqzJg4gWsvnnNG7PMdB4eWP736VdzmCXhWHpwcoiJqoAoDbPHJ2iEZbVB4gCHUhlAJ0TSVYBvIhAFuGFDIOgwPHUO8EXL4zJ3UyeKZHWs7lbr3jwiE61GPepzvmD1lKrNnTGNo4Bj5nEOpNBKV9FLhfRUbtOtYXzfKLKPSbpAatttGYRkLLRYiLuK4DHg+3YcO88auQw+cyWuc2tGg5s2ZRc7WDA30UshnkTDAGA+lJMpoLAvLjl50OkUhoxlxQhmyZPTflhklFCUzsaFSBEpTCgKODg6yc//bbO3ew6aeo3Kk4r9+wVQ6svaD/SJdW/uq8tyWfbJ+6w72HztGWTR2QzOB1mNANZWkjGeArRiAk7Gk8daEtd7fkgq7mEipSkIyrkVpqJ+pEydyydy5p5+9V+Vb+3yRla+8hm+59BUrYLuEepQQpsRgSYAlJt0MRO9REKXisSQVKb0JWGLwqmUcW+EoQ961uGTexUzQ6pzpFtRBuB71qMcJY0FHs1q8aAGmWqUhkyOselFGI5KOoghjxe9PWdGJF3MnkwNtc+DwYd6I54bP5HVePme2mj5lKrYoXMBG4cR+u048OxwRysA3IUZpQl1TPhWFFp1myKM9zhOPsTQ1NYFWHDnWx5Zt23lzwya2bO9esuvY8AWRFe8d8qT77aO7tu3Yzs7d3Rw+eoRSxUNru4ZbE5nd64T1rBLms6kpOdeMgqUiLhqjLUJiNSzA1uBqK7onBvA8WhsKzJk9ixnNDaedBVsuD+7Y3cPGTVvwA4O23XSWXY3RNh9tOJiEsZ285pg/IDUEMo0i67ggQmd7K5cuWnhO70ddO7oe9ajHSWP+nIuZPGEiI0EQeSr5Pho78ugV0sXZJLOjytQMhCbShaMSSkYBWuHmsxRHBtm1dzfb9hxq7RfpOhPSy6L5C6iGhn2HD2HZGWL5fUJkVCbVslBipQzdsTY6BnVKIld0vkYZPD9E2y75BpvA8xkslqju3Udvfz8r1myQxfMv6p/YWGh7r93LfUNlKVU8Xn9jPWU/oFT18IMQ282irOjc/TCIVcENetwcsFGjtoOmRmEquWSjI0tCKLH7kFKRPaOJVKosIumsxQsWMHVix21ncj5DFXa99NoaKsYwXK7QOnESg9VqbP41Lr9M9c1NPL42akqi4n9bcXUk62pU6KGNYc6sLlrz3HYu70s9E65HPepx0pje2cIHFiygMjREVgkS+GgxcaZhYrGOlNZ0CoGM6CdEGSq+h+26VCSkp6+Platf4ljR23Umr3Na3lWXXHwxE5pawQswFQ+CEI0CI/hhGL1Oy8bXUSaclFtHs15Vg8vHE46SDKrihYRGoewMTjaHWC7FasCh3iH2HOjhxZfXtq5c84Zse/uw9Jb8+8/3PdxXrMqa7v2yZv0Gnlv9Er2DQwyXKwQiYDsoK7oOIQmr3cSlZhMznkfnf6Mxo7HzwOM5O6GOGOboeOMVhBjPRwcBLjB7yhQumj75C21KregtFU/r+vSJLHtt/UY2btuJLwqjLYy2Uv1wnRLHxr8Ldar4lYxRJV8n7wVtQrxyieZCnssWLTyrtoX1TLge9ajHO4pJSqlnunvkldffoGRMxGaSAME+Lhs6oUl7zEStlc0XQCwLy81QCT3e3L6VS3ctok9k2ZkseF0tDWrjviNS3bSN/mIZjIedyUblZ4mysyAelQnRUb+Qsb3hBH5PVlcWpcnkMoS+h1+pxoYACtvJIEoRIBzsHaBvaIhDRwdobGx8YPWGHQ+0tbXS3tK6dkKD9a5oou+r+HLo0CF6enpYvmoV5UoVURaW4xIqC5XqPkfXRmqENETCcRsRfYLrEF2k8YWDdDMW91yNCcDz0CYkl8vT3lTgAwvm9ycGCO35wmkZIRwZ9Jc///JrVIxhJPDItzQzUqli2e4J792odCaj70cFOrZWtFKrRfDKJTJKmN81izlTW875vaqDcD3qUY9TxkXTJ7F47hzWb9uFqy2qIoQqQEss4l8jwjA2Q6qN0fKfk3HxwwAnl0cFmlKpyEvr1tLa2rqck3sn/kFxyfQJas22/bJz734GR4ZjM/ZoTlUgAhgV9w3RUfncjBtbUozxuK3NogD8wCACoi20HWkVKIlIX1XPp33CRLxqhWOlMj2DQzg9h2luLNDS1Lzk2Te3yqSODlzXpZDLMrnBPSu61IdGhqQ4PMKI57Fj3yGef/U1qp5H5FUcIsrGshyMsgnFgMSjW0qhlEZpK9IOEIXgo2qhLLkWMroROe7u1tpJSsQ6tokckjABBSfD1AntdE2dysS8PqNS/Z6KyFOrVrPn8BHcxiZ0aCIhmLKH5WYIwyook2wrxmTrMm6DZVRENIvuf9T/dkWY3N7C1UuX4MJt/YF0tdpnfz64DsL1qEc9/qCY5Sj12BvbZfuO3QQ6kjkVZRMqE0PmqGBHVAiMCD0CNWpVNRmJgkq5Si7roJWDzuVYu2kz06ZO54ARmarPzAbtinnT1Mp1O6RSLhKYKNsNdNTG1qIxtauw6JoNwjsY/1MWIIRGCOM5Wm1ncJ0MQ16AxsYqNGDRgJKQoSCg//ARwgMe3fv341g2mYzD46+9IU0NjTQ05Mnn82RcF0erE5RRR6NcLlPxPUqlEsVikWKxyKqX11Aqlaj4AZLJR7OyEolOOLkcSikCEXzfoLVFmLhdacGyHLQIIoIRc8pd0Hjv5vEArDBgTOTVjI6K3FrTlM8xbdJELprcfEb3tk9k2eYDAyx/4UV8wPcNhZZWegeHwHGQMGYDJEx3MSixx2XsKs7iR80cEiKXZSDn2kzt7OCSmZ1r25Ra0Vc2yzgHSll1EK5HPerxB8fcGdNYeslClq9+CauhCZRgW1mcjEu54iGicJwsxdIwGcc+RTYcuaCJVoRi8AMh72bIN7fx+sbNTG5rPyuv9+bLL1avbNwj6zZuJHQdsoU8Jc8HBcqyUUqhlRWJT6BxtEZJlMWFMtYMJsmQR+2IFaDGtL9DIBTBF4kIXsqg45VfocGyUdrGzriUESqhoVgs01cqoo4cTa+NAgpu/pQgWCtMNGbboDOQzUXVCR2NkAngmdEqBLaNiTdHVmJaQWJVeWKSkNRgF3E1ISJyRXK3GB1VA5RCRBOEFRryOcJylcrICNMnTuSKyxYzuz1/xgB8cDhc/m//8Z8YN4uddfDRDBVLUZldop62dUqmU6S02D84SL6Qw9EWJqiScRyUH0Lgkc9pPnbbrUxQaumxqnyrLaP+/lx+tuogXI/3bfT393cFQfAtrfWK9vb2B+tX5PRjXntePb1hp6x9cz0VLTiuTV9pGNdqwnXdaCG0HHKZbNQHHAcTOp7QVBLN7QYGQoTACL6xwMDBo/288NoaNvcNycIzsLNLM/hpUxEFW3bvpn9gEJ0vYLsufhhGRvTEo1YSvRZLnR5PVVA12WDcWEQTqrHeuol/vI7nqRW6xlM+uUKawYoHRLOrokiPydW0tZOC73H/X41qUx2f0ibOV/qkRf+kPxptK0aL0rV/R4DA97Ftm1wuh4Qm9t4VHMeitVBgZHAQbUK6Zk7l4pkzaS7kzohh3CeybASW/+7Z56gYhU9kuBEoBUrFs8mRh7UyJ8vmo+8GQUA+myFjO5jQx9EKbUKMX8ERw2ULF9LR1ARAxzkG4DoI1+OCj97e3vt37979wObNm9mwYQPd3d0MDQ3heR4f/vCHMcbguu49d9xxxwOtra0UCgWuu+46rrnmGubNm/eOF/q+vr5lbW1tKXnosccek02bNtHR0UEQBFHZL3alShTJqtUqn/rUp5g0adI58aV94oknZPPmzXR2dlIqlVJzE2NMKutaLpe5++67mT179mm/hgVds1g8fy6vbdqCnc2iMXjVKo4bzdgaP0A7NiiDIVKhqqU7aeJScAiIoBwbrACjNG62QLUSsnP/QX636gU29Q3JojME4kktjgJ4/q0dsmXXLsrVCkoJNjaiTKpBj0j0kkyYipEkoHPCjPi4fvFYQ4sUEZUwJr9UaSV09DnTyntUvkUUlh3pHeuasaBaxyrfjEpxjgfhk9cfTpbnjj2f0aw/np+tAffkt21bo5QgYYBXKWMpjWNptBVP3PoBrjJ0tLew6OI5zO888xJ0CZa/vmkPL61bj68dAm1jsOLNho5frQEZz9w+/h761WrkxOeXIfDJOQ7G8xC/SnNjlms/eDmzcta75iFdB+F6XJCxcuVKeeKJJ7jrrrvYvn07/f39+L5/SjetxO7u5z//OSLC5ZdfLvfeey+f/OQnmTt37h/0oasFYICf/OQnPPHEExSLRbLZLMViMV6obIwxNDc3k81mz5nfdV9f37JbbrmF7du3R2VeEVzXTR2ytNYMDw/T1tbGokWLzuhvTW+w1Su7e2TL7t30l0s0FgoMViMXo4aGJqoVH+MHiM2YUZ/I12EUiIwxhEZwlYWlHYLQkLEdGpqa0UGFp196hdbODvaJyHSlzngxXDx3zkVa612bd3RTqXq4TpSloiwsSxPqaJY4EEHL77chTkAvBUc1blwnRrKxIB73nGXsjCqMsslDQCnQ2kKZUatAM06T2Sgzpg/LOEDW40DonXW7zRji1Rhjg2RvEb+3AvGplEfI2C5NjQ2ICKWhQagKs6ZMYm7XHOZ2nv5G6vDgcN/E5sY2A8s27TzAiuefp+gHOA15UBaCHVUdjCDxEWVi3p2MYelH10WiTD+aDCbwqjhKcJSN7xVpymVZPP9iuqZ3PPxurmV1EK7HBRM9PT2ybt06vvvd7/KZz3yGAwcOjNHSTky4janJcoj6fMaY1KwCIJPJsGHDBtatW8e3vvUtPv3pT8tnPvMZPvzhD7+jReMDH/gAjz32GGEYpm5eyd8zxtDf3w/AU089dU6uydq1a5e/+eab6b/z+TxBEOB53pjzveqqq7j88svP+O/NnTXptiWXXbr8idUv4eYLZGyHqg+FXB6vMohl2/gEJ80mNeDaDoFvCANBROH7IRqfjGWjnAye6/LShjdpbm1jn4g0GC5qtU6fndqaUd29ZfmCBPLA/kOHGalUMUGIqBBRDlorjBIMkZ6wwooKw2qsetZ4KJMTAKHCoI190nljajckJygFawETRkShsWYINUCoTvIaGH3+4677CRjf5rgMPybOyWjWLON+Q0FkHYvBsjTZrIslGr9SBhFshOmdncybNYOLO8+skjGxubEt6gP7X33quZXs2LMPp6kpldQcnUsP4yKDRJnw76kMZDNOdC6WpuBY6NDD+FWmzZrOtVcupVOfG43ok0VdrKMeF0Q8++yz8ld/9VfceeedvPzyy+zbty+yGcvlyOfzqU1ZGIZpGTYIAoIgGPUu1Toy9VaKarUa9YbyeQYGBvjJT37CX/7lX3LPPffI66+//gfLD953331MnToViAgzWmuCIMAYk5JVADZu3Mi6devOuqzhAw+MlV6uVCp4nnecvefNN998VsrhbUqtuPrKpbQ2NzI8PIiRAMtSVMsVvEoVndoIjl9oRgHAtu2IEBOGQOTOA5rQgGegoXMCb+3ew3Mvv8LuA/2cCQAn0Z5TD95w2Rw1b/Zs2hoaaHBcdBgifhBtmhDQCtFqDNTWbiS0jGatiYhFIuuoCdCxCYQlBstERgeWIX3Y4ejXiSRmor0dlZ+jr7WOSrtW7MSXHLUFWpPqHycPJeOPY/YFKdCeaEM0+gO1spSjIhYnKl3bGZfA8zGBT9Z1USZkZHgQS8FFM6ezZPFCLp7YcVbKuQOVcPnKF1ezc98+xLLQbgbPgGeEICbSaaWwFbha4cYCISolxY3et6RkbUI/0rC2LCxCqsVhcq5mzuwZXDyl5dvv9tpWB+F6vKdj9+7d8rWvfU0+97nP8ctf/hLbtlNQVUrhedGoRpL9Jot84jOttU6z4uQhIqnIfKlUwrZtstkshw8f5uGHH+buu+/mn//5n2Xnzp2/FzRnzZqlli1bBpCCb5o3GJP6Nu/fv59f/epXZ/XabNiwQVasWEE2m039tZO/n3wPYOrUqVx77bVnp/zty7IpHc1cc9VV5DNZQj/AjkvermUT+gGcpPyZjI0EXohtuSgsEI1tuVjaiYBYFEU/xHdcdh3oYdXLL/Pm/qGztnmZPXXyRQu65jBl4iQac3ksRZR6YjDK1LiInWBpVCa2OjTxHGqtmpSk37ONwRaDEx9tQ2qTpwW0iZynLKNjzWqdgrEWEBMg4YkfmCAF/9ENwOgx+Tod0zklGI+ey3jQHn22+FEjxuK6brrB86sVFIa21mbmdM1i0YL5TGkunBUA7h4YkXXrN7D61VdRtkO2sTEavVKjOs+1hQglnGQLODb3j4wlfDBB+vrndXVx2aJFdKhzT8Sqg3A9Lph4+eWX5Utf+hLf/OY32bdv3xjbxcQPOQFkx3HSUnCSAddaQCYfviAIsG077R0nwOx5HkopCoUCe/bs4etf/zqf+cxnePLJJ38vANx1113kcjls2z5h7zeXyyEiPPfcc2f1+rz66qsMDAxQqVQigYQY8LPZLGEYphnx0qVLueGGG87KwtjmqBUZ+MKy669h9sQJZBEylgXGo6W1iSDRCI6daThBtuVXy9iWwrEUJvDwvQpV36Pq+3ihoX+kwuQZczBWhudeXsPqN97kUEXOChC3FlT3wtltasakdloaC2QcXYNMwiib24wp1Y5fzGuzKysBWTMq/IDEMoiixxoejPn32A1KbQ+z1pv3VKVVLWOPo79rCOOjcHwpOsnCo9/Vo+czxthgFCK0jJ5jWK5QyLjkbQvxqhRcmwVdF7FwTlf/tJxzVt5nB0KRjbv38sjyFRwZHqHiG7Adql6YWrFGG2xBJMSYgEA8wjCI33865SKEGnwNgY4Y1dpWYCmQEPE9WvNZlixayLyJTbedj3WuDsL1eE/Gj3/8Y7n//vv55S9/CUQ93ARkTkTA8n0fz/OwbRvLso7LRo8rq8XfS0A7KWEnfVTbtnnzzTe57777+N73vndKALjiiitumzdvHr7vo7WmUCikGbht21SrVQC2bdvGr3/967OW1f30pz8lk8mk10fFoxqVSmXMBiTJ1M9WKM90tyrW3nHNdbRojRSH6GhtoHvfDpy8jSVx6VVGh2IiMlEAKiDjaoxXhtDDdRS2rbEcjXY1ynFpbprAgQMDaLeZXNtEHl25ioeXr+KYyLfGv5bScN9pndz8GR3qyiWXMPeiGWRtoVwaQMIqmayNraMMN8k+lRIsK9qsGWNG7RtTL2WNEyicUGPFKmK+NfoIdPxQisCKDOeTR5Jhjj7GaRqPeyQuQMdlqjWPQINnGQLLEOjoGCpiUI4sDNJNW6hQoYIAtA/4kn4GXCtqG1hC6iOcQZFTwsiRwwRDQ8ybPp2brljKNXNmqom2OmPTir5Sddlhkb4Vb27kp089ycFSiUxLOypfoFjx0cqO5rQlBl8VSamGdvQQG1w0OZ1BhRbKyWJcl2ETUNJQscGzwBDie2XCcpHLF8zl7isvVedaI7oOwvW4YOKHP/yhfPe73+Wtt94im82mYz6e55HNZlPyURAEuK6LbdtkMpn0+wlJKilJJySpJPNNsula4lbyvGEY0tDQkJa5+/v7+fKXv8xf//VfnxQ829raVtx+++3pcyYgWJudAgwMDPDCCy+clWu0evVq2b17N9VqNe1zJ9l+sikBmDZtGrfccstZvT9tGWvFBEstnTd9Gtd98AOElRKDA8eYMXMqlWoxza5OntWNtcYb83WcvTQ1tlHyQsqBQRXyrNu6hd+tevWrh8KxO6p8Y8RWrw72d73T85hUcNRFs6Zy2SULmDtzFhkN/YcPgxi0BseOerOe51EulwmMiTaD6kTZaZRNjvoPR6A65qilhuhkxmTVtcf0v6KPO1Jz1Cc5jrKqExa1SceQTPx+FwVaRQIiyYxtINH7J5fNQhhSrVQQ38PVipxjk0FhhSHV4WEmtLRy6dx5zJ89m9ntLWdtnKctn1nx8vbu1tUb3mSwGmIXGikFBl8glyvgBf5x2uSjBhtRLSMMhKAaEIbReYZKYWdctOvgGz8dr3KAGZMncuOVV53X9a4OwvV4T8Wvf/1r+eY3v0nC+E2YvkopMpkM5XI5zSwty0oz2QSkazPghKQ1PgMuFArp101NTeTzeSqVCqVSCcuyGBkZAaK+alLK/sEPfsCHP/xh6enpOSEYf+xjH6O1tTWdy00AOQzDdG43CAKefvppDh06dMbZ8OOPP86BAwfSv+N5Xrq5SK4NRISsSy655JzMPM5udtT111zFrGmTqQ6P4GIg8OPM9/i+osRFXlHUzM/q40rWXlyuNsagbItcQyP7Dx3lmRdXs3rNeg55Rvqq/pgMONPcelrkrcmZjLpi6hR12cVzWTiji+kdnYTVCtVKGc+rohQ4roW2IAg9yl45BrfR7DJh6/pap6CnYieikx11zVGNP3ImR3AMac/ZMrqG/JVshCLyWaBCQm3wVUhoCcYG7SgsBEcbsrYiYyssMQSVMtVSEb9comvGTBYtWMiiBfMumtnRclbfW2/s75HlzzxH9649BIHBcdwo+zXxRkePG+gZUzqPx7ksFcmUOjZGhMCrImHUn8f3cIzgiCHrKG696Ua6pnZedD7XvPqIUj3eE9Hf39/V3d2968/+7M/YtWsXjY2NKKUYGhoCor5qAqhhGNLc3IwxhuHh4dH1WykmTJjAnDlzKBQK5HI5IMpkBgcH2b9/PwcOHKBYLKKUIp/PMzw8jIhg2zaFQiF9vgRAjTE0NjYyPDzMU089dRwbOYkbbrhB3XrrrfLMM8/gOE7qYZu8Xtd18X2fXbt2sXLlyjO6Vj09PXL33Xen4iDJSFTCEE9eO8AnPvEJ/uu//uuc3bcpbblv33ztNV89PNDH0YP7aenopOxFi+H41TmMlaHCE5W4k6MAYiIRCK1RWuGFIU6+gYGyx2+fXYlt21y+cMEZmz3UxsUtjepoxTw0c8q0e97atYOjg4MMDY3ghZHgiutaGBOXcmte9In7tQnhSZ/gyJhxpsSTWaXH2l60Oa2jEo1SMUDFGXCt4pZSKh5FEpCIoS5W9L7RojBhFcsIWoP4ggQBtob2zg4mtLUyp6uLaQX7jK99b6l4v2irqyOb/XuAF7bukId++zvePngIN5NHUISBIpfLUw0N5VKVfC6HF/jjckiTVgeEaEMUarDdaFyxWq5guxa2rcgKaN/HCUMWz7uYqz64+LyvfXUQrsd7IgYHB3d95StfYceOHSlwGmPSUmu5XE6zU2MimbwkI54/fz7XXnstt99+Ox/60IfWTpgwYemJQH7v3r273n77bZ5++mmWL1/Otm3bgIjtmQB1QtRqampicHAwzZgB7rzzTq688sqTnsNHPvKRlHyV/I5t22NIYp7n8eijj57RtVqzZg0bN26MlqEYeJPzSPrSvu/zwQ9+kOuvv/4L5/K+KaF7yaULeLtnH7999llcJVSIskN9ynzfHAfAUUkVso6N74coDV7gUw18WgoNOEro6T3GL59cQSCag6HIFEudNSDuzOp7AfYHInsP9bB379v09/dTrVZQlsZ2o9ZIpeLFylgmlYlMQCERy0jA7n1tKwAAIABJREFUtLbs/M7CnOb9iNjWxLO+6bMIiI4BPr4x0Xy0ihyhMBgRxAiNloMEAYEXYGloyGaY2NHOrJkzzlj9Kv08FotdrbGN4RGR17ftPbDk2edfYP32HVBowXGyiFEEJpIAjT6XglIWSDhOkCTebIhGlKJiAkKxyIjBiCHjWGRsG8cE6DDEqlSZMrGDO266hQbNt1vVuXNIqoNwPS6Y+M53vsMzzzxDNpsFRkXqs9lsWmZO+q1JLF68mM9+9rN84hOfYM6cOeqHP/zhSZ+/tbW1u3a937x5s/ziF7/gl7/8JW+99Vb6txLQHBwcTPvRg4ODfOxjH+M73/kO8+fPP+kidOONNzJ9+nT27t2blsRd103710msXr2abdu2yenIZgKsWrUq3SDUlr5rZ6IhYm2fa83sdq0eBB58+eAh2fv2bra+3YNu7IyUsU5wdqNzt0kfcxwLWRmM7+E6EQEntDSWzlAOhVAr8h0T2H+4hydeeBnPGN4ORWacRSAGmGYr1SMi7U2N9Bw+zKEjRxkYHKJSLeJVSthuNsoeY+HnRC06Oj9Tg8onB+BauUklsaXiOG2r5Pvv7Bh7Qsk43aw429bKIKjI5cjW2MqKhGxCIQwD8H0CqeKIoimXZUJ7B1MnTWRCRzuT82dPytFoexnwYK/I/W90H1jy5Mrn2LpzJyrfiNguwyMlstk82nYoVzy07ZLJ5aKNt1JjFNiSTUaaEWec6MtYoCSXcXGVIRguoysVOhrz3LTkcuZObr7tfJGxGLuFqEc9zm/8+Mc/lv/8z/9MM0jf98cwixMwS8rLjuPwF3/xF/z7v/87X/7yl9WcOXPe8eKwcOFC9Y1vfEP9+Mc/5m//9m9pbm6mUqkQhiGVSoWGhkiGb3BwkD//8z/nscceU6cCYIArrrhC3XTTTSkonoiZHYYh+/fv5/HHHz+ta7V161ZZtWoVwBgWeNIbT/5GR0cHN9xww7t2D7smT+z/8E3X09GUx4pFK3SNjm9EmhntDY8Z26nJgpWACf046xEsy8LO5vDQjPiCb+fIt09i75Fenn7xZZ5dvZYtw+X0IveWS/efjfOZrJSa39SoFnbN6v/AvLksmnMRU9s6yGmNI/EscAiWCJaJBDqS+dzofPUpH7UsZzkRyzn5uXd4lFhJqnY8ScZWLmJ7PwOej1SrKN8ng6FgaxozDnnHYkpHOwsu6mLR3DlcNmOCSgC4t1g+K9e3PZd58GAo8sqWPQ/8buXzbOrey7Bo7IZmsFwMFn5oCEIZ8x5X6JN2ISSeZxYFlmMjWpDAxzI+quKhvAqdhQJXXXoJNyz5IOMBeGi49/7zsf7VM+F6nNfYtGmTfP7zn6dSqaS914SElWghO46TyjBOmDCBL33pS9x3331Mnz79jHfml156qQJ4+OGH5fvf/z4vvfRS+joAvv71r/NP//RPf/Dfuemmm/jZz36WkqWS3nDC0k5UvU53ZnjDhg288cYbKdAnPeEkEsGOyy67jIsuevf4JhOVausTWbZz99vLV7yxjVBCTJwlJr1g4mzPxP+2atjQ1AhMZLMuRkKCUBGEgpIA281gjKGvWCarFdmWNvYf7ePJ51cThgGbhkrS0Zjrb1dnPiYz5rwsO32+nX1Dsr/nEDt2dafjPiomDIlEbGRhvOm9PkGRWY/52sQblPG1eROb0L+T4+jTj593Hu07WwZC4xP6AcYEOJZFNhttcnOWzYKZs5jU0f7tjpxznHBFeyF3Viorx0S+tWFXD48+9TQbdu6ibcpU2hsbKZarWI5Nc7aRkZERKpUqDYUmwlAolUo0FBqpeNWT5JOR2tdIsUg+n0cpCPwqYaCwAp9mx2HO9Elcf/kHmJE/vnrS1Hh+nNbqmXA9zmv86le/4pVXXqGlpYXh4WFyuVza5zTGkM/n03GbQqHAP/zDP/CVr3xFnQ0Aro177rlHffe73+WjH/0oxWIRrTXf+MY3+Lu/+7t3NMB/++23M3fu3JTRnUQy25yMTb322musWbPmHbOkH3roIcIwTNnWowpPpJKZYRiybNkyZs6cqd7Ne9mm1Ir/68476Jo6Ecv4hOUilgjGq2Kq1UjBbHwv7wRfmyBEQoNFVA1BKXxjIoMDx0Fn8wyVPZzGJioonnphNU8//xK9xbC1X6TrXJ3fnLYmdfOiueojH7qFqy67lOkd7eSUgnIFqlVsP8QWQaPQ2kZrO1UFi/qVVszujbNfUZjYdyAQiR5GIcpClBWZFJzgGIRCYGLg1tGYkajIUShA8MTHJ8AQEhBijEdoPDA+2gSowMfyA1wT0GhbTGxsZN7UaVy1cBE3X3nFw5dMn6ROBMBnM1asfvOr//OrRzjYN0TblOmURXFscAQPRTU0lKoe2nHJZPP4YYAh2oxXvUpkQXmiEnfMTLdshWUrCHwacxkaMw6mVGRCc55br7mGD85sV++lNbCeCdfjvMWOHTvkU5/6FCLCwMDAGAJWAsClUiktvX7ve9/ji1/84jn7AF177bVqx44d0tDQwJIlS/jyl7+s/vEf//EdPcf06dPV5z//edm0aVNaIs5kMumscjKydOzYMZYvX/5Os2C544470iy4NvNNMmIRoauri+uuu+683FMXbvvosluX//rJZ9i5Zy+NrsZ1MgwVK4jnoV2XsfTosQxXpQxaYpejE5UcFZR9DyeXQ9kaQovhwTIvrlmPFwofuuqKXZxF1vSJYmpDRgH0jAQyMDLM4OAQvf19HOvtZ2CkCNkcvlKIjEqlWpaFJdGGwoQ+aAtLa7SyovKpCMaASIgEIShDKHLCo2XZsUSmAomlUSOadTT0FVsN6thZSElUZbC14ChNGFRoyhdob2mhs7WFtpYWmhsbbmvL2WelPzo03Hv/ybLKHYOBPP3887ywdh0HevsRN4NtR7aYJgijsXHGS4eeKFc0cS/++H57xrYojwzTni+QNYbBwz3MaGvl1huu54ZF09V7bR2sg3A9zls899xzbNiwIZWfbGhoSMvACaBorcnn83z+858/pwCcxMUXX6wAfv7zn5/2c3z0ox/lRz/6UUooS7JVy7JSYlkYhjz22GMcPXr0oc7Ozj/IteWFF15IZ4NFJJ2TTnSjk7936aWXcuONN56XxaZNqRVHRNYe+cAlS7yhAY4ODqHdDAXHomJCTLUKjpNmhydjAacmBGrUCjG16Y3L+8PFYbJa09jazuCxY6x6ZR3D/cOs3rxHrls4Kz3//pFyV2tD7qwzYCc3jI7p9Ax60jvQz2CxyM6Dh6nE8+JRCwJMGOD7Hr4JI11vEUg2Tyo2IpAESn9PmEjgRIwghCAarQVEwAoxJkTwMaFBjMEWIeu45DMZsrbDnIXzaczkaC7k105ozC4929clAeDeavF+ZWW622x7RZ/Isq37jy1/5JlneXXdmwxWPQJtk83mEcuBwEfERGNgWo+BXSXHS4iOHw0zavRnMpbGArIIplqiwbVYcukill626D25DtZBuB7nLRKgC8NID3Z4eDh1HvJ9P9VEXrJkCf/yL/+iLpTzuvrqq7n88st55ZVX0qw+UbZKwFhEeOutt3j11Vfv+UOf99lnn01BPekv+74/JhPO5XLcfPPN/OY3vzlv5+/AvTcvXbwrKBZ5fMUzDAyWaWjvAEsxUvWxbKdmNR312U2Z0zV3WktEMBrjbGRCtJMhNIZSENLS2ERz5yQGjh5j7ZZt9PX08JsX35BrrvpA/0RHtZ0LAD4OkJvd9FUfqIj0jYzQ29vLwMAA5VIVLwwIHEMQhoAQikfoCyHRCI62rLRV4VU9TjWilGifGzGjJiEmzrqBqjeM6zo05gs0NRZoaWqmvbWV1oYGGnLZL7Qrdc57n/1h2CVad7cpteJtI/La9n28uOZ11r61GZXJogoNOLZLaDkYPyQIDbbENlGMMuv1ifTHRaOINbGP80424IU0uTalgT6yYrhmyQe59cZrmZpX78k1pA7C9Tgv8fLLL8ttt92WlpyT0ZraUZ7EovCLX/wiCSP4QohJkyapb3zjG1ILwslmI+l327bNyMgIv/3tb/+g51y9erV8/OMfT0E8uU4JKSu5ftOnT+eOO+7gb/7mb87b+UvV75qaddXeEU8G+3p5cd16yiPDuA1NZG0bI4bwOPKSGVN61DHRidg0QKkgXXQ9P0C5Ds3NzZRLJQ4d6yfrZsi1dqBDj7eHB3j4uZVsPdjTuqZnSK6Y3PSuLr5Ts2MX+6OePDQ4MnxPf98gw8URypUqXmioVnwqXhXPCwiDKuJXMBic3zcjHFTRSuHE0qyO45LJZGJTE8X0qfPJZB0KuTzZbLbf0da97+YozqFSVYzWX1DQvcsTWfXam7y6/i32Hj5KkM1hufloPhmbIAiRMKpuONpCKY2fjG7Fyms6ESNJJU9rjokxhUp0T4Sc0tieR+hV6Zo9kxuvuYr5rbn37Ca+DsL1OC+xatUqwjBMM8QwDMnlcmlP2HVdisUiH/vYx7jvvvtUX1/fsra2thUXyvndcsst/Nu//Rt9fX0pwzsZvUpKqkopnn/+eQ4ePChTpkw55SLxwgsv0Nvbm/5uAsaJoElCXrv66qs53fnjsxVtWXcFwMwGV+0aKMnAcIk1m7YQVMrYTg4/FrRILPIsGQViSZSeksQn1pW2JNaqUoaGrEu5OEzGzeFmcoxUi5QCg3btSODDzeIHHq9t3U7fyAiPvbFDliyYw5Ts+cmEOt3jTeL7Q+nyfPN6pVJpLVW8VI41CILIZo/aueGxx0wmh9bgulkyGYdcrkA26/ZPzDpt74X3/qR8Rh0W6dvT09/60ro3WLtxM0eLJQLbQWXzlEVF5siiUJaNrYjIbEAYGojlPxOXKkjmqWvnrk/SxgBMpYJfKdI1bRrLbrqBOVPbH+4N5H6/NPLApKbGek+4HvUAePHFF9Oemeu6KWEpKbcmX99999089thjXEgADHDppZd+4brrrnvgiSeeIAiC1F4w6eUmDOfu7u60zHyyOHDggHz6058eA7y1YJz0nDs6OvjkJz/Jj370o/N+/oMDfcuaW9pWXNSSV6u275WyCdl+4AjDvod2cicU8hgFX4VR8dCOGAwGVDSqhEAma1MplamUi+TyTeQLjRgjlHyD51fwQo/2tkbKns+6LdvpPXqM4b4B9h4ty8zO90ZG1GqpbqDt/fa57quGyzyll7/8+hbWrF/P1j176fcD3MYmAqWpBAFuJocRhdYKW6yITBYK2oTRRss6VSUgyXzlxAiMwSsV6ZrYyQ1XXcUHF86mU6l7j1a9h96LADxa+6lHPd7l2L17N57npbKUjuNQqVRwXRdjDL7vc8011/DRj370Cxfi+bW3tz945ZVXplaDic5zWlEMAkSESqXCM888c8rn2rp1Ky+++CJa6xqyj6RjXAkoT5gwgbvuuus9sdA0t0Sbpv6q13XT3JnqthuuZUpLgYyp4kgVxwTYEsQZLhilCLRFqKzjAFqT+O1Gy9XI0DCNjY00NTURBAFlv4wXBihL09jcRHN7B8MjZYYrPrnWdvrLHr95+hl+/KvHeXH9Hql/+s5N7C9V5FCxuPwnv/kdD/32KdZu2UlVOzS0diKWix9CLhubpxhD4PkEfhXf9wnCxEJUjxE/iQRfkj5xrSCJAlRqBW0bgxMaMmHA1JYGbrn6Cm68YiFTlVL9oXR1Ztx736vXrQ7C9XjXY/PmzVIul1Oiku/7aTk1Kd0CzJo165zLLp7LuOuuu5gyZUp6Xglg+r6f6jxblsXjjz/Opk2bTgoODz/8cFoxGFPGqiGxAXz2s599z12D1ozbDfChi2eqTy67gVnNWazBo+T9MgUdYiNobeEZRQWL0Mmk856RW5Gu8QiyQBxsK0O16lGtRspatq2xbFD4+F4ZXfZpsHPknTxBqKmqHF6umfUHjvBvv3iU/3zqDXll96D0Grm//mk8C9mvyLKtpYqseP11/p+f/i8vbtnBoJVBt3YSugUqoSIUTc7Oov0QJxCyAjmtcZXC1gplK0JtCI2PawIyYYAbmpSYZbAJlU2gXEKdwRebwAdtIKcUbhDiVioU/Aofu/5Kblu66NuJrnhcdXjPRh2E6/Gux4EDBxgYGBhTgk6yRGNMmjW+m4pP5yIWL16s5s+fTyaTSRng4yMMQwYGBk5KPNu1a5esXbuWMAxTsE36ybX/7ujo4NJLL31PX4+Fs2b033Pnh5nU3IDll6FcImcrSsPDuK5LNlegVKkAkvrfjmoyR7aHSSZErBI1GgZUUGMXGC1vodIE2qaqXUq2Q9HJ8ODDv+AXy5/l1S2HHuguSh2Mz+SzHIisenPz8h/98hEef/4Vtu4/TNnKULUcPG3jaxsT3y+VVjRGHwpSclVihqEQLBkryBFpYkcbsXK5QmNDc9T/rfo0OlnKvb1IscgdN9zIDUs/0N+Rz/79hXIN6z3herzrcfjwYYrFYgq6tSCcjNo4jsO8efMu+HO9/fbbWbVqVUq6qQXfxL3J87yTjhStWrUqNZhIRB+UUunvJuNOS5YsYenSpWvfy9diYi7XBvDomvXy5KrV7OsdhLJDZ3MDvcVB7EyIE/f6ROlIiCImaqVgfKJMYtw3R/2Kx34vaSNOmD6Nt3ZuY/uOLSyYM5Nbr7/ugaMiyzqVurf+6fzD4lBVZGP3bn726JNs3LmbQwP9iHbIN7dTNWeW2yXwe5zmdVwhaSwU8ItFmrNZdKgYPHaYyW1t3HDtNdxwzRVMbNAXVK+9ngnX412PWpZw+sGLhTmS74sIkyZNuuDP9c4772TSpEljZoRt2x5TBYDInvCFF144DmOefPJJKpUK+Xw+Be/EGjHRoTbGcOONN3IiC8f3Ytyw9LKL7rz9Nia0NKGCCmG5RHshgykNk4vTgkSIf/zx90fSY655aAjSh6YUeNgNTViNBbbvP8B/Pfy//N//70/ueWTdRukZ77hRjzFxJDCvv7L7gPx6xbP89De/ZfnLa+gZKuE0dOA2dWKsTJz5nl4YFfsBJ6YUNRClRLAkJGcrpFrCVMpUhwaww4Abr7mSjy67kpaC+vaFdk3rmXA93vVIADfJ4pJsuNacHkhtDS/U6O/v72ptbVVf/OIXZfv27SkBLcmIk56wMYb+/n6efPLJMb//1ltvye23355mv8nv1bKiRYQJEyZw66238rWvfe2CuC6tSnX3inxBW84DP/v1owwUR9AKJjblGSgVUW42BlKdAmpyHJsBj813RwUcxv5siqpKE2LINDQRhFWqVYMlEIhi+6EeDj83yGvr17Ny03aZMWkSXe3RfHG/F3SJCbvaspkVf6yf2bdLRdn59n4ef/4FXnx9Pf1lj6JnUA1t6EyBKgqvGsmyuk4kpnG6kcyQ1xphJB7Nlhj8kSrNeZfhY0doci3+5NYPcf2VV5AR1nZo9fcX2rWtg3A93vWo1VBO1J+SMnTSO01ciC7kiD2M+dM//VMefPBBbNvG9/0xnr8J4xlg5cqVCXB3Azz//PP09PSQyWQiH1UiMlbSN08qB1dffTVXX331BaMo1lf1l7Up9WCPkQc0f8qjTz7FwcO9VIrD5BsaKRJADMAnKkWf6kQVsadvbPIblbVrFZg0odYobHCzKJ0BbShWKgz3D3FsYJA93XuZP2sGj65ZL/PmXgyOdVGbsv8oAXj38JDs7TnMb55dycbtO9h7+Ch2rpFAOUi+gNEZPDShUWDZ2A4QVk9/gx6Dr1FjN1tawBKDJSGW8Rk62suUthaWXX8N11+xhFk5pS7Ua1wH4Xq865HNZlO/3SSzG2/JZ4zh2LFj74vzvfzyy/uXLl3aumbNmvQck55ucg0AtmzZwnPPPZcaEDzyyCMopQhjHeIEtJOM2BhDLpfjrrvu4pFHHrlgrkdbxllxtFR5qFMr1SeyzNV/svyxJ56k59BRgrBCRecITqQTHI8ojSpbRv9OtYUZ7f3q+AdN/PORApfGKEOpXMZxLbRlgRJC0RhtYSwXrRQVEdZu7+bNXbuZMnEiC+bP37Wqez+zpk1lpqvUYT/sm+hYbe/nz+ibB4/Khm1b+eHDj7D/yBGODo/gK4VqbMVkc4ShRdU3mCDAsjS25QKa0Pfi3u0ZbNJja8dkREnFYi22ERwJcBAa8xluvnIpH7p6CVPcCxeA6yBcj/MSjY2NuK5LpVIZA0IJICdl6fcLCE+cOLHta1/7mrz22mupUEfil5ycv2VZ9PX1sXLlSgC2bt0qixcvJpPJUKlU0o1KYpEoIhQKBdrb2/nIRz7Sf6Fdk8589t7ecvV+49F1y4KZ6uUdb8vvnnqat7r3YLdaBOICKspqjY77jCZenE+RCY/r6GoxaY8yYUxbrptuZgIT4FiCcnIoHSJKEygFVoaqV2VHTy87Dz7PS2vXMW/2bH62eq109xxjTzmUWTlLvV8+k0dFHjp8bOSeI0d7efWN9fzH//6Gw/39VCTEWDZepkBgabTjUvEMmVyWbC5D4IUE1YAg9HAsm4yjCYOzUi+LN1YmzYAdCXBMiG0C7r3royxdtJAMfOFCv/Z1EK7Hux6zZs2ipaWFoaGhtCdaqySV9IRfffXV9805/8mf/Anf//73UxelpLwsImlWnM1meeKJJ+jr61v2/e9/H601lUollbzUsVZwMp5ULpe56667mDhx4gWZlbXnMg9C1HNtdW21Ye9+ya9azXMbtxDYWVraO6h6HkOlYRoam1DaZbhUxLXciOimYvMPFZsamADf93G0ldauTQ0rOu0ri8JIiFYKrOhnRQwomwAoY6MsjZV1UBkDEtLvhazZ2s26rTuY0tHB1Ikd/HLNJpk9YzodbY3kbb6tYYWC7lb13p5LPSzSF0BrCAxVDHve3s//99hy3j6wn1LZZ2CwilE2odVAYIGvIzEVX8flYltT8QOUF2AJWDoS2FBBgOH3u0AlVZ2ErJi0owD8ICDbWIiqPYGPoxUZrRGvjAp88q7mc39+HwtmT2fyBZ4B10G4HuctJkyYkCpJ1fZHk1Jtooe8a9eu9805z58//+FbbrnlnieffHKM7WCt7nOlUuHAgQP8x3/8x/J169adtEqQ/Hwul+P666/nX//1Xy/oa9Pq2t0Al86cprYdGxDd3MJLGzYxcuwwTS2tZJoaGBwuElCkrbUzHm+zIo9ey8IEPp7nISZAGUFpqyYTjjJogwZVM84kOp5PrdVljsqgnmhQGq0i4wBtQpQd9yPFsP1AD7t7DrNu83aaC3kmdnYwa8a0r3bNmv3VyR0t9Inclhgm9Idhl4h0tdnnv6e81xMZKpXZcaiPtw/2sGPvHvYfOsyxgUGGSkUMCsfNYdkNsTiGxmhDqCCMATie6EXHWWqaqSLxZkch6FMypPP5PNVqNf3s18rVuo5DUCnj+1UylkXWdvGKQ0h5hMXz53H7Tdczd8a09w0A10G4HuclJk+erD70oQ/Jzp07xxCTalnSIsLGjRtZuXKl3HzzzRf8B66zs/PeH/zgB/L444+nmX4tsCZfl0olHnzwQUZGRlKSWu3/r501njNnDrfccsu330/vjXkdLWrjcEWamht5Zc06Dh45jJtvpK2xkbIXMjLYSybXSGgMoT9K2VJKYTsOrmUTxJuUCGhjMMZgxhkCjNKmR++HoAnU6Pe0Am1pLDEYLIwYsi2dmCBgxK8y1DfE20f72LBzN/n8WpqyFhdPm7j8h08sZ/Lkybx9rI+WlhaOiXy7Q5175m6vH9zf7tgP9hq5f7joP1AsVRgYKXLw2DF+/tsnOHT0KD19fQyXyhSDAJXJYGezqIYmtNIEyiHwXcCKx4SiWW0hsZOUWGTDpIIbyeZExdcv/D2Tr77vp6TMxJYxea+7rk25OExTLoP4HiP9R2lxHRZfegk3X3MVN82Zrt5v62EdhOtxXuKqq67i2WefxXVdyuVyypJOjgDDw8P8z//8z/vqnKdMmcLBgwejD188L5yMLiVl+Z07d6Ys6Fozi/EjrLfddhsdHR1//357b1zSmFV7QpH2Qp4Vz7/IwcN9YNlkLAejNH65hNEWCgtlaWw7HuHyqwxVRsi5mZSklUTkymPicrQ+pUG8iCBKSChgSimMsmKqkM1gtYyjFXYmi53JxSYTUELwKgEHXl9PxlJkHJdCIUdLUxPtrS1fffCpZ79aKOSYOnkKGdehIZen0JAjl3FxiMrZ7+Q6+fCQH9JaqVQZHh5mYGCA1es38qNnXnrgZ4+u4GhvL0f6ehkaKVEJAjwURkOm0AB5C1eicSBPFIEJEQWOY0U7D0kYylEKrAALEzkfoVO28thLl5grGE4lQeH7PrZtp5WwZFoiDEOUCck5FvhVguIwbfkM119+ObdcdyWLWxvV+3EtrINwPc5L3Hjjjfyf//N/xpRla8uvCXt6+fLlrFu3Ti6//PIL/gN41VVXqc997nPy3//932QyGSzLolQqpZlxEATpeFZtVaBW2CTJnDs6Ovj4xz/Od77znffl+2OWpdSBUGRiWyvPv7KWV9a9SUUsJs+czdH+QSwnQ0DUG/dMgOu6/P/snXd4VGXa/7/PKdNLMpNkUiEkJIBSDKEvCCpVUFkVRGyLP4RdRVFXRF5WXdeKq+4q6iuxvlhWQVddC0UXEBQLVQWCIB0SCKTPTGbmlPv3x+QcJg1wRWH1+VzXXFHmzKnPee7n7oIoQxCpWa/ipoL4aD/aozQfWHEDtdZUR2Zk+jutDicY6dCJoJMGoqPV3nQmQXcmQ4EOlTEEI4RDoWqg7AgEMDCBIAsMNmtcCLucDtitNsiyPFMQhJkA4HZ7wCC2KF5jLNLq6uqgqipisVg8uExV0dDQgFAohHCkAQ2KDlGWIEgWQGDQSYAuWSBKFkiyBdXhBkgWC0SrBZIox83tWnzBJ4kWRFUFDIoZAmeuR4z70xiezii+hd64omE4mlZ2LMew4UYwasbLsgyr1Rq/Pl2BFg2DYmFkpfowuH8/nN27GB1kxn6pcyEXwpxTQvfu3dGpUyds2bLFnMCApmURzrfPAAAgAElEQVQsiQh79+7FE0888Yu57uHDh+OVV15pki9spCElXr/xN1ETBmBGSxcVFWHQoEHslzxGshoL8K87WE12uwtff7cDh8sPIQYGCxPBJNm8V5qmQZIkWO02xJqF5wpmYJahuelHhUsLjU2HBGpSakIkZgohlQFKRDGLzRjBRYaQVDRAsDigkn60+Ezj3mSRQRJExNQYwhEN1ZEgqKoe0OMdtUjTQcRgtdhATGi1qpyxWDM0SMYYJElqDNgToVtcEJwiVB1QdSO1Le7jliBCIMDhSYKmEZSYDl2PgYiBCQIEUQQjQCTVuGFg1Fj3mZotV4y2k423RktcKB7nuRqR/sb4tlqtICJEo1EwpQFWPYLibl0wsE8fnNmxHdozxqo1LS9ZFHf+Esc5L1vJOTUTbFYWu+SSS5pogYaJym63my8oYwzvvfcenn322V9EOcHevXuja9euZsENWZabCNnm+dKMMfM+GJO6zWbD+eef/6sZK7mBpKljzx+G84cNQ6ovGaSqCIVC8chxiwiHwwVAQKghjPpwqLFpgxAPKGKId+cRdLPyFjG9zQ+YDhEaZDr6QcKH6RpE8Wheu6pr0IkBTIQgytBlGSFdQAgWhJkFEdGGqGSDYnEgZnEgJtsRlWyISDZERCuikg0xiwO61QXm8EJwJ0OxuKDKLsRER5OPKsf/XXKnwOJNg+xJheD0QbO4ERXsiDAbIoIFQRLRIEhQZRuYww3ZlQTZ4QFJVqgkItKgIhpRAIUgaAwWJsFKIoSYDi0cgUQqJIpCIgUSxWDRY5B1HbJOkHWCqDMIxCCQAIIEMjocCfG/dIJixfAJx2Ix1NbWQlEUJCUloX+f3hgzfDiKO7ardgJzysJh+qUKYC6EOaeU0aNHIykpyTRFGxHThpnNKFtZWVmJv/3tb1i6dOnPIojnzZtHrdVxPhkUFhayvn37mu0anU6n2eLQYrG0KpCNxg26riMWi8Hn82HAgAG/mnGiRtWHPFasG1ycj99dNhYDiroiJ8UNpoSgR4IQtAgEpsEmS/C63EeVNSY0NnOIt0OkxnrEOoTGSlyCqRGzRq2PESAIUqO2JppTpBEsSESQBdl0GzAcLb2qqioURYPFYoUkWyFZLBCkeJSxSoCiAhFViwsqQQZkOwSLDczigC5ZoIgWKEyEKshQmIAYREQJiJKAGBgUJkEVRARjGho0HbpkBbPawKwO6JIMVZChMglMtkCXZZAkQWUMDaqKBlWFqlNc6xXjwk8URYhCvFEGGEEWBcgyg86ocdGigxhBb1ycMDRGiydEQoPinY00yNAaBTIgQdAlgKS4xtxY9awx9wG6roKRAplpsDINktoAB1PRJScDFwwZhGvGDkenFM9UEShRYrGZmQ7HL9ri89MK4caH94M+nDYe0w/5/HfQr18/dumll5rBSbFYzBROAMyJTpZlbNmyBbfccgs++eSTn0wQV1ZWTrnzzjtp6tSpmDRpEt57772f5Fhjx441q4YZecMOhwOxWKxF5LTNZoOiKOaCRBRFjBgxAgUFBcN+LaM/YJN9aYz1ymSMFbXzDbth4vkY0rMTMlwC7HoYohIGNQShRsJQoxFIYKbyKjILRMkGQZDighgCdBKhNppZRSbFNbqYDlEBLMwKTRegMBkKZKjMAsAKxmxgggWCYIkLMj2uCSZ2ipBIhA0iBE2BqEUhqgpkXYNVYLAxBpkBEgiiUXJEJ+ga4p/G1B6CAB0aiOlgIiBIDILEwMS4Bq9DgyDFc61UXYGixaDqirm9KDYu3IgAnRoXFYDEGps/MhUEBQQFuhADBAUQFOiIQkUEMRZDRALCkoSIJCAqMiiCAEXQoSZYFJrMTWTMOyJAImyCCyLsIEWAEgNUDYAgmtegKWEwvQGI1qKhci+8egije3fD1LHD8dteBcM6MMb8jJWkMHZHhtXKfg2z++kFF8S/Ki699FLk5OQc9akldFgKhUJmMQtJkrBlyxZMnz4dK1asOOnCccuWLTRjxox59957L7xeL77//ntcd911ePXVV0/6sfr16zesa9euAGAK4VAo1CQy3MAIXDO2EwQBgwYNgs/n+1XWMvYx9nGsvhbjzhs8bOYNU1FU2BGx2irYmY40jwt6JAxJ1yFDgAwBpGpQGsKIhhugK0a9bcOPy0A6iwtjiPGIajoqDA3vpilnm02XzKxnrDdGCjfmzeotP4yMT8uqXvGTaW0q1v+jv0KzY5i50Qlza7xfc1zb1ZkOXdCgmelIDMQYCKyx1Ccac38BMk361KYwbmhoMC1bxmJTicagKlEITEdKsgvRYA30hnoUdyrEFReNxgVn90ef9CRm5Ff/2lQsDueUMXz4cDZ58mQAR7smJRbtAIBwOAxVjQevbNy4EePHj8fzzz9/UoTjkSNHHnrnnXfoiiuuwAsvvABRFFFbW4ukpCQcPHgQU6dOxcMPP0xVVVVDT5og8fk+HjBgAIgIkiTBbrebpufEnGBjUWJ0XhJFEbm5uTj33HN/1WOmgyeJ6SoNTXG7ceWll2LSZeORlexD6PBhOEBwyyIkNQI9XAdRjcBttcLnccNptQCkQWB01McOAjERkGTogghNjwdvxfNgqdGQffRzVJgeFbpHPyoY1NPiHhk5vIm9lglHzcLUaJ43P2CNzS4EyJoAqxr/K2sCRF0AI6Gx8AnMhYnpXxfiAh2Ngl12SFCpAaFoPXSKwm4X4bQJkKFDiEUQPFKJVIcLQ/r0w7jRY3Bhz+6s4y80/ehE4NHRnFPO7373O3zxxRdYtGiROTkaJSwTk/kdDgdUVUVlZSWuv/56jBo1imbOnIn/tJjHokWLaMaMGViwYEFjFaZ4UFg0GkVNTY0ZNDVr1izU1tZ+hOMHfp4w559/Pp5++mmz/KRRmtIoYZlYxMTovqTrOkaMGIHc3Fz2ax8zKbJwR7VKJdl2trOSaErHdrnzvly3ERs2leJA5WFIsgybzQImiFCiIURCGkgUIFmsIGgAEXTSoTMGxgASGaADGulgRmWtRqGSqPmisYpWorYqtKK/0mmr3wjmWVJjMhYjobHxRTzlSKLWNXPzTpgacYI2zDSwxu4Zmq5CF6KwMAGyBJASgxIJQlAV2EQR3bt0xlldOqP4zM7ItbJf/VjmmjDnlNO+fXv2l7/8BWlpaWZjApfLBQBm7WQgnuQfi8WgaRoURcHKlStxzTXXYOzYsfTqq69SRUXF2uMdq6KiYu0777xD48ePp8mTJ+PFF180BTBjDMFg0IzSVhQFoVAIjDHMnTsXv/vd76isrOykaODnnXceGzJkiKnhGqUom6cqGecBxDsvXXDBBXzANJIssZ3VEcqDAvRKd7FLhv0G40cORXHnjkh326HX1iBacxh2UpFst8DOgFiwHqIe14YFNEY4g6ALDKrAoLFEkXM0lcnUdilR+OqNQUpHP00Sak9T4uZ1wfxQwl9AgKhLsGgCZF2AaGrACYFtQjySXBeOBmzFS1dqEEmFKKmwOwTYbICuBNFQUwGLGkHX/PYYO/QcXD5mNIYUdZ7KBfDpqgkTXxf8Gunduzd78cUX6Y9//COqqqpgtVpN7dDwhxolGyVJgtqYphIKhVBeXo6lS5ciEAgUjxw5kjp37ozMzExTqFdVVWHv3r3YsmUL+vbtiwMHDgBAk37FHo8HwWAQRISGhgYA8W5PRIRQKIS6ujq88sorSEtLO2nX/Nvf/haLFi1CcnIyjhw5Yl4X0LQ6lvFvXbt2RXFx8Rw+WhIEsY3tBFByuE5dIGnIH96jw87vg0TrSzdjzdp12FtWDi3WAF1XIYPBKhCYpkAUJDBBiOfzQotnEAsAkVFdy9BREv2oTX2tRl0oYon/99+mex2tjKUzNApd1lTbZ2T6gnWhFf9zwmJFgAZoMYTr66ArMbhtDpzRIQtnFhSi+IwzUZiRPOzX6Pc9dUK4MTz96IcLWU7bTJo0id1zzz302GOPoba2Fna7HaIomkLYSNdR1XiFJCMtRNM0xGIx7Nq1C2VlZTCaJBilH1VVNasNATCFuyzLZq5iXV0dAMDlcpnm4fr6evPfgsEgioqKMHr0aDz88MMn5Xr79++PQCCAyspKAPHIZ0MzTmxsYRQ3uOSSS36RZSpPBqkeaTwAVNereckuxqqJ8np0Ktjx9eZN+PKr9di+dw8g25CWkoLqYBgiE6CJrDE9DKDGe8wYASTGBbEumKbXow9DbyLIdDJKNQrmhk3rUv/8NA/8Onr+QqsKT+L1kSFSG+tGawkB4NQYxNUosiGS3li+kiCa9aRVNISr4LYwBALp6FbYGUVnnIH8zAxkCVzzPd6SiMM55dx9993s5ptvhsfjQUNDgymAjeAlxpjpN030HQPxalLRaNT0oTY0NLTQLI02gEYRjGg0ilAoBK/XC6vVimAwaLYQNPYZDAYxcuRIlJSUYPDgwSdtIunWrRs799xzoaoqnE6n2d7QSFMyzOIWiwWyLGPEiBF8gBxPM3bHOzKRhrw0lyX/3H4950y55gpcc9ml6Jqfi2htdTx1CGo8s5U0MF2BoCtxIcIIYHpcADexzDWaZBM+8frKUmPusWiad093RUOg1oW28VcTAEXUoQpozBmGmTcMpkOACpE0SLoGmRRYdBVWLQarpsKmKSjMSMWwAX1w7fhLcdmw83B2dibjAvgUacI2m8306bXWO/IYKvQxv7VarWhoaDADWXRdb5Jf+ot7SJKEaDRq5s02L+T/Q++fIYBUVTXvpSDEUwuMCOVTyT333MMefPBBuv/++xEMBuFwOBAOh5tohYnC16goZZiXDW3SuMbEVmmGNm2UyTNKD9bW1pr71zQNdrsdDQ0NICJMnToVM2fORF5e3kmfSMaOHYvXX3/dvD7gqA/YqCIWjUYxatQoFBcX84nsBPFJpsnzDgB3HCF6KL997szdBw/ii3UbsKf8EI5UV0OyxZswaFDjZSOZAJ2aBsUR4mONiCBK8TGlM0AEAwnxoh6JpRiNVKQ23076adVkY5wnWn/i7zzFmzNAiPuvWbyTkSA0ph+pGhRNhwoCEwhgDCSQaW5njT5wqyRADYfBdB02JkLQVFgAtM/IQsfcbPQsLkSy244ONg8fr6daCBtFBhJNina7vUk7tjbExDG/DYVCjW2vLOaE/EvGEJYAzIjhH3P/otEo7Ha7WUAdiPs/jQn/dGDWrFmspKSE/vrXv2L79u0QBAFOpxP19fWIRqNm7d7ESkaGMFZV1ZxcjCjj5ilARtcis3tLYw1eQztuaGhA+/btMWXKFMyePZvNmzfvJ7nODh06oKioCOvXrzfN3ka/VeBoY4vRo0dj0aJFfMb6D2lsI3jHvhhRz+6dsHHzTqz7dhP2HCjDkdogFFWBKMlgsg26ELdBExFEEgBBgCgK0BtbJlocDmgqxV0h1NhpyaygpYNUilehOkUkCt4WCo9OEEUAjSlwmhJDVFXN8W+VJagsrgHrugZNi0flM9IhiQSJMZCiAdEGQFFhdzrRPjMdZxYW4qwzu6Frmp0djDRQus3OBfDpIIRVVYcsW+MVZpjRHcYw7fznGFWUDG3GEFS/VGw2m+nHdDgcP3olbfhBDeuBpmkIhUJNms2fDkyZMoWtX7+e7r33Xrz99tuor683Tc7Nc4kTrQaG1mIUuTcmJmNSMr4TBMG8B/GSg3EztdfrxeDBgzFt2jQMHz78J51M+vTpw6677jpav369GRBmWCaMBUUgEMCoUaP4bHUSyGlsBl9BtPasM/OKyyrq8W1pKbZ8tw0HK46gviEIi80DVY/7QWUwCEyGoqsIR2JQNBWyzRrvciQKEBrb/mmaDk03ak+zeITXMeavn1YIG/5tvXFhYAjmxqYSmg5RFGEVBZDAoAlx6w/pMWgxBVFSIFlEWCUZkARokRhUNQYWUwEiUCyGjllZ6FpYgK4dOyIvOwftbUcvigvg00oIx9tsBYNBM8gmGAz+aM3VMEVGIhFEIpEmpshfIrqum7mrRh7rcX5xXAuF0Vjb5XJB0zTU1NQgEAicFuboRHr27MkOHDhAAwcOxGuvvYaNGzeaQtXwCRvjyRgTRqGL5sUvElvDGcFahqZJRLDZbCgoKMDkyZNx1VVXDfu5qlINHjwYb731FqqqqpqY3o2a0gMGDEB+fj6f2E4iooISWce8vFT3unZpfYoHnNUdO3fvwY7d+/D11u8Risaj8rUIA7PIkCQZblmAKklxM67IQAKg6YSYFgWIwSJJkGUbYrEIcApdoEfdL8wUwvHxRGA6gaBCiUWh6vHrEEURVkkEEYNKKpwCQdcVUEMUpMQg6BqSrRb4fX4kO13o1b07stNSkZ2aAo9NmupnrISPqNNUCAuCgNzcXNN3yxhDOByGw+H4UfsNh8Ow2+2mxlNYWPiL9glHIhG0b98elZWV8Pl8J6D168cV6oYZ1uFwgDGG2tpapKennzbm6ESysrIYAJSWllJJSQnefPNN1NXVoba21rwOIxI6UUAbYzDxuonIDPoy2glarVYUFBRgwoQJuPzyy5Gfn8+mT5/+s13fqFGjphYWFs774osvTFO6cb6SJGHs2LF46623+Gx1EvFbWAmAEgCojKhT0h02nHlW55IqoqHbios+2lt+CNu2bcPuvftQU1cHTWGAIEEQJcQiKnRJhihbAEGEjTFoTIeualDUKARJPmZUxk/tE07UiOOuKR1Mp8aALB0uux2apoA0vTEWmsC0aHxhrilgUGFhGmRRgtNmRcCfgcLcXJxZUIB2mRlwWdicRvM+5yTwky/XvvnmG4rFYqb502KxmP7hH4NR2L6+vh4WiwVFRUW/aE1hx44dVFdX16L13X8ihI0AL6MKk8VigaIoUFUVxcW9T/v7uHbtWlqzZg0++OADfPbZZ6iurjavS5blFuOrtWA2QRCQnp6O/v3745JLLsE555yDjIyMU3btt956Kz355JOIxWKmdi6KIjp37oxFixYhJyeHa8I/A4dqg1UBr8tXTZQXjNCOw1WV2H/wEPbs24/vd+/BgYOHIdvtiKgaFI3AJAmi1QaIElRFR0RRwGy2Y1bM+qmFsK439QeL1Fh4hDQw0iGyeDqRruvQlRh0TYUkxOMkrJIIhwTkBALoVNARBR3ykOH3w2Nl+cmM7eQj5L9QCHM4PxWHDx9ecODAgXGlpaVYu3Yt1qxZgx07dsBms6GhocH0sVosFlitVjgcDtjtdgwZMgS9e/dGcXExOnXqdFq8AytXrqSXX37ZNEUblcO6d++OG2+8kb+np5BKoinhBmVeVX09aurD2LC5FNX19aiorEFlbR3CMQU6EUgQoAsyNNEKjbUthBOtMz+JEEa8MQVr9AGLpIOxeAawyAAtFoVAOhg0WCQBbqcLqal+BAIBBLxu9O96JlySBIdNmOoXuKmZC2EO5wdy4MABqq6uRnV1NVRVhcPhgM/nQ0FBAR/vnB9NNVFeBNhRXRfFvrJy7Nq7D/sPlKGmvg5hRUdFbRhKoqBtVhTDyG6g1kYj/cghyuItDEHxoESma/FuT4wgCgwCCDkZmXA5bEjxJSMzI4DsjAz4/UlwWAAbUG0h9EoWuNbLhTCHw+H8F7HnSA0dqqnB/ooa1EdjqK2tRWVlJSqra1FbX4dQQwNiqhLPGGGId28S4gGDRyt2iSBVO+ZxLBaLGeFvZAAYJm4RKuySDqsY71HtdXvgS05GSrIPyUleOG125HfIg8NmQzqv3cyFMIfD4fxSqVJpaEOMPgqFQqgL1qMu3IBILIqqmhrEVA2RaBTBhgiCoRDC4TDC0Qh0RYOmHDvw0ul0mvURrFYrnE4nPB4PPB4PnDYZqW4LbBYRbke8EYrDZp/ql2XTrFxVHx7qczt4/WYuhDkcDudXKJyJhurA0BhhpqICUVUxa6DrGiAeR0E1gq6O5vuLsMiABZjKgJ28QQKHw+FwOBwOh8PhcDgcDofD4XA4HA6Hw+FwOBwOh8PhcDgcDofD4XA4HA6Hw+FwOBwOh8PhcDgcDofD4XA4HA6Hw+FwOBwOh8PhcDgcDofD4XA4HA6Hw+FwOBwOh8PhcDgcDofD4XA4HA6Hw+FwOBwOh8PhcDgcDofD4XA4HA6Hw+FwOBwOh8PhcDgcDofD4XA4HA6Hw+FwOBwOh8PhcDgcDofD4XA4HA6Hw+FwOBwOh8PhcDgcDofD4XA4HA6Hw+FwOBwOh8PhcDgcDofD4XA4HA6Hw+FwOBwOh8PhcDgcDofD+RVRXV2dx+/CrwPppz7A0qVLae3atXC5XBAEAZqmIRaLgTEGWZYhCAJkWUYwGITH48EFF1yAjIwMxh8N52SxbNkyWrduHdxuNxhjUFUVDQ0NUFUVXq8XeXl56Ny5M9q3b8/HHeeUUVFRsfb1118vFkURr7/+OgDw8cj58UybNo0YY2S328nv95PT6SSv10t2u51cLhe53W6y2+0EgIqLi2nlypXE7xrnZFFZWTll2rRpBIAEQSCn00l2u508Hg8lJSWRx+OhjIwMGjNmDL366qt0umsgpaWl9MYbb9C//vUvWrduHX9XfkF88MEH5PP5yGq1UpcuXWj//v38+XJN+McjiiK8Xi+sVitsNhtisRjsdjtcLhcURQEAOBwOlJeXg4hgs9n4UzkNWLVqFdlsNvTu3ftHr8YrKirWpqWl9ToV1+H3+0tuuummeTk5Oairq4PL5UIsFoOqqpAkCYIg4NChQ1ixYgW2bNmCDz/8cEdpaSm6dOly2mkh//M//0NXXXUVqqurEY1GkZmZienTp9Pjjz/+X60xlZaW0pEjR9ClS5c5KSkpd/xa37nU1FTYbDYIggC32w1RFPlExIXwyRHCiqJAFEV06dIFZ5xxBlRVRTQaBRGBiGC1WhGJRJCRkQG73c6fyilmxowZNHnyZIRCIdx+++308MMP/6BJfvPmzbRhwwZ8/fXX0DQNX3/99Sm9HlVVEYlEYLfb0aNHD3Ts2BGhUAihUAhEhN27d6O0tBQ7d+6E1+tFSUkJdu/eTbm5uaeNcJs9ezY988wzUFUViqJAEAQcPnwY55133n/1WFu8eDFdeumlqK6uxhlnnDFz06ZNM7t27fqrNMMqimIqJhzOSeO2224jl8tFWVlZdN9993Hzyn+BVtKxY0fKzMwkl8tF7dq1o2+//fYHPbfbb7+dkpOTSZIkGjVqFH355Zen9LlPmzaNkpKSqLCwsNUxuGrVKvp//+//UWpqKnk8HnI4HPTII4+cNmN1wYIFlJGRQW63mzIyMuicc86hSy65hAYOHEirV6/+r32nqqur86677jryeDyUl5dHLpeL7rzzzl/tHPH5559TVlYWpaSkUJ8+fai8vJzPl1wT/vEQERhjCIfDiEaj/I6f5oiiiIaGBmiaZprGwuHwCf22oqJi7YIFC4rvvvtuqKqKPn364KGHHkKPHj1OqWYjSRIURUEkEoHb7W7x/aBBg9iuXbsoIyMDjzzyCERRxLJly7Bt2zYqLCw85VrZmjVrUFVVhcLCQrRr1w5z586F2+1eWFpaOm7AgAH/tVpjcnLyzmuvvRbRaBS1tbWwWCyQJOlX++5Fo1EIgsAnoV8ZP/kTl2UZNpsNsiyDiC/sTndSUlKGXX/99fB4PPB4PLj66qvRt2/fE5rot2zZUlxSUoJgMIhzzz0XCxcuPOUC2FhYCIKAaDTa5kKwQ4cObPz48ejduzckScKKFSvw1VdfnRbPpL6+HowxHD58GEOHDkVeXh5LTU0df/bZZ//Xm22vvvpqdO/eHRaLBf369cPEiRN/vRpRY4wCh2vCJ5VgMGgGxFgslh+9vyNHjjyk6/rQUChUrCgKrFbrLyK15NChQ1XhcDjZSOOSJAnt2rX7UddVVlZGkUgEmqZBEAQ4HI7jpn/5fL6PAbC1a9eSw+HAGWeccULnsHPnTnrppZeg6zrOOeccXHnllafNoouIIMsyGGPQdb3N7bp3786uuOIK2rdvH/bu3Yv9+/f/oONUVlZO8fv9Ja19d/DgQaqpqQFjDDab7QeNWVEUYbFYwBhDZmbmDzqn8vJyCgaDEEURdrv9tEv/GzJkCCsvL6eqqip4vV5kZ2ezE50HampqZuq6DlmWYbfbkZ6eflpc25EjRx6qr6+fGQ6HkZaWtjA1NXX8ifzOiJXhcCF8UnE4HOYK78dMyocPH16wcePGca+++ireeecdVFZWoq6uDk6nE+PGjaMePXpg4MCBGDJkyDFfxP3791N2djZLjNitqqoaumnTpo8KCwubvMj79u0ju91uRmwuXbqUdu3ahV27diEQCGDIkCEoKipiALBw4ULat28fysvLcdZZZyE7OxuDBw8+7qTw3Xff0Zdffom77roLGzZswP79+5GZmYns7GzMmTOHzj//fHTr1o0BJx5l/O2339Knn36KGTNmYMuWLeZ9ysnJwa233koXXHABunfvPrUtgQEAvXr1Ms+9uro6Lzk5eWdbgqe0tHTes88+ixUrVkAURezevRtPP/00li5diqeeeop+85vf4KyzzjplE6Su61BV1cxTPxZFRUVYvnw5LBYLysrKmkysRJTXfELdunUr1dfXo3fv3qy1+7lkyRL69NNPce2112LHjh1oaGgAYwyXX345DRw4EH369Gk1Ar2qqmqoz+f7ePv27XT//ffD6XTC6/VizZo1plA/ltB58803adWqVbj88suxa9cuyLKMzMxMXHbZZTR+/Hh07twZZ5555nGfyZ49e6iiogK1tbWwWq3o3LnzCQmVb775hioqKiDLMtxuN3r27NnmsX7IwmDdunW0ZMkS3Hzzzdi8eTOqq6ths9mQl5eHBx98kPr06YOuXbtWBwIBX1v7qKioWKvrerEsy1P9fn/JwYMH6f3338euXbugKAq6du2KjIwMFBUVnXC09nfffUf//ve/8emnn2LEiBGora2F3W5H9+7dxz355JM0YsQIFBQUsGMt2Gw2GxwOB+rq6rhk4pw8brvtNrLZbJSamkoPPqYBdugAACAASURBVPjgfySFDx06VPX3v/+diouLSRAE8vl85Pf7KS0tjQKBAKWlpZHX66W+ffvS3Llz2zzG5s2b6dZbb6Vx48bRzJkz6cCBA/TZZ5/RtGnTqKCggObPn2/+dsOGDTRp0iS67rrr6Oabb6bXX3+devfuTYwxSk1NJavVSpMmTaIvv/yS7rvvPvL7/eR2uyk9PZ0A0NChQ2nVqlXHvN4PPviARo0aRTabjZxOJ2VlZVF6eroZgJOUlESjRo2i+fPn04MPPkgXXXQR3XDDDW0GOlVXV+e9+eabVFxcTCkpKeR0Osnv91NGRgalpqaS1+ulnJwcSk1NpXvvvZf27NnT6n4WLFhAl19+OY0bN45eeuklOtYEfdttt1EgECCv10tZWVnmsXw+H3m9XkpOTqbzzz+f3n777VOmFv/xj38kj8dDgUDguAFXd999NwUCAcrIyKCbbrrJ3Pbpp5+mCRMm0OWXX07Lly+n8vJyeuqpp2jYsGE0ZswYqqioWNt8sffwww9Tt27dyO12U0pKCgUCAXO8pqenk8vlouLiYnrxxRdbPafS0lIaN24cFRUVkcfjobS0NBo+fDhdddVVNGnSJFqzZk2L323bto2uueYaysrKMsdURkYGpaSkUFJSEnm9XrJarXT11VfTp59+esx78emnn9Lvf/97ys/PJ4vFQnl5eXTjjTfS999/T8daLD/22GM0YMAAstvt5PP5aOjQofTGG2+0+puvvvqKrrvuOpo4cSLNmDGjxX1MZP78+dSnTx/y+XzkcrnI7/dThw4dKDMzk+x2O7ndbsrLy6MHHnigzbF98OBBmjFjBo0dO5buuOMOevfdd+kPf/gDJScnm/fG5XJRt27d6IknnjihMfvuu+/SwIEDye12k9/vJ6/XSykpKdS+fXvyeDwkiiJddtllNH/+fLrzzjtp7NixdOutt7bI8161ahWlpqbywCzOTyOE27dvT/fccw8dz5zXmmnn5ptvpqysLPJ4PJSamkoZGRmUlpZGeXl5lJuba04yOTk55HA46K677mr1OF9++SWlp6eTw+GgAQMG0C233EJnn302uVwustls9Pzzz5u/W7z4Q8rMTCe73UodOrSnTp0KyOVyULt22ZSTk0Xp6WmUnZ1JF110AaWlpZDfn0wOh43y8nKpXbt25HQ6afr06W1e71tvvUV5eXmm0HK5XJSdnU2BQIA6dOhAOTk5ZLPZKCUlhc466yxKS0sji8VCKSkp9Oqrr7a63xkzZlBhYaEZ5ZuUlEQdO3akgoICyszMpIyMDEpOTqbMzEzy+/106aWX0q5du1rsa+bMmeT3+8nhcNCMGTNaPdbu3btp9OjR5PP5zMjdnJwcateuHXXo0IGSkpLMZ+X1eik1NZVefvnlUzKpTJ8+nWw2G7Vr144eeOCBY57DhAkTKCkpiQRBoKeeesrctlEgk9/vp5tuuokmTZpE6enpJIoiDR06tMU+r7zySkpKSqK0tDSyWq1UWFhI2dnZ5PF4KCsri9LS0sjpdJrP+/7772+xj/Xr15PD4SC/30/t2rUz76/P5yMA9MUXX1BzrdsQfoYQMH5nvDPG+yLLMnXt2pUWLlxIbbkXBgwYQBaLhXJycshut1N2djbZ7Xa64IIL6PDhwwta+91f//pX8vl8lJqaai6SDeHU2vNfvnw5tWvXjgRBoJ49e9KBAwdaPZ/77ruPMjIyzMV3cnIyJSUlUVZWFhUUFFBGRgY5nU5KS0ujzMxMmjx5cqv72rt3L3Xo0IHsdjslJyfTqFGjyOVyUVpaGvn9fkpPTyefz0cpKSmUmppKL7zwwjHHyzPPPENpaWmUnZ1NXq+X0tPTKTs7m1JTU83321j85ufnU8eOHcnr9VJ2dnaLRdDq1aspMzOTC2Fujj65MMYgiiJqa2vx2muvYeTIkaafkjFm5gtLkoTrr78e69atm1dcXGyabZ588smZCxYsQDgcRiwWQ79+/TB06FD069cP6enp2L17N1avXo033ngDe/fuhcvlwj/+8Q88+OCDNGvWrCZmLovFAr/fj2AwiIaGBqxYsQLbtm2DpmnIzs5GIBBoct4ulwtEhKqqKpx11lkYNmwYVFXF4sWLoes6YrEYVq5cia5du2Lo0KEIhUJ47bXXQMTAGENNTU2r9+TDDz+km2++GVVVVZBlGUlJSbj88svRr18/dOrUCXv27MHevXuxfPlyLFu2DNu3b0dKSgoAwG63txpB+uKLL9Kjjz6KAwcOmJHJvXv3RlFREc444wwwxrBixQq8/vrr2Lt3L0RRxIoVK3DzzTdj+/btlGgqs1gsEAQBFoulzbzt6667DmvXrjUjj4cOHYrzzjsPXbp0QVpaGsrLy/H222/jww8/RFVVFbKzs/HAAw/gjTfeoMsuu+xnNU1LkgSr1YpQKHTMPPTly5fTFVdcAZvNBr/fj+zsbNM0PHv2bHg8HtjtdqxYsQLff/89wuEwcnJy0KlTJ8yfP58yMzMZAEyePJkWLVoEQRAgSRLOPvtsFBUVYcyYMSgoKMDWrVvxj3/8Axs2bMC2bdsgiiKefPJJPPTQQ3THHXeY9yYWiyE3NxfBYNAcb06nE7IsIz8/v4n/cMOGDTRnzhxs3boVSUlJAICCggKMHz8eRUVF8Pl82L59Ox577DF899138Pl82LZtG/75z3+aLprEe/HKK69gw4YN8Hg8sFgs6NWrF/bt2webzYa9e/fiq6++Gtf8/q1atYqmTZsGi8UCl8sFSZIgiiKqqqogiiJWr17d6vxgFPIRRbFVd8Gzzz5Ljz/+OEKhEDRNQ1JSEqZNm4YRI0bA5/Nh165dWLVqFdasWYNPP/0Uoihi8eLFrUbCOxyOOS6Xa2Z6ejqi0ShWrlyJHj16oG/fvkhPT8fnn3+O0tJS7N+/H7Is49lnn8WmTZuotdzl5557jh566CGIooj6+nokJydj6NChuOiii5CamgpN07B69WosWbIEX3/9NaqqqpCZmQmLxQJZllsU49B1/ZgxCxzOf8S0adPI4/FQhw4dqF27duR2u8npdJLL5TI1sqSkJJIkiXJzc5uY2FauXEldunQhh8NBqampNGXKlDZNvMuWLaPx48eTLMvkcDioV69etGHDhhYrza5du1J6ejplZmaSKIpUVFREd999N73++utNtv3ooyVUUJBP7dvnUMeOefT888+a399++23UsWMeZWQEKDs7k/71r3foqOZ/K2VmZpLb7aaLL764xWq8oqJi7fDhw8nhcFBeXh516tSJ5s2bR235mWbNmkVZWVnmvcrOzqY333yTmpvZBwwYQB6Ph1JSUqhfv370wQcftLrP7du305VXXkl2u50CgQBdfPHFtH79+ibb3nvvvaZm0Fpe7QMPPEDt2rWjjIwMyszMpJtuuonKyspaPd7ChQupqKiI/H4/AaDLLrvsmObMn4JbbrmFUlJSyOv10uOPP06Jbg7jv9955x0qKiqiQCBALpeLfve739F3331nbvuHP/yBAoEA5eTkUEpKCvl8PrrmmmuopKSkyf378MMP6ayzzjJLtV577bW0ZcuWVq/3s88+o0GDBpHL5SKfz0ejR4+mtWvXNtl23rx5NHLkSEpJSaF27drRlClT6Pnnn6cFCxY0Mbneeeedpvnf5/PRvffe2+KY//jHP6iwsJD8fj/5fD4655xzaNmyZdSaFjxp0iTyer3k9/vpiSeeoO+//57+9re/0TPPPEPffPNNq9fz9ttvm26PkSNH0u7du2nVqlV011130aJFi1r9zcqVK+nMM88kn89H/fr1o927dzfZbuvWrdS/f3/TCnH++efTV1991eq+vv76a7rqqqsoMzOTJEmivLw8Wrx4MTU3R3fu3JlSU1MpOzubLrnkkibzRFVV1dAHHniAzjrrLAoEAiQIQqsumZ07d9KECRPIZrORLMt0zjnntHgvEy0aU6dOpfT0dNPVUVBQ0MKt9Nlnn1F6ejrXhLkmfHJxOp3QNA2hUAiyLMPhcEAURUSjUYTDYTDGYLfbYbPZkJ6e3qRizBtvvIEDBw7A6/WisLAQM2fORH5+fqta1LnnnssWLVpEBw4cwM6dO7Fjxw58/PHHTbZRVdXUJg8dOoROnTrh1ltvxVVXXdVin1arFYqioLa2Fp07d0aPHj3M70aNGoXXXnsNwWAQHTt2RP/+/auN74qLi/HGGwvNVW3zlIPPP/+8+LvvvoPNZoOu6/j973+PqVOntnpNnTp1YuXl5bRjxw4sW7YMQDx4o3lpz2XLlmHTpk1wOp0IBAKYM2dOm0FhBQUFrHEiQn5+PgYPHgxDgzMQRdGsZta8gk9FRcXaMWPGgDGG2tpaXHbZZfjzn/88rDGqugXjxo1jr7zyCs2YMQP5+fn46KOPMHbs2J91kBsao91ux549e7B69WpyOp2IRqN4//336eOPP8bcuXNRUVEBRVGQm5uLCRMmoFOnTuZ9EQTBrFQVjUZx2WWXYcaMGU22OXjwIN15553YunUrsrKy0KtXL8yePbvNMfub3/yGLVmyhG6//Xbs2bMHK1aswOLFi5tsM3XqVPaHP/yBPvnkE7jdbvTv3x+TJk1qsr9NmzbR9ddfj3A4jOzsbFx55ZWYOnXqujvvvBMJFiWaMWMGgsEgBEFAjx49MHv2bJx77rktzi0vL4+NHj2aHA4HZFlGRUUFOnbseFzrhSzLCIfDsFgs5rs9aNAgdjxLmSAIYIyZ2mAzqxG2bNmCQCCAzMxM3HTTTejTp0+r++zRowfbunUr1dXVYfXq1QiFQnj22WebbKMoCmRZhqqqsFgsuOmmm8zgysrKyik+n68EALvxxhtp4cKFSE1Nxdq1Ld3US5YswQcffACv1wtZlnHbbbdh9OjRrZ5Xz5492bfffkuKomDBggVwuVwA0CJQVRRFiKJozlMcLoRPCrquQ1EU2Gw2jB49GhdeeKFZt7ehoQFOpxNEhHA4DJvNhpycHHNCGzNmDIgI0WgUEyZMaHMySxCO7O6776ZnnnkGkUgEixcvxqFDh6qMSEnD1BWJRCCKIiZOnNiqADa2ISI0NDTA6/WioKAgP8GkBavVai4eNE1LTpxULBYLNE2DKIqw2Wz5zUx2qKqqAhGhb9++uOWWWxgQD2hpLeo0IyODLVy4kL777juUlZVBVVXEYrEmQvHWW281y3/26tXruFHZx0vlMO4TY6zJsQCgtLS0mIhQVlaGtLQ0XH311fD5fB+XlZVRc2F+5MiRh1JSUu648sor2dixY2nr1q2ora3FN99887MOcl3XzbrkK1euxKZNm1BZWQmn04mDBw/iwIEDcDgcplvk5ptvxsiRI1lrpkJBEJCbm4vLL7+8iQAGgAMHDmDDhg2QZRlerxf9+/c/7pgdMWIEmzVrFj3//POoqanB9u3bWxVURp59Q0NDi+83btyI7du3w+v1wufz4ZJLLkFiFP3jjz9Of/nLX+B0OiGKIjp37oz7778fxyr00bNnT6xYsQJWqxVvv/027rvvPhoxYsQxa4mnpKSgXbt2qKysxMqVK3HDDTdg0aJFNGrUKHa856NpmlnYx6CysnLK1VdfDV3X4XK5MGjQoBbPpTmdO3dmJSUl9MUXX0BRFGzZsqVJJLLD4ZgaiUTmybIMSZLQvn1787eJ0cqdOnVCKBSC3+9HeXl5i+MYke7Jycm46KKL2hTABt26dWPvvfceLVq0yFxoJF5ra//P+XXwsxTrEAQBsVgMaWlpGDVqFLvgggvYqFGj2MUXX8xGjBjBRo4cyS6++GJ2/vnns5ycHGYM8vr6eoiiiIyMDAwcOPCEjjd69GiIoojk5GTs3bsXgiB8nKgJM8agKAr8fj+GDBlyzInBarUaJirouj7U+K6+vh6xWAyapsFisTRZvRvC19AkE1N7qqur83bv3o1YLAafz4eRI0cakzcdK+3jnHPOmRMIBBAMBhGLxZoIxqqqquLy8nJTOzb2eSxaC4BrTQi35nsuLS1FRUUFJEnC8OHD0bVr14UAWmjTjZPyHQmWCtTV1cHr9WLr1q04VhTsSV9pShKICKqqYufOnfjss8+wc+dOfP7559izZw98Ph9UVUVeXh7mzZuHyZMns2PtZ/DgwTjvvPNabHPo0CHTl+jxeHDJJZckPqehbZ1fr169kJSUhNTUVGzevBnNg+UikQhkWYbFYkEoFGrx+71796KmpgZWqxU5OTlN0sGeeeYZmjNnDqLRKBRFQYcOHfDXv/7VFMCtPYfGcpI4++yzEQqFUFZWhr///e+4++67MX/+fEo04yfSr18/NmXKFFMgf/7555g+fTpmzZrVpkmeiKBpmimEEy1HFRUV8/bv3w+Hw4Hq6mqMHj36hJ73gAEDzBgKXdexZs2aeQnHy3M4HGbufG1tbav7SE1NhSRJOHLkSAvL06FDh6o+/fRTpKamQlVVFBcXn9B5tW/f3hT6jLEWQlfTNF47mmvCJx9DYBh9hE+Umpoa6LoOSZLg9/vBGDNzJ4/1OyPIwxjQiqKYASSJlbvS09ORlpbW5n6MVbnH44EoimCM7Uw0sRvalcvlgs1mm5M4URuCuLlpLRKJ7FAUBRkZGdA0zdRqsrKyjrkETklJuWPYsGEzNU2D2+2G0+lsYmI3euMSEVJTU497b4+VH5y4CDEWE4nU1tYiGo1CkiSoqorExYOh+bZhWjc16+rqaoTD4eKfa5Abz1xRFOTl5TXRaq1WK9xuN4YMGYIJEyYgLy+v1WdhsVhMQZ6VldXqcRoaGkyLDmOsiQn3WOO2sLDQNJVarVbs3bu31X3rut5qlzHDpKsoihmUBcTTqmbNmgW/3w+73W4GDhYWFjKjZWNycnKLvPPGhSNbvnw55eTk4J133kFFRQU2b96M2bNno7a2Nrk1ywcATJw4sbq2tjb5tddeQzgcRllZGZ544gmsX78eW7ZsoebFX4zx1dwsbRAKhWCz2RCNRpGXd2JdJpOSkpCRkYGDBw+CiHDgwIHEd3Cmca8ikUib+zCCp4xnkkggEPD5/X5ijEGSJOTn55+wRSY5ORnbtm1rNQCLMcarCnIhfPJJMMv+oJJs2dnZ5gtw5MgRMMZwPAFsCH1JklBfXw+n09nEfGfURa6vr4fX620SKdtcwHs8HgSDQVPgJBIOh83rCgaDCIVCMwGYwsfwOzV/oUKhECRJwoEDB5CZmdnk+McSYIkLiEgk0uQFNjRxo8rWwYMHf9Dzaa0Qh1FZStO0FpOFxWIxOxJVVFS0qfk258iRIwgGg/B4PDB8jT8XxvUQEQYMGICrr74aHo8HlZWVyMzMRPv27dnSpUvxP//zP8cU5IYbxev1trqN0+mEx+Mxn9GxKmglsnv37ibjxe/3N/ne5XKZi9jWrBOGL9HoVgbEc2rvvPNOWK1WHDhwAGeccQaWLFliLgzaKr7SzALDysrKqH379li6dCm+/PJLOBwOPPDAA00Wgs0FFBDvjvT0009j/fr10DQNK1euxC233ILy8nJKLM5hLHaN0qKJQjgpKQn19fVwOBzmf58I4XAYkUgEwWAQgUDAdHEZi+S6ujokJycjGo222S4wGAyivr4eqampCAaDTb7bv38//fa3v0V5eTnq6+tPuMqVLMsIhUKIxWJQFKVFJLggCCdUUIbDzdE/CEMDiUQiP6g4eyAQgMViQW1tLWpqarB58+YT+t13332HqqoqhMNh5Ofnw+12r0tcEBiBYETUZCXcXMAbFZaMILKkpKPfGytgQ5tyOBwLE78z+iZ7vd4mZsiOHTsyj8djmqK+/PLLExJg69evp0OHDsHlcpkpXYmLhdzcXLMi2aZNm37Q82ltMhZFES6Xq9XAsoKCAqSlpaGyshKMMSxfvvyElu4rVqxAUlISqqqq0K5dO1gsloU/1yA3KmYBQIcOHdCrVy9WWFjI+vfvz060fGQsFjMFeVsmQ5/PB7fbjWg0ipqaGnzyySfzTsQtsHHjRtMsmpSUhLS0tHXNF2+JWmMrzxC6rsPv92Pbtm2YO3cu/elPfzLLIBYVFWHu3LknFFzVnMzMTDZ79mxWUlKCvn37mqle//znP4/p1hg5ciT7v//7v/wpU6bA5XLB4XBgx44deO+991o8G6fTaQq6xMWZpmno2bOnaT3ZuHHjCZ3zvn37sGnTJiQnJyMSiZim6cb3s5qIYJS7bMsPa1T6i0QiLbbJzs5mubm5iEaj0DQNX3zxBY4cOfLQ8c7r0KFD2Lt3L7xeLzweT4sArGg0CpvNZpYo5T5iLoRPzgEEATabDVar9QdpwqFQCH379jU10jfeeMPU3Nr6zfbt2+mll14yte6uXbs2CVCxWCyIxWKoq6trVcNtPuk6nU5IkgSLxYLDh4/6wRJr+TZq3eMSFx2G2T0cDrcQ7sXFxcjKysLu3bvx7bff4rPPPjNn1ub+OeNajTxDSZLgdDqb1OBOT09nvXr1MvvjLl++HJs2baLjab9vv/02bdy4sdXt6uvrzUVTc/Nnnz591iUlJSErKwuLFy/GqlWrjnkcAFi7di198803KC8vR1JSEnr06IETrad7MrBareb4+08L5Bta5rEmx9zc3HU9evQwI4o//vjjFpNz4vj1+/0l69ato9WrVyMSiaC2ttbIs+7VXMM2xnRrx+7SpQtycnLw/fffo66uDo888ggqKysRCoXQvXt3PPjggy2CsD755BNasmRJm/7dVtwJ7OGHH0YgEICiKNi5cye2bds273gLvLvuuouNGDECVVVVOHjwIPbs2dPivsZiMdjt9hYdu7Kzs1lRUZFpQZkzZw7aKhKSyAsvvAC73Q5FUdCrV68mJTMFQfjYWCQbMSJtadPGgqC1bTp37gxFUZCWloZ3330Xhw4dmnm883rvvfdQU1Nj9g1uroV7vV40NDSgoaHBiMRfx0UUF8InhWg0imAw+IOCDvLz89moUaOgKApcLhdWrVqFa665htoyo23dupWeeeYZfPHFF6ivr0deXh5GjRrVQit3Op2wWq3HXWVGo1E0NDS0KqwNv29rPiXDN+t0OhEOh9F8khsyZAhSUlIgSRL27NmDu+66y9Qmm0++ycnJO5988kmaO3cu0tLSTNNz8wjZgQMHokOHDggGg9i7dy8effRRtFWSsLKycsrcuXN33HHHHRg9ejSuvfZa2rdvHzXXAowJsrlpLC0trdfw4cNNU+4LL7yAOXPmUFuT8KZNm+iPf/wjtm/fbjTbwKBBg37WQW6Y1o1F0w+lsrJyiiiKZqGMtkhLS+t13nnnmdHxb7zxBkpKSma2ZXkoKyuj5557DsuXLwcRoWfPnrjwwgtb7DcSiSCxwE1zBg4cyC688EIwxsz3LCMjA+eddx7+9re/tYiWX7RoET300EO44YYbcPHFFyc3L5t56NChqvLycnr//feblFZ0uVxwu91wu92oqalpEeOxY8cOWrduXYvcY1mWEQgEoOt6i8Ayq9VqnrNxjYmMHj3a/G1ZWRlmzJgxrq1F5qFDh6pmz55Nn332mRl/MHz48Obv9ThDyz5eZzfjXIz3IZErr7wSSUlJOHz4MMrKynD//fejtLS0zZ099thj9NJLL8Hj8ZgL++YLQkVRQETmd0SUx0XUL5+fpXmnoYH80Alw4sSJbPz48WTk461cuRITJ06k3/72t+jWrZvpk923bx/uuusuLF68GDabDZFIBKNHj26RzpDoU2qe6tOa9mScu6ZpSE09WhDeWMkaftrEidlmsyEcDpvasiRJTczMXbt2ZY8//jjV1NRg//79WLt2LZ5++mk88sgjNHjwYCQnJ4OIUFlZiZdffhl/+tOfkJqaikgkgoqKCni93hYTVb9+/dijjz5Kc+bMQW1tLV5++WUEg0HMnz+fOnfujEAggGg0inXr1uHPf/4zXnjhBVOz2r9/f4uJUVVVKIrSxIybyA033IBPPvkE3377Laqrq/Hcc89h5syZNHz4cHTo0AGRSAThcBjr1q3DH//4R6xZswZerxdOpxNXXnklWqs+9FMSi8XMoJfWoot/iHVGVdVj+uwuvPDC6o8++ih56dKlsNlsePbZZzFy5Ei68cYb0aVLFzOqftOmTbjqqquwfv16GNWb+vbti7baE0qSBMZYqylKAHDBBRdg1apVWLduHVJSUmB0JbJYLDh48CDt3LnTrPZ1zz33YMuWLeYisvl7+dxzzyW/+OKLqKiowJgxY7B27VpKSUnBk08+iR07dkDXdeTk5KBbt27DjN9s3LiRJk6ciLKyMjidTrzwwgs0ePBg7NixA/fff7+pXebm5qK5gDYWR5Iktaho9pvf/IbdeuutVFJSgkAggA8++ACxWAzPPfcc9ezZExkZGaiursbatWtxxx13YMmSJQgGg3A4HBgzZgyGDRvW/HjVuq4nG26jtnJyDYuWkfvcmmVg/vz5NG3aNMRiMSxduhQ7duzAyy+/TMXFxYhGo/D7/di8eTOef/55PPXUU3C5XFAUxRxDzecf47wNbVlV1WQuorgQ/vEHkCQzr/Y/4fHHH8fhw4exceNGEBHeeustrFixwuw0VFVVhdLSUjMQy+Fw4MILL8TEiRPxwAMPNNmXx+MBEcFutx83OEgURXNSaB54YZgFLRaLuXqtrq6ckpzsL9E0zXyRGtMgWgSTTZ8+nf3pT3+il156ySyfuXjxYnTu3Nksd7du3ToIgoDk5GQzUjwjI8NM+WrOtddem79t27Ydb7/9NmRZxr///W+sWrUKfr8fKSkp0HUd+/fvx8GDB9G+fXts27YNgwcPxr333ovOnTuz5gsQo+Rga6X/MjIy2OrVq+nGG2/Evn37UFVVhUcffRTvv/8+/H6/6VNetmwZJEkyy39OnjwZV1xxxbAbb7zxZx3kFovFvKb/RBP2+/0l06dPn0dE8Pv9xzRpBwIBX2lpKR0+fBjffPMNwuEwPv/8c+zYsQMulwvt27fH4cOHUVpaao7JqqoqDBs2DP/7v//b989V0wAAIABJREFUQgAfOXLkobvvvtvUjtoKJBo4cCB76aWX6IknnsDOnTvh8/mwdOlSrF+/Hh6PB263G/v27cOuXbvg8XgAAG63G1OmTGmRK9+lSxfs2bMHbrcbX3zxBW655RZEIhEcPnzY9N2effbZTVwt6enp8Pv9+PLLLyFJEh599FEsWLAAhw4dws6dO83Sl4MHD25imi8tLTXzl9ta9N1yyy1oaGjAq6++CiLCv/71L3zyySfo2LEjZFlGTU0NKioqUFlZCY/Hg2g0ikGDBmHWrFktWkaKolhisVhmRqNRxGKxNiOkDVeM2+1u04J3zjnnYMKECXj33Xfh8Xjw7bff4vbbb0dWVhays7Oxc+dOBINByLKMyspKM0DViJ5vPv8Y98FisRiusGouorgQPikYrbn+f3vnHR1llf//9zO9ZZIp6Y0khITQO6EJGAhNUBAUBUSlKSCCKCioX/C7KruKygordmwokZ8gTSH0EkkhQCgJpE96JjMpM5k+9/eHPs9JmQlhgd39rvd1Tg6cMzP3afe5n/65/0wNXHBwMFNQUEDWrVuHEydOIDAwEGazGQUFBSgpKeFiOzKZDP7+/ujZsydeeOEFr9u0GQwGGI3GDjd4Z60no9EIs9mMiIiIVp+x2ba1tbUIDQ2FQCCASvV7FqzFYuHqD/9I5kkC0C5DdtWqVeMYhjmyb98+5OfnQygUorS0FDk5OVCpVFxmpkAgwNNPP43r169j7969CAwM9GgNqVSqQp1Oh4CAAOzcuROVlZVcJmZ1dTVnxfn5+UGn02HmzJl4/vnnMWTIEMaTG45VIrxtqzZs2DAmNTWVfPDBBzh//jxCQkK4vsV8Pp+rr/Tz84Ovry+SkpLw+uuvM6+//vq/fJI3NjaiuroaYrH4tsrk2npRGhoaIJFIbjmPu3fvzuTn55PXXnsNhw4dgkKhQE1NDUpLS5Gfn88lI7ndbjQ0NGDhwoVYsWIFdu/e3W4srVa7duHChWuMRiNXxuON+fPnM7t37yZvvPEGamtr4XA4cOPGDWi1WlitVjQ2NkIikaC8vBxjx47FI4884rFb25gxY2Kee+65gp9++gkVFRVcEh7bnGbEiBGYP38+/va3v6GFEGaOHDlC9Ho9dDodjEYjdDodVwOsVqvxzDPPcN2p2DmblpYGi8WC+vp6rzHa8PBwpq6ubhHDMNvPnDkDnU6HhoYGFBQUoL6+Hnw+H0qlEm63GzabDbNnz8aSJUvQu3dvpsV7n6RWq1PNZvOapqYmNDU1ccqhJ5qbm2E0GmG3272uE2xPg+eee44cOnSIS1gsKCjAlStXIBAIoNVqUVBQgISEBEydOhUnTpxARkYGFyJpGzapqqriPFHNzc3UEqZC+M7x8/ND3759IRQKERwc/E+NwXYdev/998nevXthMBg4l+cfG6QjJCQEI0eOxPLly5kff/zRa4xn0KBBCA4ORmxsrFerghW0/fr1Q2NjI/r06YM9e/aQ4ODf63mtViv69+8PvV6P7t27t3JzKxQKxMbGQq1WIyEhATabbXtbIVxTU5OpVqsHAmBSU1PJ/v378dtvv6GsrAxdunRBU1MTWFfbvHnz8OCDDzJLliwhiYmJkMvl7epU2VIYdlFISUkhx48fR2ZmJmpra8FacKyi8sgjj+D+++9Hly5dGC+WH4YOHcrVaHsjKSmJuXnzJtm1axdOnz4NpVIJu92OhoYGREVFITY2FnK5HM8++6zH5hb/KiIjIzFq1CgIBIIOa8M7Ijo6GiNGjADDMK26LHmja9euTGFhIZk8eTJ27tyJq1evws/PD9XV1fDz8+Msw+TkZMycOZN5991325XvtFBEMWTIEC5ztiNmzJjB/LHNItLS0tDU1ISysjKIRCJEREQgMDAQ9913H0aMGOG1+xRbJ/zaa6+R06dPo6KigvPA9OvXz6uSO27cOObAgQPkiy++QEFBAZxOJ1QqFQYOHIhx48Zh/vz57X5js9kQGxsLlUqFnj17elQyamtrd2k0mlkAPt6zZw/55ptvkJeXB5PJhODgYC7cNWDAAEybNg1jxoxpN7dZq10ikRhjYmJUoaGhrWqq26JUKjFixAgQQtCjRw989dVXXnsUbNmyhdm/fz/58ssvUVFRwSl8VqsVYrEYDz/8MFavXo2QkBBcv34dvXv3hlarbVfmxW720dTUhMjIyA7XJ8p/D/d8YexsrWRHtK1lzcvLIxcuXIBYLIavry80Gs1tbxrvrU1kZzEY9G+r1d7LijrTWKQlpaWlJCcnBwaDARqNBvHx8VAqla02Fb/VmC3vdU1NTWZVVdWA8vJy1NfXQyqVIigoCBERER67W93p/dHr9W/n5+ev+aNLGbsBfKuNzP/d3KoW+15RXV1tMJvNqvT0dG4XoOjoaHTv3p25k/egM8ctLCxUVVRUwOFwIDAwEBEREbdspdl2Xl69ehVSqZRVqDv12+PHjxO22U5sbGyHc46dty1bzN7qfSovLyfZ2dmoqamBUqlEeHg4YmNjuR7mHd0rdqySkhJyqxK1232Pi4uLybVr12A2m0EIQVxcHPr06cO0HdNkMh2JiIhgvN2L4uJi4k1JplAoFAqFQqFQKBQKhUKhUCgUCoVCoVAoFAqFQqFQKBQKhUKhUCgUCoVCoVAoFAqFQqFQKBQKhUKhUCgUCoVCoVAoFAqFQqFQKBQKhUKhUCgUCoVCoVAoFAqFQqFQ/ovQ6XTkypUrJCMjgxQXF5OKigpC7wrlXmEwGJLudIx/1Ry9G+dKoVD+M/m37VdpMBiSrl+/fuTcuXNIS0tDQUEBbDYbhEIhbDYbNBoNEhISMHz4cCQmJt723qsUijeeeeYZkpaWBqFQiKeeegrPPPNMp+dWfn4+WbVqFUpKShAUFIRly5bhgQceuOtzs7q62rBt2zbVTz/9BJlMhmXLlmHOnDn0HaBQKHdOZmYmWblyJenatSsJCAggwcHBRKlUEplMRjQaDVGr1UStVhOVSkWUSiUZPHgwee+990hhYSG1jil3zObNm4lEIiEymYwkJyff1pz65JNPSFhYGJFKpWTQoEHk4sWL92xOPvbYY0Sj0RCZTEb+8Y9/0LlPofwXIvhXH3Dnzp3k6aefRllZGRwOB+RyOdxuN3x9faHVaiGTydDc3Izi4mKIRCLIZDLk5eXhrbfeQnZ2Ng4ePEgSExNjVCpVIX18/zynT58maWlpsNlsmDRpEgYMGODRyioqKiINDQ0AAJVKhcjIyH+5NabT6UhlZSWEQiFCQkKMgYGB6jsZb+jQoYiKikJpaSnKysqQmppKkpKSOnVdGRkZaGxsBCEEY8eORd++fe/Z/eDxeK3+/mxkZWWR/fv3Q6lUYvLkyejWrRv1BFCoEL4TPvvsM/I///M/sFgssNls8PPzQ69evTB48GCMGDECoaGhaGhogM1mAyEEhw8fxu7duyGTyWCz2fDjjz8iOzsb27ZtKzAajVQQ/5Pk5eWRpUuX4rfffoPJZML169eh0+lIeHh4u0Xu73//O1JTU8Hn87F8+fJ/y/nu2rULu3btAp/PxwMPPKC60/GGDRvGPP7446S8vBwVFRU4cuRIp36XnZ1N5s+fDz6fD39/f9x///3YtGnTPbtuPp/f6u/PRHZ2Nlm5ciVOnDgBpVKJjIwMlJSUkH+HEkih/FcI4Z9++om8+uqryM/Ph5+fH+Li4jB9+nQ8/vjj6NKli9cXKzc3l+zYsQNff/01eDweYmJiEBwcDCqA/3kKCwuRk5MDkUgEX19fXLlyBUVFRR6/W15ejsuXLwMAqqur/y3nW1JSgvPnz0OhUCAp6e7kKI0ZMwbHjh2DyWRCeno6iouLSUfzEABOnTqFyspKuFwu9O7dG3369DHey+tmGIb7l/3/n4WqqipkZGQgJCQELpcLFy5c+NMpIhQqhO8Yo9EYrVKpCm/evEnmzp0Lo9EIf39/hISE4M0330RycjKzbt26DseIj49nAODLL78kN2/exJNPPomuXbtSbfgOiIiIQGRkJNLT0yGXyxEREQGNRuPxuy6XC2r1795flUr1bzlfsVgMuVwOkUh019yyY8aMQXBwMIqKilBQUIBz587dci7PnTsXbrcbAoEAo0ePxp26xW8FIQSEELjdbrjd7j/VHA0MDERUVBQKCgrgdDrRq1cvhIWF/de/97W1tbv8/f1n0VWKCuG7Amut7tixA5cuXYJQKERMTAw2bdqEvn37ptzOWPPnz2cA4C9/+ct/zM2rq6tbpNFoPv6/9tB79OjB7Nmzh+zZswdCoRCzZ89Gjx49GG8CkBACp9MJi8VyT5S0W31PKBTC7XbfVUsoJiaGmT9/PtHpdDAajTh9+nSH38/Lyyu4ePEiAECr1WLo0KH3fMEl5M+bi9W/f39m79695MCBA5DL5XjooYeQmpr6f+469Hr921qtdm1nv08FMBXCd52rV6+SmTNnIiAgAGazGTNmzMC4cePuuUZ7/fp1cuPGDZSVlcFms0GtVqNbt24YNmzYP33sqqoq4nQ6OY28pQAuLi4mTqfz32alV1RUELvdDqVSOU6tVt9ytXrwwQe58/zkk0+8fk8kEsHpdIIQcttWqE6nIzdu3EBubi5sNhuioqLQv39/yGSyFH9//1mdDSnweDw4HA7weDy4XK67ds8mTZqEM2fOwGKxICsrC+fPnydDhgzx+PwOHz6MxsZGiEQi9OzZE127dr3l+Ddu3CDFxcW4ceMGzGYzunXrhgEDBiAiIoK5FwtuTU1Npl6vH5CdnY26ujrY7XZERERg4MCBiI6O/qfmpdFojLbb7Zl/WKe3bfnn5uaS/Px8lJeXo7m5GSKRCP369UNwcDCioqI6PKdp06YxrBB77733On3Ms2fPksLCQhgMBqjVasTFxWHw4MF39F7W1tbucrvdSYQQVVBQUKfHaimAb9y4QWpra3Hz5k0YDAYEBgZi4MCBiIuLo549KoTvHUeOHIFOp4NQKERCQgLmzJmD9evX37PjXb58mWzfvh0LFiyATqeD3W4HwzDg8Xjw8/PD1KlTyaJFizBlyhSmI4FWUlICgUCAiIgIY0VFhSolJQWPPvoonE4npk+fTtasWYMhQ4Yw+/fvJzt37sRjjz0GPp+PpKQksmLFCgwZMiQrICBgYFuFxGq1QiAQoE+fPl6Pn5WVRRiGgVwuh1arXdzW2j537hwRi8UICgoCwzA4ceIElixZgqKiIqjV6iMPPvggJk+ejMmTJyMkJITxYtkRs9kMoVAIkUjUaiHIz88nBoMBAoEAGzZsgEAgAI/HQ0VFBXJycohQKISvry+Cg4M9jn3x4kWyb98+zJ07FzqdDm63m4tpqtVqjBkzZubVq1eJv79/lk6nG+B0OqHVahETE8ONx2Zlm81mLimLx+PBYDAgIyODiMViqFQqeEom6yxjx47dpNFo1tTW1qK4uBgZGRle58NTTz3FncPYsWO9Xjvwe1LRTz/9hMcffxwGgwEAYLVawefzoVKp8Oabb5LZs2dDoVCkFBQUzHQ4HAgKCkJsbCzTVvnoTHZ0bW3trlOnTs18/vnnkZaWBrPZ3Mp1r9VqsWzZMjJr1iyMGjXK43kXFxcTo9EIm82Gbt26jTMYDEe++OIL3H///RCLxRAIBFiyZAlZtGgR+vfvf8t7rtPpyJ49e/Dss8+iuLgYLpcLdrsdTqcTMpkM8fHx+PDDD8m0adO8PsPCwkJSVlaGzMzMNSqVqtX8aEtZWRn5+eefsW/fPixYsAAWi4WbcyKRCHPmzCGzZ8/G5MmTmQsXLhDWy6PRaNBSqFZXVxsqKytVVqsVgYGBkEqlSE1Nxbx581BeXo6AgADMnDmTTJw4EZMmTUJnBHJJSQnZvXs3Fi9ezK1JPB4PbrcbCoUCy5cvJwsWLECfPn2YCxcuEIFAAKFQCK1Wm0ItY8ods3DhQiKVSolUKiWvvfbaPfWv7d69myQmJnJ1nD4+PkQikRC5XE40Gg3x8fEhYWFhpEuXLmTp0qVEr9e/7W2cwMBAEhcXR6ZPn04eeOABolKpiEAgIBEREUQmk5FFixaR7du3kyFDhhCGYYhKpSJarZZIpVLSt29fkp+f3+pa8/PzSUJCAomIiCCxsbEkNzfX4724cuUKGT9+PNFoNGTw4MEkKyur1fdSU1OJVqslXbp0IePHjyebN28mvr6+xM/PjyiVShIeHk58fHxIbGwsWbx4sdf7vX79eqJSqUhoaCjZuHFjq+9t3ryZREdHk169epHY2FiiVqtJZGQkiY+PJzExMWTgwIEkJSXF49gHDx4k/fr1I5GRkUStVhMfHx8ik8m456HVaklwcDAZPnw4WbduHQkKCiJRUVFk+fLlrbqkffLJJ6R///6kV69eJCoqigQFBRGtVktCQ0NJQkICiY6O9noOt8Orr75KQkJCiEQiIXPnziVerGCi0WhIREQEiYuL8/rsAGDHjh2kb9++JDw8nKhUKuLj40PkcjlRKBTE19eX+Pv7k6CgIPLggw+SJ598ksTFxZGEhATyzDPPtBvziSeeIIGBgUSpVJKPP/7Y4zENBkPSmjVrSJcuXUhQUBDx9fUlgYGBRCgUEoVCQdRqNWEYhkRFRZERI0aQTz75xOM4L730EgkLCyO9e/cmK1euJA899BBRq9VEIpEQhUJBVCoVCQwMJDExMeTzzz/v8L5nZWWRGTNmEJlMRlQqFQkJCSEymYxotVoiFouJRqMhDMOQwMBAMn36dJKWluZxvEWLFpHw8HASEBBAvv32W9KRkJs7dy4JDg4mcrmcBAYGEoVCwd1zkUhEpFIpSUxMJGvXriXdu3cn0dHRpGfPnuTatWutxv35559JfHw8CQkJIXPmzCHLly8nvXr1IgBIUFAQN6ejo6M9PrO2ZGZmkgkTJpDIyEgilUqJv78/8fPz4/oh8Pl8EhISQhITE8nKlStJbGwsCQoKIqNHjyY1NTWZVIJQS/iOqK6uNixbtozLwo2Kirpnx/r000/J+++/j6ysLMhkMqjVakRGRiIsLAwCgQDV1dUoKipCQ0MDGIbBzp07wePx1tTW1ka31Tb1ej2kUimqq6thNBo5C06hUKCxsREKhQInT55Eeno6Ll++jG7duqG5uRkNDQ0IDg5GeXk5fv7551bnxzAMCCGor69HYGBgh9fS2NiIpqYmmEymdnFYi8UCHo8Hi8WCwsJCbNmyBQKBgDu/K1euQKVSoba2FseOHcPWrVvJ0qVL22nrzc3N3Fg2m631pBAIUFtbi7KyMsjlciiVSohEIu68KioqIJVK2533Dz/8QF5//XUYDAbodDpIJBL07NkTkZGR4PF4KC8vR0FBAQwGA/h8Pr788kswDIOamhoUFha2strr6+tx+fJl1iKAr68vrFYrHA4HSkpKIJPJYLVa73jeTJkyBV999RUkEgmysrKQlpZGEhMTW92vXbt2QSQSwWKxYNKkSVyyoKc5uGnTJpjNZuh0Ovj7+2PAgAGQyWTg8XhoaGjA1atXUV9fj3PnzsHX1xcNDQ3Q6/UYO3bsbZ03m4/w9ttvH/nmm2/A5/NRU1ODoKAgBAcHY8KECWhubobVakV+fj7KyspQVlYGo9GI3bt3kxkzZjBt56fRaITdbsfRo0dRWVkJPp+PLl26wGw2w2azcfPlhx9+wPHjx8mYMWMYT0Jn9erVuHHjBkJCQlBbWwupVIr+/fvD7XZDJpPhwoULXD+AgwcPorm5GadPnyYjR45sNZ7dbufKGR0Oh8f7UF5eTpYuXYrs7Gy43W7YbDaEhoaid+/e0Gg0sFqtKC0txY0bN5CVlYWqqirU19fD7XaDENJuXIfDAafTCZfLhVOnTsFsNoNhGMTGxkIikSA/Px8KhQImkwmZmZnYsmULee655zzOh4KCAjJt2jSUlJTA6XRCoVDAz88P4eHhUKlUqK+vR01NDXJyctDQ0ACDwYCmpia4XC42GW8AFVFUCN8R9fX1qpqaGrhcLsjlcoSEhNyT42RlZZFly5YhMzMTPj4+CAsLw5w5czB27FhERUUt1mg0HxcVFZGMjAz8+OOPOHHiBBwOB1JSUhAVFTWzZfxLpVIVut1uOBwOiEQi1g2HPn36oK6uDlu2bEFtbS0qKysREBCAl19+GaNGjUJZWRk++OAD1NXVQSAQICcnp9U5ikQiEEIgEolueT0Mw4DP53Ou4rYuSpvNBh6PB6vVioCAACxfvhyxsbGQyWTIzMxESkoKcnNzUVVVhT179qCoqIi0jb+JRKJWfy1hS3AkEgkqKipQX1+PxsZGqNVqREdHQygUQiAQtAsDrFu3Drm5ubDb7ejbty8eeOABJCUlISIiAjKZLKWhoWFmfn4+tm/fjpMnT8LhcECj0UCtVkMmk7Uaz9/fHyNGjACfz0dlZSUqKiogEAgQFhaG8PBwKBQKKJXKO547Q4YMYZKTk8nly5eh0+lw5syZVp+XlpaS5ORkuFwuuFwujBw5Eh999FG7cU6dOkXWrl2La9euwd/fn7v+SZMmITw8HGFhYUxxcTHJzMzEt99+i8OHD8PhcEAqlUKlUkEsFt/WeWs0mo/feecdsnHjRkilUlitVowYMQKrVq1CXFwc1+b1u+++I2+++SYUCgX8/f1RUlICs9ncbjy2FtnpdKK0tBTjxo3D7NmzERwcjEuXLuH8+fM4fvw4GhoacPHiRRw6dKjdGEVFReSNN95Abm4uDAYDlEolnnjiCUyYMAEDBw7MCggIGFhWVkaKi4uxc+dO7N27F2azGefPn8eWLVtw48YN0rYhB+tS9paktnnzZvz6668QiUSQSqVYtGgRJk2ahJ49e0KpVI7T6/VHCgoKcPLkSRw8eBA5OTmIjIyE3W6HRCJpN48BcEmAFosFXbt2xbRp09C/f3/Y7XYUFhbis88+w/Xr12E2m/H999+jsrKStA1PFBYWkuXLl6O0tBQ+Pj5wOp2YM2cOJk6ciP79+y92u91JDQ0NM69evYr9+/fj6NGjKC0thb+//11PgKT8iYWw3W6HzWbjyjrkcvldP0ZNTU3me++9h+vXr4NhGHTp0gVr167FrFmzWr0UrBDKzMwkLpcL169fR1FRET7//HNcvXqV9OjRg2EThdRqNZqbmyEQCNClSxcsWbKEi+8+++yzZN++fXA6nYiLi8PSpUs5C2716tXk66+/hlAo9PhiWyyWTi22PB7Pa5MGp9MJkUgEhmGgVCqxfv16TJ8+vdW1vvPOO+TTTz+F0WhEeXk5rl696nHR5fF4HutPV65cyeTm5hKXy4WNGzfiwIEDUCgUePLJJzF//nw4nc52td3ffvstTp06BZlMhvDwcCxbtgxPPfUUs2HDBo8u982bN+Po0aNoaGiAVCptpwhMnjw5ZejQoTPdbje2bt2Kb775BgqFAqNGjcLLL78Mg8HgNaP7dklOTsbFixfBMAwOHz7c6rP9+/fDarXCZDJh0KBBGDlypEeX8Pr163HlyhWEhIRwz+Xhhx9m3njjDe577D27cuUKEQgEOHbsGJxOJyQSiVdLzxuslaVQKNgcA3z44YetukpdvXqVrFixAuXl5fDx8YHNZsM777yDSZMmtesw4nQ6uXk7evRovPjii62SmfLz84lEIsGXX34JPp/fTskEgDNnzmD//v1cPf/o0aOxZcsWZsuWLdx32KTG2traXZGRkTM/+ugj+Pj4YOTIke06Yt0qJn7+/HmSnJwMlUoFhUKB0aNHY926dQgNDW05DgP8HqPWaDTYtm1bS0uznXBn8x8cDgciIyOxYsUKPPbYY63O6+OPPyabN29GdXU1CgsLceXKFU9KGY4ePQqtVgsej4dVq1Zh/vz5m1okan3c8lkGBgbiyy+/BCGEezd5PF4WFVH//dzTXnhyuRy+vr6cQG5sbLzrx6ioqBhw8OBBAEBwcDCSk5PbCeCWDBw4kFm1ahVXetPY2Aj29y2VB9Y1FRYWBkJINPtZXFwcCCGc26ulCzUqKgomkwkNDQ3tFg2XywWGYbixO6LlAtF2kXC73VzJjlwux+jRo8e1dFH+oQwwcXFxMJlMMBgMKCkpaXcM1rJj/9oSHx/P9OjRg2Gzo51OJ3x9fREWFsa0FcCFhYXkzJkzXPbyI488gkmTJnm9vp49ezKrV6+Gn59fKzd3G0t4Vnx8PJOQkMAEBQWB9U5IJBIEBwczd0sAA0BSUhLncs/Ly8PJkye5m/7rr79yAnLEiBFcZnNLKisrj5w7dw5OpxMAsHjxYjz88MMMG5LxdP0LFixAaGgohEIhTCbTbWee7969G5WVlbBardBqtdiwYUMrIZaWlkYWLlyIrKwsSCQSuFwurFu3DkuWLGG8lcy4XC4IhUL07duXE8DsDk5du3ZlJk6ciNDQULjdblRXV+P69eutJufp06dhtVphtVoRERGBbdu2eX1G/v7+s+bPn5+1e/duHD9+fJwnl67L5YLNZoPdbvdYJ/3RRx+Bx+PB6XQiMjISL7/8clsBzBEeHs7MmjUL06ZNQ2NjIywWC5xOZzsl1Ol0cgqzVqvF4MGD2421aNEipkePHhCLxXA6nSgoKPAUmkFoaCiamprQp08frF692ut9j4mJYR599FH06tXrroRYKFQIcyiVyk1arRZOpxMmkwmFhXe/yVVpaSlKSkoglUoRGhqKJ598Ei3dy55+M3z4cGbs2LEQCoVwOp1IT09v9TkbIxWLxZDJZK1KMxiGgcPhgEwma+dCZWOWfD7f48utUChu6yVjs7rbupFNJhNsNht8fHzauSjZ/wcHB8PhcMDhcLQTcC3de56O0dYakUgkXJa5J0pKSlBWVsbdk2nTpt0yazQhIYGZOnUqJBIJfHx8PMaYWy7GbKzuXtTO9u7dm+nfvz8IIbDb7fjhhx8A/F5eU1paCqPRiLCwMAwaNMjj7/Py8lBeXg6VSgV/f/9WXb28lfUkJyczY8eOBY/Hg1gsvu3Sq6KiIthsNthsNgwxUOmLAAAVU0lEQVQaNAgt49hZWVlk7dq1KC4uhtvthkQiwZo1a/Dss88yHT1n1lPT0ivRstwtOjoaAQEBcDqd4PP5rdzaRUVFJC0tDTKZDCEhIXjkkUc6fAcBICAgYGC/fv2Yjkrq2G5hbZ+7wWBIunbtGufNGTdu3C1LniIjI5nx48dz800oFLab02ycmM/ncw1iPMHmKHh610tKSsiVK1dQX18Pf39/PPfcc2Ct/44U04ceeghKpZLGhKkQvntotdq1YWFhkEqlsNvtYJsd3E3q6+vB5/M5K6mlNdBRHeqwYcMgkUhQV1fXzkJXKBRcfKy5ubnVZ83NzdyLxyZttVww1Gq1R/eiy+XyaNl6w1unJHYM1iXtDalUColE4tX9zY5zq3NiBXRzc7NXQVFRUQGr1QqbzYbu3bvDz8+vU9c4aNAg1NXVweVyQSQSobKy0uOJOJ1OTgnoSFjfCePHj4dIJEJzczPy8vJQUlJCTpw4gerqajidTvTu3RuJiYlGbwKR9XT06tULwcHBnWoo3bVrVxiNRhBCPMZpbyWE3W43unbtioCAALQUwEuXLkVOTg4sFgt8fX2xatUqeEseanmPWa+IQqHwOhfsdjvsdjuEQmGrOd7Y2IiamhoIhUJYLBYMGzas1TvorRKhIyHN5/O5nIW2YRm9Xn/Ex8cHBoMBGo2m081TevXqxbmc2bKplgiFQi4cxL6znvDz8wOfz/dooV+5cgVBQUEwmUzQarXo0qULZ/13dG7dunUDu1kKhQrhu0ZMTAw0Gg0cDgfS09PRtuTmTjGZTBAIBK3aK3YGo9EIgUDAbQ7BunJZS1gqlcLhcLQbUy6Xc0kbbRcrkUiE+vp6zn3b9nesBX0rBAIBBAKBxw5RhBBIJBJIpVLU19ejIyvCbrdzCWaejtFRXLil8iAQCDjLwRMNDQ3w9fVFc3MzlEolbtWDmaWqqoprBmK3273W3rKJavdyN6GhQ4dyrladTofU1FQcOXIEtbW1CAgIQGRkpFerlt0NrKqqCmKxGJ3tkGSz2SCXy8Hj8bwKPk8YDIakwMBA8Pl83Lx5k6s6OHfuHFm1ahVu3rwJl8uFsLAwrFq1CsuXL2c6M+eUSiUYhoHJZPKq8KpUqlZJXC0FNBtukUgkkEgk7RRyT2N2pCizFnDLOnOWuro6mEwmznJsm+Hf0XUSQsAwDAQCQbt3g/UcOJ1OWK1WKBSKxd6UFvb99BRiqqurY+v8O51oxSY80pgwFcJ3DYPBkDR16lRoNBooFArk5uZix44dd/UYoaGhMBgM4PF4qKurayVMb7UA1tfXc1ptS1cun89HU1MTJyDavnxOpxM+Pj7tMivtdjukUikIIe0sNnZhY2Ob3lowsosY++K2XXxcLhdnoXvr98xeA3t+nqwst9vNXUtHfYkdDgesVisn0L24FWGxWCAQCNDQ0ICioiLSgfIT3fJaZDIZfHx8OrQA2E5LTqez04vt7dKjRw+Gtd4IIXj33XeRl5cHmUwGsViMGTNmdLiws1Z6bW1th9ZdW+WFje17U4DYxbllGEOtVqey3hutVgu9Xo/Lly+T9evX49KlS2AYBiqVCgsXLsTzzz/fKYWopSDx5oJVKBTcczKbza3mPyvQ2KSmuxF6Yq1zHo/XziINCAjgBHBdXV2nPQkGgwFSqRTNzc1gGKadd4dVhtgObVardXtHCoKn5Ek/Pz/4+vrCZrMhNze304ojO89bJLRSdzQVwneGWq1ODQoKYhYuXAij0QiNRoPvv/8e27Zta9WYoTNUV1cbCgoK2v1GJBIhPj4eQqEQFy9eRHp6+vbOjPfrr79CIpFAqVRCq9W2E2Csu6qtgGLjvlartZ2AbilE21oCbK0o6+7z5Nqtq6tbxC7kfn5+cDgc7axPiUTCJaN0JDwtFgsnyL1Z323jf96Qy+VQKBReXXM9evSAXC6HXC7HuXPnPGbOerJ8rl27xtVxRkZGdnh81j14Lxk2bBi0Wi1qa2vR1NTELezdu3f32O6UTVoaNWoUHA4HFAoF0tPTceXKlYKWz9TTsWpra3fp9Xq4XC4UFhZ6XKjZ5EEA7ZS6gQMHorm5GTU1NcjIyMALL7yAy5cvQywWQ6FQ4PXXX7+lC7qtIsHe346SB1mXddtYqFqtNsbHx8NkMqGxsRGnTp3yOoY317QnBZC1WNven5iYGMZoNCIgIABNTU04fvx4p64zPT2dCz95Ssxqbm6GzWYDn8+HRCKBUCjM8nZubHJX23do+PDhTHl5OTQaTaf6krMcOnSoVZyZz+engEKF8N3g4YcfHvfEE09wsa+XX34Zu3bt6vTvy8rKyOuvv65atGgR9u7d20oS9OnTB3FxcTAYDPD19cXWrVu9xhZZ/va3v5Fr165xVmnbshObzQaRSASFQgEej9cqoYJNpGHreNtqx+xGB54+8/HxASEEOp2O2x4Q+L3MCvg9sSonJwfs4iwQCBAYGGj0ZOXeqo8ym1QmEAg8usMYhoHFYoHVau3QHe12u2EymTrM4O3evTsTHR0Nu90OsViMr776CmxrQG9s2bKF/PDDD+Dz+QgLC0NTU5NXC9Jut8NsNsPlct12Pe3tcN999yEqKgoymQwOh4M73uzZs70qmQAwePBgplu3blyziL///e9gO6Z52+Djo48+mrl7926uF7XJZGp3/YQQThFse++joqIQHx8PsViM1NRUpKenw8/PD4QQrF27Fk8++WSrh6rT6chbb71FNm7cSFJTU4mnOcUKvI7cw1KplMtVaKmEBgYGqkeNGsXNywMHDuDw4cMe5wDrmv7111/JunXryLvvvkvOnTtHPB2P9X609MKw92nevHmcwnDs2LF2a0Nbzp49S7Zv3w5CCORyucewEZ/P59zVfzxPj9aoTCbj1gdP7vu5c+dySV5ff/01zpw50+G57d+/n5w+fZpLjvvDSp9JRRQVwnfNIn7++efRo0cPzv24YcMGTJw4kRw6dIh0ZP1u2rSJPP300/jpp59w6tQprFu3Dr/88gv3m5CQEGbq1KkICgqCxWLBiRMn8OKLL6Jt20iWrVu3kg8//JATTEOGDMHUqVNj2gowm80Gg8EAi8XSKqGCXQw9JU21jOW2zYKOjIxkEhMTIRaLIRQKsXnzZhw/fpz84VobyC4SO3bs4HYt6t69e7s4JNsFyVOTjZaYzWaYTCYQQtplUbPnLxAIuL7AHQlz9nNPlj/L/PnzOeVk//79+Oijj7wuPFu2bCEpKSlwu90Qi8Vwu90wm81e44OstSESie7pln7BwcEMa2Hy+Xw0NjZ2esekBQsWcMLy0KFD+PTTT+GpvWVdXd2i999/n+zZswcmkwkulwtmsxlOp7Pd9bMuUTbxsCVjxozByJEjIZPJOJd2VVUV/vGPf2DJkiUMa6UDwM2bN8mLL76IdevW4Z133sELL7yAtu8d611hcyy8uUtZ74xQKGxnnY8cORIJCQkQi8XIzs7Gu+++C2/tJlNSUsjmzZvx3nvv4dVXX8UHH3yAti0kW3p9Wiqc7H2aOnUqfH19IRaLodfrsWHDBnzzzTcej5eZmUm2bduGa9eucYmNPB6v3TU4HI5WCYveFE+r1Qqz2ez1/Zo7dy43b4uLi7Fx40bufW9Lamoq1+gmODiYU47vteeH8p+B4F91oG7dujHp6enkf//3f3HmzBk4nU5kZ2dj1apVmDBhAhk0aBCioqK4MpTMzEw89NBDMBqNqK+vh16vR0BAAHr27Ilu3bq1GnvevHnMK6+8Qt566y3ExMRg9+7dyM3NxUsvvUQGDRoEkUiE3NxcnDt3Dlu3boXZbEZdXR2GDh2KZcuWtVv8WGtXJBK1i9exQpbVlNtaLmyDek/WZ2JiIv7f//t/IIQgLy8PGzduxIoVK0hsbCwaGxuxcuVK5Ofnw263Izw8HFOmTMG3337bagw2e5M9ljdallB50tTZ5C5vn7d0a7ONVjoS+rNmzWKWLl1KPv/8cyiVSu4ZvPLKKyQ0NBQqlQp1dXU4evQoPvzwQ5SXl3OWh6dyq7aKgEQi4azye0lSUhJ27doFpVKJxsZGjB8/Hkql8pbZznPnzmUeffRR8ssvv0AikWDbtm04cuQIXn75ZdKzZ08oFAoUFxdjwYIFOHfuHKxWK6RSKXx9fVFVVeUxZOAtJMIqDL/99hs5ffo0V+LE4/Fw4MABfP311yQzMxPfffcdsrKyMGPGDDAMA41Gg6amJgwePJjL2G3pZmYT8LwJYblcDolEAqvVyrli23gSmG+//Za8+uqrkEgkOHnyJKqrq7F8+XKSkJCAiIgIlJeXIy0tDX/9619RV1cHi8WCyMhIDB48GAEBAZvaWsItu8e1JTIyktm7dy954403cOPGDRQXF+Ptt9/G448/TqZMmcLN34KCAjz22GMoKyvjumRZrVauJK2tJcxaw3a73asgZD1NrMLblr59+zIffPAB2bRpE5qampCeno6XXnoJzzzzDLnvvvsgk8lQWVmJM2fOYN68eRCLxVAqlWhqauLGvldJiJQ/qRBm3XY5OTnkvffew8mTJ6HT6dDc3Izq6mpkZGRw2jUhBHV1da200549e+Lpp5/GI488YvSUpTpnzhzodDqunV5lZSW2b9+O7777DkKhEM3NzRAKhSgrK4NGo8GAAQOwZs0a3H///e18sU1NTbBardxOJ20XRtZd5Sl2xpZoeHLxzp49m9m6dStZvXo1ACA7OxtpaWkICAiARCKBTqeDSqXiam1nz57NeHIbSqXSTmnJbDaxp0XVbDajvr4evr6+XEMVT4hEIthsNi45qyNefPFFSCQSfPfdd2hoaEB2djZKS0s5q4LP58Nut6O2thaBgYEICgpCeXk55xrsyCXe2NgIHx8fqFSqezpHk5OTmSlTppAjR45AJBJh4sSJnc523rBhAxQKBfbv3w+Xy4WbN2+iqqqqlcJmsVhACEFoaCjEYjFqamq8LrZsMwin0+nxGQ4dOpQ5duwYWbhwIZqamhAeHo6UlBTs3r2bC0WwSYB6vR4qlQqzZs3C2rVr2+1IxFqbTqfTa5Kc2+1GU1MTl4TlqVwsOTl506VLl9acOnUKly5dQklJCYqKiuBwONC1a1dO+TKbzfDz80N0dDQWLFiAF154gXnhhRfahYUYhoFEIvGqAE6bNo3561//Sj777DPo9XqUlJSgtrYWR48ehUKhgMVigcPhgM1mg1gsRr9+/VBRUQGj0egx8ZJNOGOP6S1Uw+ZksDseeWLFihXMqlWrSEpKCux2O/Ly8qDX67nmQFarFb6+vqivr4dQKESPHj1QUlLCxax5PJ6RiigqhO+Ylhu3GwyGJLVazQDAzp07yb59+3D+/HnU1NRAIBCgubkZjY2NYBgGQqGQK/wfM2YMHnvsMfTr149hC9/bkpCQwADAK6+8Qg4cOICCggLI5XKYzWbweDwIhULo9Xp07doVw4cPx5w5c7zua8zG4kwmE/R6fTvLsKKiAmKxuF18sr6+Hi6XC3q93mtTjunTp8Nms2HHjh0oKSmBRqNBY2MjysvLuT7C8+bNw4MPPoi3337bo5CvrKzkNjDwtmm43W7nlAlPAo61sGw2m8dmHi0VElZwdFRPXF1dbQgMDGQA4I033iDHjx/H2bNnUVpayiW+NTc3g8fjIS4uDosXL4ZIJMKaNWtgNBrb1WO3hHXbNjc3o7Ky8p6/FMOGDUNqair69u3Llf+0nMfeiIuLY3Jzc4lIJMKlS5dw/fp1NDQ0cG501r3cvXt3PProo3A4HPjLX/7CuTU9XTer/LStSQd+3986KCiISUtLI++88w5OnDjBeXHYOnaxWAy73Y5u3bohKSkJ69evX+wtTu1wOFBVVeW1FrupqYmrgbdarR6F9R9zce327dvJF198gaqqKjgcDtTV1aG6uppTIpuamhAREYHFixfj6aefZrwdj61Pb6mUt+Wll15ivvnmG/L555/j8uXLMJvNEIvFnNekrq4OGo0Gjz76KEaMGIHFixfDZDKhS5cu7RRLPz8/lJWVcZ4mb/OyubkZtbW1XO20NzZv3sxs3bqVsP2mGxsbYTQaERMTg5qaGlRXV6N379544IEH0K9fP8ydO7dlkx0VFVH//fzbN5M+deoUyc7ORlVVFfR6PSwWC1dfFx8fj0GDBnndtcYb586dIydOnEBxcTEKCgpgt9sRGBiI0NBQjB49GomJie06OrG70gC/98n98ccfoVKpoNVq0XLHmd9++41cvHgRer0ePXr0wEMPPcR9lpGRQY4fPw4fHx9ERkZi0qRJHe4ZnJGRgby8PDQ0NECj0SA+Pp7tuev1dzdv3iR79+7lYstLlizx+N0jR46Qq1evghCCvn37ou2ON7/88gu5dOkSJBIJevXqhbFjx3ocZ8eOHUSv18Nut2PChAno169fp57F+fPnydmzZ5GbmwudToempiYEBwcjISEB48ePx/Dhw5kLFy6QEydOwGQyITEx0atSdPjwYXL58mXw+XwMHjwYw4cPv6fztqysjHz33Xfo3bs3JkyY8E8d6/jx4+Ts2bMoLi5GaWkpLBYLoqOj0atXLyQlJaFv377MxYsXyfHjx2G329G7d29MnDix1bG+//57YjQaYbFYkJyc3GGv7Lq6ukXHjh3bfvHiReTk5KC+vh4ymQzBwcGIjo7GuHHjMHToUK+/P3jwILl8+TL8/PyQkJDgcd/h2traXXv37p3Z2NgIkUiE2bNnexXo7Fz99ddfUVBQwO2e9Uc5IEaOHIn777+/wy5X33//PdHr9WhqasL06dNb7XntidLSUnL48GHk5+dzAk8qlaJr167s9af4+/vP+uSTT0hFRQXkcjlWr17dasycnBzy22+/oaGhASEhIe36RrPs27ePsKGjMWPGtOqz7YmrV6+S8+fP4+zZs2hqakJxcTHCwsIwcOBA9O7dG1OmTGF0Oh3Zv38/14DE27tNofyfoa6ublFpaSkpLS0lna0fptx9Twj7DFomC/2ZKC0tJcXFxf+y/WH1ev3bZWVlRKfT/cfcc71e/3ZFRQUpLS0l/4r3vqKigpSUlJCqqirynzYfdDodKS0tpfsFUygUCoVCoVAoFAqFQqFQKBQKhUKhUCgUCoVCoVAoFAqFQqFQKBQKhUKhUCgUCoVCoVAoFAqFQqFQKBQKhUKhUCgUCoVCoVAoFAqFQqFQKBQKhUKhUCgUCoVCoVAoFAqFQqFQKBQKhUKhUCgUCoVCoVAoFAqFQqFQKBQKhUKhUCgUCoVCoVAoFAqFQqFQKBQKhUKhUCgUCoVCoVAoFAqFQqFQKJT/LP4/yS5N8jwaCnwAAAAASUVORK5CYII=;" parent="1" vertex="1">
          <mxGeometry x="1980" y="830" width="239.17" height="180" as="geometry" />
        </mxCell>
        <mxCell id="aA0_iblHv8PYga31qT8g-190" value="" style="group" parent="1" vertex="1" connectable="0">
          <mxGeometry x="1862.5" y="140" width="75" height="51" as="geometry" />
        </mxCell>
        <mxCell id="aA0_iblHv8PYga31qT8g-176" value="&lt;div&gt;&lt;br&gt;&lt;/div&gt;&lt;div&gt;AS&lt;/div&gt;" style="shape=actor;whiteSpace=wrap;html=1;fillColor=#dae8fc;strokeColor=#6c8ebf;gradientColor=#7ea6e0;" parent="aA0_iblHv8PYga31qT8g-190" vertex="1">
          <mxGeometry y="11" width="30" height="40" as="geometry" />
        </mxCell>
        <mxCell id="aA0_iblHv8PYga31qT8g-177" value="&lt;div&gt;&lt;br&gt;&lt;/div&gt;&lt;div&gt;AS&lt;/div&gt;" style="shape=actor;whiteSpace=wrap;html=1;fillColor=#dae8fc;strokeColor=#6c8ebf;gradientColor=#7ea6e0;" parent="aA0_iblHv8PYga31qT8g-190" vertex="1">
          <mxGeometry x="40" y="11" width="30" height="40" as="geometry" />
        </mxCell>
        <mxCell id="aA0_iblHv8PYga31qT8g-178" value="&lt;font&gt;R&lt;/font&gt;" style="ellipse;whiteSpace=wrap;html=1;aspect=fixed;fillColor=#e51400;fontColor=#ffffff;strokeColor=none;container=1;movable=1;resizable=1;rotatable=1;deletable=1;editable=1;locked=0;connectable=1;" parent="aA0_iblHv8PYga31qT8g-190" vertex="1">
          <mxGeometry x="55" width="20" height="20" as="geometry" />
        </mxCell>
        <mxCell id="aA0_iblHv8PYga31qT8g-191" value="" style="group" parent="1" vertex="1" connectable="0">
          <mxGeometry x="800" y="680" width="75" height="51" as="geometry" />
        </mxCell>
        <mxCell id="aA0_iblHv8PYga31qT8g-192" value="&lt;div&gt;&lt;br&gt;&lt;/div&gt;&lt;div&gt;AS&lt;/div&gt;" style="shape=actor;whiteSpace=wrap;html=1;fillColor=#dae8fc;strokeColor=#6c8ebf;gradientColor=#7ea6e0;" parent="aA0_iblHv8PYga31qT8g-191" vertex="1">
          <mxGeometry y="51" width="30" height="40" as="geometry" />
        </mxCell>
        <mxCell id="aA0_iblHv8PYga31qT8g-193" value="&lt;div&gt;&lt;br&gt;&lt;/div&gt;&lt;div&gt;AS&lt;/div&gt;" style="shape=actor;whiteSpace=wrap;html=1;fillColor=#dae8fc;strokeColor=#6c8ebf;gradientColor=#7ea6e0;" parent="aA0_iblHv8PYga31qT8g-191" vertex="1">
          <mxGeometry x="40" y="51" width="30" height="40" as="geometry" />
        </mxCell>
        <mxCell id="aA0_iblHv8PYga31qT8g-194" value="&lt;font&gt;R&lt;/font&gt;" style="ellipse;whiteSpace=wrap;html=1;aspect=fixed;fillColor=#e51400;fontColor=#ffffff;strokeColor=none;container=1;movable=1;resizable=1;rotatable=1;deletable=1;editable=1;locked=0;connectable=1;" parent="aA0_iblHv8PYga31qT8g-191" vertex="1">
          <mxGeometry x="55" y="40" width="20" height="20" as="geometry" />
        </mxCell>
        <mxCell id="aA0_iblHv8PYga31qT8g-196" value="&lt;div&gt;&lt;br&gt;&lt;/div&gt;&lt;div&gt;AS&lt;/div&gt;" style="shape=actor;whiteSpace=wrap;html=1;fillColor=#dae8fc;strokeColor=#6c8ebf;gradientColor=#7ea6e0;container=0;" parent="1" vertex="1">
          <mxGeometry x="660" y="304.5" width="30" height="40" as="geometry" />
        </mxCell>
        <mxCell id="aA0_iblHv8PYga31qT8g-197" value="&lt;div&gt;&lt;br&gt;&lt;/div&gt;&lt;div&gt;AS&lt;/div&gt;" style="shape=actor;whiteSpace=wrap;html=1;fillColor=#dae8fc;strokeColor=#6c8ebf;gradientColor=#7ea6e0;container=0;" parent="1" vertex="1">
          <mxGeometry x="329" y="150" width="30" height="40" as="geometry" />
        </mxCell>
        <mxCell id="aA0_iblHv8PYga31qT8g-198" value="&lt;div&gt;&lt;br&gt;&lt;/div&gt;&lt;div&gt;AS&lt;/div&gt;" style="shape=actor;whiteSpace=wrap;html=1;fillColor=#dae8fc;strokeColor=#6c8ebf;gradientColor=#7ea6e0;container=0;" parent="1" vertex="1">
          <mxGeometry x="170" y="151" width="30" height="40" as="geometry" />
        </mxCell>
        <mxCell id="aA0_iblHv8PYga31qT8g-199" value="&lt;div&gt;&lt;br&gt;&lt;/div&gt;&lt;div&gt;AS&lt;/div&gt;" style="shape=actor;whiteSpace=wrap;html=1;fillColor=#dae8fc;strokeColor=#6c8ebf;gradientColor=#7ea6e0;container=0;" parent="1" vertex="1">
          <mxGeometry x="1175" y="750" width="30" height="40" as="geometry" />
        </mxCell>
        <mxCell id="aA0_iblHv8PYga31qT8g-200" value="" style="group" parent="1" vertex="1" connectable="0">
          <mxGeometry x="247" y="519" width="280" height="320" as="geometry" />
        </mxCell>
        <mxCell id="aA0_iblHv8PYga31qT8g-35" value="" style="group" parent="aA0_iblHv8PYga31qT8g-200" vertex="1" connectable="0">
          <mxGeometry y="250" width="250" height="30" as="geometry" />
        </mxCell>
        <mxCell id="aA0_iblHv8PYga31qT8g-30" value="&lt;font style=&quot;font-size: 23px;&quot;&gt;R&lt;/font&gt;" style="ellipse;whiteSpace=wrap;html=1;aspect=fixed;fillColor=#e51400;fontColor=#ffffff;strokeColor=none;container=1;" parent="aA0_iblHv8PYga31qT8g-35" vertex="1">
          <mxGeometry width="30" height="30" as="geometry" />
        </mxCell>
        <mxCell id="aA0_iblHv8PYga31qT8g-33" value="Revisa" style="text;html=1;align=left;verticalAlign=middle;whiteSpace=wrap;rounded=0;" parent="aA0_iblHv8PYga31qT8g-35" vertex="1">
          <mxGeometry x="50" width="200" height="30" as="geometry" />
        </mxCell>
        <mxCell id="aA0_iblHv8PYga31qT8g-36" value="" style="group" parent="aA0_iblHv8PYga31qT8g-200" vertex="1" connectable="0">
          <mxGeometry y="290" width="250" height="30" as="geometry" />
        </mxCell>
        <mxCell id="aA0_iblHv8PYga31qT8g-31" value="&lt;font style=&quot;font-size: 23px;&quot;&gt;V&lt;/font&gt;" style="ellipse;whiteSpace=wrap;html=1;aspect=fixed;fillColor=#008a00;fontColor=#ffffff;strokeColor=none;container=1;" parent="aA0_iblHv8PYga31qT8g-36" vertex="1">
          <mxGeometry width="30" height="30" as="geometry" />
        </mxCell>
        <mxCell id="aA0_iblHv8PYga31qT8g-34" value="Valida" style="text;html=1;align=left;verticalAlign=middle;whiteSpace=wrap;rounded=0;" parent="aA0_iblHv8PYga31qT8g-36" vertex="1">
          <mxGeometry x="50" width="200" height="30" as="geometry" />
        </mxCell>
        <mxCell id="aA0_iblHv8PYga31qT8g-22" value="&lt;div&gt;&lt;br&gt;&lt;/div&gt;&lt;div&gt;GA&lt;/div&gt;" style="shape=actor;whiteSpace=wrap;html=1;fillColor=#FFCEEB;strokeColor=#6c8ebf;gradientColor=#4C82FF;container=0;" parent="aA0_iblHv8PYga31qT8g-200" vertex="1">
          <mxGeometry y="190" width="30" height="40" as="geometry" />
        </mxCell>
        <mxCell id="aA0_iblHv8PYga31qT8g-23" value="Assessor DGFP - Alfredo i/o Gloria" style="text;html=1;align=left;verticalAlign=middle;whiteSpace=wrap;rounded=0;container=0;" parent="aA0_iblHv8PYga31qT8g-200" vertex="1">
          <mxGeometry x="50" y="200" width="230" height="30" as="geometry" />
        </mxCell>
        <mxCell id="aA0_iblHv8PYga31qT8g-17" value="&lt;div&gt;&lt;br&gt;&lt;/div&gt;&lt;div&gt;AS&lt;/div&gt;" style="shape=actor;whiteSpace=wrap;html=1;fillColor=#dae8fc;strokeColor=#6c8ebf;gradientColor=#7ea6e0;container=0;" parent="aA0_iblHv8PYga31qT8g-200" vertex="1">
          <mxGeometry y="140" width="30" height="40" as="geometry" />
        </mxCell>
        <mxCell id="aA0_iblHv8PYga31qT8g-21" value="Assessor DGFP" style="text;html=1;align=left;verticalAlign=middle;whiteSpace=wrap;rounded=0;container=0;" parent="aA0_iblHv8PYga31qT8g-200" vertex="1">
          <mxGeometry x="50" y="150" width="100" height="30" as="geometry" />
        </mxCell>
        <mxCell id="aA0_iblHv8PYga31qT8g-15" value="&lt;div&gt;&lt;br&gt;&lt;/div&gt;&lt;div&gt;MA&lt;/div&gt;" style="shape=actor;whiteSpace=wrap;html=1;fillColor=#e6d0de;strokeColor=#996185;gradientColor=#d5739d;container=0;" parent="aA0_iblHv8PYga31qT8g-200" vertex="1">
          <mxGeometry y="90" width="30" height="40" as="geometry" />
        </mxCell>
        <mxCell id="aA0_iblHv8PYga31qT8g-19" value="CEFIRE FP - Miguel Angel Lafuente" style="text;html=1;align=left;verticalAlign=middle;whiteSpace=wrap;rounded=0;container=0;" parent="aA0_iblHv8PYga31qT8g-200" vertex="1">
          <mxGeometry x="50" y="100" width="200" height="30" as="geometry" />
        </mxCell>
        <mxCell id="aA0_iblHv8PYga31qT8g-14" value="&lt;div&gt;&lt;br&gt;&lt;/div&gt;&lt;div&gt;CS&lt;/div&gt;" style="shape=actor;whiteSpace=wrap;html=1;fillColor=#ffcd28;strokeColor=#d79b00;gradientColor=#ffa500;container=0;" parent="aA0_iblHv8PYga31qT8g-200" vertex="1">
          <mxGeometry y="45" width="30" height="40" as="geometry" />
        </mxCell>
        <mxCell id="aA0_iblHv8PYga31qT8g-18" value="Cap de servei - David Montalvà" style="text;html=1;align=left;verticalAlign=middle;whiteSpace=wrap;rounded=0;container=0;" parent="aA0_iblHv8PYga31qT8g-200" vertex="1">
          <mxGeometry x="50" y="55" width="180" height="30" as="geometry" />
        </mxCell>
        <mxCell id="aA0_iblHv8PYga31qT8g-16" value="&lt;div&gt;&lt;br&gt;&lt;/div&gt;&lt;div&gt;SDG&lt;/div&gt;" style="shape=actor;whiteSpace=wrap;html=1;fillColor=#f8cecc;strokeColor=#b85450;gradientColor=#ea6b66;container=0;" parent="aA0_iblHv8PYga31qT8g-200" vertex="1">
          <mxGeometry width="30" height="40" as="geometry" />
        </mxCell>
        <mxCell id="aA0_iblHv8PYga31qT8g-20" value="Subdirector General - Daniel Arias" style="text;html=1;align=left;verticalAlign=middle;whiteSpace=wrap;rounded=0;container=0;" parent="aA0_iblHv8PYga31qT8g-200" vertex="1">
          <mxGeometry x="50" y="10" width="200" height="30" as="geometry" />
        </mxCell>
        <mxCell id="aA0_iblHv8PYga31qT8g-201" value="&lt;div&gt;&lt;br&gt;&lt;/div&gt;&lt;div&gt;AS&lt;/div&gt;" style="shape=actor;whiteSpace=wrap;html=1;fillColor=#dae8fc;strokeColor=#6c8ebf;gradientColor=#7ea6e0;container=0;" parent="1" vertex="1">
          <mxGeometry x="410" y="374" width="30" height="40" as="geometry" />
        </mxCell>
        <mxCell id="aA0_iblHv8PYga31qT8g-202" value="&lt;div&gt;&lt;br&gt;&lt;/div&gt;&lt;div&gt;AS&lt;/div&gt;" style="shape=actor;whiteSpace=wrap;html=1;fillColor=#dae8fc;strokeColor=#6c8ebf;gradientColor=#7ea6e0;container=0;" parent="1" vertex="1">
          <mxGeometry x="409" y="260" width="30" height="40" as="geometry" />
        </mxCell>
      </root>
    </mxGraphModel>
  </diagram>
</mxfile>
